<ttFont>
          <CharString index="0">
            -107 callgsubr
            284 vlineto
            return
          </CharString>
          <CharString index="1">
            -105 callgsubr
            37 46 return
          </CharString>
          <CharString index="2">
            -107 callsubr
            56 return
          </CharString>
          <CharString index="3">
            362 -104 callgsubr
            return
          </CharString>
          <CharString index="4">
            -56 -61 -37 -49 -68 -35 36 62 55 41 33 50 22 18 -4 -5 19 vhcurveto
            119 callgsubr
            -19 -26 3 -25 hhcurveto
            return
          </CharString>
          <CharString index="5">
            97 46 -36 -55 -56 -38 -26 -92 callgsubr
            47 -15 43 -43 28 hvcurveto
            return
          </CharString>
          <CharString index="6">
            -42 -34 -34 -42 -42 34 -34 42 42 34 34 42 42 -34 34 -42 hvcurveto
            return
          </CharString>
          <CharString index="7">
            -13 callgsubr
            56 26 -43 -44 -49 -29 -40 -57 -5 -5 0 1 -6 vhcurveto
            -113 vlineto
            -1 8 8 0 7 hhcurveto
            127 94 78 126 113 -77 84 -121 -56 callsubr
            vlineto
            endchar
          </CharString>
          <CharString index="8">
            -23 -9 -23 -35 -27 -22 12 0 vhcurveto
            -110 vlineto
            -12 35 22 -2 32 hhcurveto
            79 66 41 101 hvcurveto
            214 return
          </CharString>
          <CharString index="9">
            30 callsubr
            -112 -117 hlineto
            221 -234 rlineto
            180 hlineto
            -237 239 rlineto
            121 7 127 72 161 vvcurveto
            115 -78 83 -124 -113 -70 -77 -87 -25 6 -26 12 -23 vhcurveto
            return
          </CharString>
          <CharString index="10">
            -34 callgsubr
            hvcurveto
            -97 callgsubr
            return
          </CharString>
          <CharString index="11">
            3 10 12 2 13 hhcurveto
            21 27 -3 -7 21 45 callgsubr
            -22 -33 3 -26 hhcurveto
            return
          </CharString>
          <CharString index="12">
            rlineto
            170 hlineto
            -187 251 rlineto
            -4 34 42 -4 49 hhcurveto
            return
          </CharString>
          <CharString index="13">
            -89 callgsubr
            -131 109 -87 133 return
          </CharString>
          <CharString index="14">
            -2 -6 -6 -1 -5 hhcurveto
            -24 -20 15 28 28 21 22 33 57 30 -41 -60 -107 -89 -51 -106 -97 -94 52 95 -30 hvcurveto
            9 1 9 3 8 3 rrcurveto
            61 21 23 53 66 vvcurveto
            return
          </CharString>
          <CharString index="15">
            193 -269 -95 callsubr
            return
          </CharString>
          <CharString index="16">
            27 25 20 33 48 vvcurveto
            101 -77 55 -116 -121 -69 -80 -91 -58 22 -43 35 -31 vhcurveto
            -64 -29 -61 -48 -94 vvcurveto
            -107 78 -68 115 60 55 25 31 22 vhcurveto
            -88 140 249 -138 vlineto
            -70 -11 -44 -30 -55 hhcurveto
            -50 -29 26 43 46 41 36 55 24 hvcurveto
            -8 34 38 -4 38 hhcurveto
            return
          </CharString>
          <CharString index="17">
            -72 callsubr
            6 5 0 -1 6 vhcurveto
            -376 47 callsubr
          </CharString>
          <CharString index="18">
            -112 100 -79 callsubr
            return
          </CharString>
          <CharString index="19">
            141 -78 callgsubr
            return
          </CharString>
          <CharString index="20">
            117 vlineto
            -1 -6 -6 0 -5 hhcurveto
            -73 -32 46 76 78 return
          </CharString>
          <CharString index="21">
            -36 -33 8 17 -32 hvcurveto
            -63 callsubr
            return
          </CharString>
          <CharString index="22">
            -125 140 289 -138 vlineto
            -70 -11 -44 -30 -55 hhcurveto
            -58 -40 36 65 63 45 40 71 hvcurveto
            return
          </CharString>
          <CharString index="23">
            -61 -86 callsubr
            return
          </CharString>
          <CharString index="24">
            -61 -39 -32 -50 -48 -26 25 61 vhcurveto
            return
          </CharString>
          <CharString index="25">
            vvcurveto
            37 -10 32 -11 17 vhcurveto
            return
          </CharString>
          <CharString index="26">
            -78 callgsubr
            vlineto
            endchar
          </CharString>
          <CharString index="27">
            rmoveto
            14 -35 -48 7 -47 hhcurveto
            -107 -90 -54 -102 -80 50 -40 51 -24 hvcurveto
            50 -23 52 -14 -32 vvcurveto
            -23 -21 -12 -34 -58 -55 25 23 -33 vhcurveto
            -130 vlineto
            -17 34 57 -14 63 hhcurveto
            115 82 54 103 73 -52 37 -50 26 hvcurveto
            -51 26 -51 14 32 vvcurveto
            21 18 16 36 47 46 -13 -18 31 vhcurveto
            return
          </CharString>
          <CharString index="28">
            -73 callgsubr
            112 return
          </CharString>
          <CharString index="29">
            vvcurveto
            -150 107 -91 180 51 68 15 20 39 vhcurveto
            127 vlineto
            -20 -30 -62 -21 -55 hhcurveto
            -90 -65 38 77 72 57 47 114 16 61 -3 -4 18 hvcurveto
            return
          </CharString>
          <CharString index="30">
            rmoveto
            161 87 116 148 144 -84 115 -164 -154 -95 -115 -153 -142 84 -113 165 hvcurveto
            -1 408 rmoveto
            73 24 -68 -81 -81 -27 -65 -68 -68 -30 67 81 81 29 66 67 hvcurveto
            return
          </CharString>
          <CharString index="31">
            rmoveto
            25 -54 -64 9 -56 hhcurveto
            -153 -88 -80 -114 -108 73 -50 71 -33 hvcurveto
            77 -36 60 -18 -49 vvcurveto
            -40 -35 -27 -46 -63 -65 18 48 -66 vhcurveto
            -155 vlineto
            -28 50 74 -14 70 hhcurveto
            148 97 83 121 123 -94 48 -84 37 hvcurveto
            -57 25 -43 24 37 vvcurveto
            32 26 25 54 57 61 -18 -29 50 vhcurveto
            return
          </CharString>
          <CharString index="32">
            30 callgsubr
            -360 66 callgsubr
            hlineto
            endchar
          </CharString>
          <CharString index="33">
            rmoveto
            156 177 rlineto
            -139 hlineto
            -79 -96 -79 96 rlineto
            -139 hlineto
            156 -177 rlineto
            return
          </CharString>
          <CharString index="34">
            94 -82 callsubr
            return
          </CharString>
          <CharString index="35">
            115 vlineto
            -71 callsubr
            return
          </CharString>
          <CharString index="36">
            -98 callgsubr
            21 -23 -62 hvcurveto
            19 callgsubr
            return
          </CharString>
          <CharString index="37">
            hhcurveto
            -68 callgsubr
          </CharString>
          <CharString index="38">
            19 -19 10 -26 -34 vvcurveto
            return
          </CharString>
          <CharString index="39">
            48 118 -40 hlineto
            -58 -31 18 43 47 33 24 64 hvcurveto
            3 112 return
          </CharString>
          <CharString index="40">
            118 callgsubr
            -40 -111 -16 vhcurveto
            return
          </CharString>
          <CharString index="41">
            vvcurveto
            -63 callgsubr
            return
          </CharString>
          <CharString index="42">
            40 callsubr
            -40 29 46 -14 vhcurveto
            68 23 64 55 90 -32 callgsubr
            -534 -182 rmoveto
            182 257 vlineto
            65 callgsubr
            return
          </CharString>
          <CharString index="43">
            hhcurveto
            -62 -45 40 64 23 5 19 10 16 hvcurveto
            return
          </CharString>
          <CharString index="44">
            -124 vlineto
            -15 41 49 -6 40 hhcurveto
            return
          </CharString>
          <CharString index="45">
            1 -9 -7 0 -7 hhcurveto
            return
          </CharString>
          <CharString index="46">
            -87 callsubr
            49 41 90 hvcurveto
            return
          </CharString>
          <CharString index="47">
            85 -25 -74 52 160 callsubr
            -36 -55 -58 -33 -43 -71 -62 -48 21 22 -37 hvcurveto
            -127 vlineto
            -18 34 49 -19 75 hhcurveto
            129 8 84 71 18 102 rrcurveto
            return
          </CharString>
          <CharString index="48">
            rmoveto
            -26 -13 -24 -17 -33 -44 -25 35 -67 hhcurveto
            -52 -44 -40 -42 -20 hvcurveto
            65 -64 rlineto
            32 27 13 11 35 36 24 -35 60 hhcurveto
            63 47 33 52 26 hvcurveto
            return
          </CharString>
          <CharString index="49">
            -111 -71 -68 -88 -84 62 -56 78 15 20 3 5 16 hvcurveto
            return
          </CharString>
          <CharString index="50">
            -95 callsubr
            150 -243 56 callgsubr
          </CharString>
          <CharString index="51">
            -45 -35 -16 -23 -26 hvcurveto
            109 return
          </CharString>
          <CharString index="52">
            24 callgsubr
            -75 hlineto
            85 -19 -70 70 -123 hhcurveto
            -58 callsubr
            94 vlineto
            -93 callsubr
            122 340 216 callgsubr
            208 -92 vlineto
            -60 callgsubr
            145 131 70 119 46 hvcurveto
            196 -208 -7 callgsubr
          </CharString>
          <CharString index="53">
            -78 callsubr
            endchar
          </CharString>
          <CharString index="54">
            -35 callsubr
            268 hmoveto
            109 callgsubr
            47 36 36 46 45 -36 36 -47 -48 -35 -36 -45 vhcurveto
            return
          </CharString>
          <CharString index="55">
            rmoveto
            182 -184 rlineto
            -15 -25 -27 -8 -31 hhcurveto
            -55 -44 28 64 hvcurveto
            return
          </CharString>
          <CharString index="56">
            -112 363 -276 hlineto
            -107 callsubr
            53 29 35 47 50 26 -46 -45 vhcurveto
            -12 vlineto
            -92 callsubr
            return
          </CharString>
          <CharString index="57">
            -42 callsubr
            62 57 -27 -28 54 hvcurveto
            return
          </CharString>
          <CharString index="58">
            vlineto
            -67 callsubr
            return
          </CharString>
          <CharString index="59">
            rmoveto
            -83 callsubr
            190 163 vlineto
            -484 hmoveto
            179 -68 hlineto
            6 -19 -20 3 -23 1 callgsubr
            1298 190 rmoveto
            112 -1530 -112 90 -184 vlineto
            149 callgsubr
            48 32 -31 -37 14 vhcurveto
            -104 17 69 -45 98 31 callgsubr
            295 -100 callgsubr
            100 vlineto
            endchar
          </CharString>
          <CharString index="60">
            221 callsubr
            -48 -28 -34 -44 -54 -29 22 47 -59 hvcurveto
            0 vlineto
            -172 142 rlineto
            -94 callsubr
            52 47 11 21 32 hvcurveto
            -32 37 60 -19 55 150 callgsubr
            return
          </CharString>
          <CharString index="61">
            1 -8 -9 1 -8 hhcurveto
            -75 -59 -28 -69 4 callgsubr
            return
          </CharString>
          <CharString index="62">
            rmoveto
            34 -55 -72 4 -48 hhcurveto
            -208 -140 -143 -205 -206 153 -137 194 48 73 4 34 55 hvcurveto
            151 vlineto
            -32 -45 -63 -16 -53 hhcurveto
            -114 -83 75 127 131 87 77 104 60 47 -9 -37 60 hvcurveto
            return
          </CharString>
          <CharString index="63">
            11 15 35 11 22 hhcurveto
            36 21 -17 -25 -40 -42 -18 -47 -82 -51 63 65 98 96 30 94 35 36 -4 -7 30 hvcurveto
            return
          </CharString>
          <CharString index="64">
            rmoveto
            -74 hlineto
            -85 -65 -20 -33 -45 hvcurveto
            50 -35 -60 35 -87 hhcurveto
            -58 callsubr
            94 vlineto
            -93 callsubr
            122 668 64 callgsubr
            -1258 125 callgsubr
            hlineto
            -60 callgsubr
            98 91 32 57 64 hvcurveto
            -66 35 66 -41 92 hhcurveto
            32 callgsubr
          </CharString>
          <CharString index="65">
            79 -48 -62 43 -90 hhcurveto
            -35 -33 -4 -5 -15 hvcurveto
            -105 vlineto
            -75 callgsubr
            return
          </CharString>
          <CharString index="66">
            rmoveto
            -146 -507 146 268 hlineto
            88 43 38 50 49 31 -30 -62 vhcurveto
            -302 146 329 vlineto
            122 -65 61 -101 -75 -53 -36 -55 -25 vhcurveto
            endchar
          </CharString>
          <CharString index="67">
            -208 195 callsubr
            205 return
          </CharString>
          <CharString index="68">
            hhcurveto
            -57 -36 27 42 64 62 22 103 hvcurveto
            214 callsubr
            114 vlineto
            -32 -21 -23 -35 -53 vvcurveto
            -98 79 -61 132 return
          </CharString>
          <CharString index="69">
            19 -43 vhcurveto
            71 callgsubr
            return
          </CharString>
          <CharString index="70">
            -112 95 -295 hlineto
            -166 120 -73 158 75 50 12 15 43 vhcurveto
            127 vlineto
            -19 -43 -52 -14 -62 hhcurveto
            -90 -58 39 78 hvcurveto
            296 187 -109 vlineto
            -52 -21 -17 -40 -14 -7 2 2 -14 vhcurveto
            -110 vlineto
            -7 28 13 0 26 hhcurveto
            91 77 51 119 hvcurveto
            121 75 vlineto
            endchar
          </CharString>
          <CharString index="71">
            rmoveto
            -158 201 158 hlineto
            -497 hmoveto
            200 -88 hlineto
            11 -24 -28 7 -32 hhcurveto
            -50 -38 -16 -23 -28 hvcurveto
            735 221 rmoveto
            -1240 -112 363 -276 hlineto
            -107 callsubr
            65 3 50 28 45 hhcurveto
            40 29 -12 -17 24 hvcurveto
            154 callsubr
            -246 204 callgsubr
            hlineto
            endchar
          </CharString>
          <CharString index="72">
            rmoveto
            109 callgsubr
            -51 callgsubr
            vhcurveto
            return
          </CharString>
          <CharString index="73">
            rmoveto
            -259 -131 109 -127 hlineto
            -8 -26 -29 -5 -30 hhcurveto
            -128 -77 81 126 125 80 82 127 50 67 -9 -46 80 hvcurveto
            154 vlineto
            33 -65 -70 9 -62 hhcurveto
            -212 -161 -133 -215 -216 151 -130 213 118 80 38 32 44 hvcurveto
            endchar
          </CharString>
          <CharString index="74">
            -31 vvcurveto
            -58 53 -53 53 -28 vhcurveto
            80 49 rlineto
            -26 25 -17 21 24 vvcurveto
            13 return
          </CharString>
          <CharString index="75">
            rmoveto
            33 -30 -50 23 -63 hhcurveto
            -56 callsubr
            517 -126 vlineto
            -822 126 rmoveto
            163 -183 hlineto
            -83 callsubr
            1065 302 rmoveto
            -1297 -62 callgsubr
            284 vlineto
            56 34 37 46 43 28 -26 -33 7 vhcurveto
            100 38 -35 -46 -40 -32 -22 -62 -36 -33 9 16 -32 100 callsubr
            -13 37 45 -8 52 hhcurveto
            101 93 47 112 43 -14 36 -39 25 hvcurveto
            141 -318 93 callgsubr
          </CharString>
          <CharString index="76">
            362 rmoveto
            -90 -46 -41 -83 -1 vhcurveto
            -65 -31 25 50 -18 hvcurveto
            68 23 66 51 70 callgsubr
            -555 hmoveto
            278 179 callgsubr
            -36 -19 vhcurveto
            43 -30 -45 34 -74 hhcurveto
            -45 -35 -15 -22 -26 hvcurveto
            796 225 rmoveto
            return
          </CharString>
          <CharString index="77">
            rmoveto
            -63 -51 37 64 70 52 29 59 hvcurveto
            67 -1 44 -32 -67 vvcurveto
            -61 -41 -39 -67 vhcurveto
            314 390 rmoveto
            112 -635 -112 271 -82 vlineto
            -108 -14 -98 -65 -127 vvcurveto
            return
          </CharString>
          <CharString index="78">
            232 122 -232 153 260 123 -415 -674 419 123 return
          </CharString>
          <CharString index="79">
            rmoveto
            -60 -25 -35 -29 -60 hhcurveto
            -11 -11 1 3 -12 hvcurveto
            -116 vlineto
            -4 20 11 -1 25 hhcurveto
            106 81 68 145 54 hvcurveto
            183 492 rlineto
            -150 hlineto
            -50 -158 rlineto
            -43 -137 -11 -40 0 vvcurveto
            0 -6 40 -48 137 vhcurveto
            -55 158 rlineto
            -159 hlineto
            endchar
          </CharString>
          <CharString index="80">
            194 callsubr
            rcurveline
            96 callgsubr
            559 100 vlineto
            endchar
          </CharString>
          <CharString index="81">
            -22 10 -27 19 -43 vhcurveto
            -20 callsubr
            return
          </CharString>
          <CharString index="82">
            142 -10 callsubr
          </CharString>
          <CharString index="83">
            -112 90 -184 return
          </CharString>
          <CharString index="84">
            hvcurveto
            0 vlineto
            -119 41 92 -66 105 -96 callgsubr
          </CharString>
          <CharString index="85">
            31 callgsubr
            559 100 vlineto
            endchar
          </CharString>
          <CharString index="86">
            rmoveto
            -145 hlineto
            -1 -507 rlineto
            146 253 hlineto
            77 42 49 63 17 18 -2 -9 20 vhcurveto
            138 vlineto
            4 -14 -11 0 -13 hhcurveto
            -59 -45 -40 -57 -18 hvcurveto
            endchar
          </CharString>
          <CharString index="87">
            36 -80 -48 callgsubr
            return
          </CharString>
          <CharString index="88">
            rmoveto
            112 -839 -112 333 -10 callgsubr
          </CharString>
          <CharString index="89">
            -46 36 -36 46 46 36 36 46 46 -36 36 -46 return
          </CharString>
          <CharString index="90">
            rmoveto
            120 -176 rlineto
            168 hlineto
            -145 176 rlineto
            return
          </CharString>
          <CharString index="91">
            -59 -28 -69 4 callgsubr
            -117 -68 -78 -121 -6 hvcurveto
            -9 -13 -9 -12 -11 -12 -171 142 rcurveline
            -94 callsubr
            78 65 27 45 48 hvcurveto
            -91 42 90 -54 124 hhcurveto
            -97 callsubr
            65 vlineto
            return
          </CharString>
          <CharString index="92">
            -105 85 -85 105 105 85 85 105 105 -85 85 -105 -105 -85 -85 -105 vhcurveto
            117 hmoveto
            40 33 33 40 40 33 -33 -40 -40 -33 -33 -40 -40 -33 33 40 vhcurveto
            return
          </CharString>
          <CharString index="93">
            -51 callgsubr
            109 callgsubr
            hvcurveto
            return
          </CharString>
          <CharString index="94">
            733 rmoveto
            123 110 172 callsubr
            -38 -37 -59 -62 -39 37 52 vhcurveto
            -136 hlineto
            -126 98 -63 139 vhcurveto
            -71 244 rmoveto
            -39 31 -31 39 39 31 31 39 39 -31 31 -39 -39 -31 -31 -39 vhcurveto
            return
          </CharString>
          <CharString index="95">
            16 callsubr
            -97 -233 -61 -155 vhcurveto
            -18 hlineto
            -65 callgsubr
            109 112 -462 109 callsubr
            -115 vlineto
            -95 callgsubr
            26 hlineto
            43 45 4 8 41 hvcurveto
            return
          </CharString>
          <CharString index="96">
            rmoveto
            -240 -339 222 callsubr
            21 44 41 36 17 29 callsubr
            return
          </CharString>
          <CharString index="97">
            559 75 callsubr
          </CharString>
          <CharString index="98">
            vvcurveto
            -202 196 -82 175 22 22 1 3 21 vhcurveto
            104 vlineto
            -3 -16 -23 0 -18 hhcurveto
            -160 -78 86 85 return
          </CharString>
          <CharString index="99">
            rmoveto
            -101 callsubr
            -582 236 rmoveto
            226 callgsubr
            33 callsubr
            152 252 112 hlineto
            endchar
          </CharString>
          <CharString index="100">
            rmoveto
            76 hlineto
            59 38 -34 -58 -64 -30 -34 -70 hvcurveto
            -73 hlineto
            193 -359 rmoveto
            184 hlineto
            -171 259 rlineto
            72 32 51 64 103 vvcurveto
            127 -98 89 -152 vhcurveto
            -233 -674 154 234 47 hlineto
            endchar
          </CharString>
          <CharString index="101">
            -134 101 -72 116 55 48 17 32 36 return
          </CharString>
          <CharString index="102">
            rmoveto
            124 112 -645 -112 379 -276 hlineto
            -56 -34 -37 -46 -56 -26 43 44 49 29 40 57 5 5 0 -1 6 vhcurveto
            113 vlineto
            -62 callsubr
            -127 -94 -78 -126 224 callsubr
            hvcurveto
            -118 -135 rlineto
            167 hlineto
            131 163 rlineto
            -118 119 callsubr
          </CharString>
          <CharString index="103">
            -104 callsubr
            -403 -9 callgsubr
            -112 126 -49 callsubr
            return
          </CharString>
          <CharString index="104">
            hhcurveto
            37 20 -16 -18 -53 -85 -22 -66 -16 hvcurveto
            -173 21 98 -77 128 hhcurveto
            67 57 26 38 23 hvcurveto
            -100 141 559 119 vlineto
            endchar
          </CharString>
          <CharString index="105">
            -50 271 106 rmoveto
            -67 -23 38 37 41 26 43 64 61 32 -36 -46 -38 -27 -39 -66 hvcurveto
            -1 444 rmoveto
            70 13 -39 -38 -54 -38 -26 -42 -44 -37 27 53 38 20 39 58 hvcurveto
            147 -217 rmoveto
            50 29 32 48 61 vvcurveto
            136 -101 59 -128 -126 -99 -69 -126 -63 33 -48 52 -30 vhcurveto
            -57 -28 -38 -50 -75 vvcurveto
            -115 91 -72 144 142 98 77 115 79 -37 46 -56 26 vhcurveto
            endchar
          </CharString>
          <CharString index="106">
            140 -81 callsubr
          </CharString>
          <CharString index="107">
            rmoveto
            198 -256 rlineto
            170 hlineto
            -205 262 rlineto
            3 8 1 1 4 hvcurveto
            85 16 45 66 88 vvcurveto
            125 104 112 -477 -112 233 -117 vlineto
            -50 -29 -26 -63 vhcurveto
            -76 hlineto
            endchar
          </CharString>
          <CharString index="108">
            -83 -10 hlineto
            7 callsubr
            return
          </CharString>
          <CharString index="109">
            65 callsubr
            90 -66 121 return
          </CharString>
          <CharString index="110">
            -140 80 -101 144 -37 callgsubr
            return
          </CharString>
          <CharString index="111">
            vlineto
            -22 callgsubr
          </CharString>
          <CharString index="112">
            -35 -40 -31 -21 -43 -52 -44 41 43 -15 hvcurveto
            -130 -242 140 85 hlineto
            -20 33 39 -12 48 hhcurveto
            98 96 62 104 99 -65 return
          </CharString>
          <CharString index="113">
            rmoveto
            163 -173 211 callsubr
            180 rmoveto
            133 112 -675 130 callgsubr
            298 130 callsubr
          </CharString>
          <CharString index="114">
            -171 -5 -88 -103 -118 -78 callsubr
            return
          </CharString>
          <CharString index="115">
            rmoveto
            26 -5 29 -12 19 vhcurveto
            -113 hlineto
            10 -13 16 -23 -26 vvcurveto
            -39 -26 -25 -49 vhcurveto
            -91 vlineto
            124 55 65 78 hvcurveto
            endchar
          </CharString>
          <CharString index="116">
            128 callgsubr
            rlineto
            1 4 4 1 4 hhcurveto
            21 5 19 7 16 10 rrcurveto
            26 55 62 30 76 hhcurveto
            45 41 -17 -20 32 hvcurveto
            -142 -45 rlineto
            -58 -19 -21 -37 -39 vvcurveto
            -50 37 -52 39 -34 vhcurveto
            89 31 rlineto
            -14 21 -13 23 21 vvcurveto
            16 8 19 19 10 vhcurveto
            108 49 rlineto
            -230 213 callgsubr
          </CharString>
          <CharString index="117">
            rmoveto
            79 -96 204 callsubr
            -156 177 rlineto
            -124 hlineto
            -156 -177 204 callsubr
            return
          </CharString>
          <CharString index="118">
            15 hlineto
            -30 -33 -17 -45 -56 vvcurveto
            -144 99 -82 125 146 callgsubr
            121 vlineto
            -1 -6 -6 0 -5 hhcurveto
            return
          </CharString>
          <CharString index="119">
            50 callgsubr
            -99 vlineto
            -44 callsubr
            endchar
          </CharString>
          <CharString index="120">
            hhcurveto
            71 69 23 37 28 hvcurveto
            159 callgsubr
            90 112 vlineto
            endchar
          </CharString>
          <CharString index="121">
            rmoveto
            108 hlineto
            131 177 rlineto
            -145 hlineto
            -281 -177 rmoveto
            108 214 callgsubr
            -133 hlineto
            return
          </CharString>
          <CharString index="122">
            vhcurveto
            -68 callsubr
            return
          </CharString>
          <CharString index="123">
            193 callgsubr
            38 callgsubr
            return
          </CharString>
          <CharString index="124">
            rmoveto
            -483 -124 296 hlineto
            -302 -437 rlineto
            -113 501 124 -316 vlineto
            304 441 rlineto
            return
          </CharString>
          <CharString index="125">
            rmoveto
            -146 hlineto
            -86 -177 rlineto
            121 hlineto
            return
          </CharString>
          <CharString index="126">
            -49 callsubr
            -173 21 108 -97 128 -96 callgsubr
          </CharString>
          <CharString index="127">
            33 418 -1 rmoveto
            -17 -3 -15 -6 -14 vhcurveto
            -128 109 41 1 71 16 25 36 rlinecurve
            -42 -201 rmoveto
            -12 -18 -24 -7 -28 hhcurveto
            -59 -40 30 55 24 9 21 14 15 hvcurveto
            -260 631 rmoveto
            -112 445 -64 -113 vlineto
            -168 -95 -93 -124 -75 36 -64 60 -39 hvcurveto
            -44 -27 -27 -46 -64 vvcurveto
            return
          </CharString>
          <CharString index="128">
            -49 40 -40 49 49 40 40 49 49 -40 40 -49 -49 -40 -40 -49 vhcurveto
            return
          </CharString>
          <CharString index="129">
            rmoveto
            -378 109 callsubr
            hlineto
            -222 -290 rlineto
            -105 399 113 -234 vlineto
            222 293 rlineto
            return
          </CharString>
          <CharString index="130">
            205 rmoveto
            315 -115 hlineto
            -32 -14 -26 -32 -12 vhcurveto
            65 -25 -55 45 -83 hhcurveto
            -45 -35 -15 -22 -26 hvcurveto
            return
          </CharString>
          <CharString index="131">
            -52 -28 38 54 55 28 39 50 31 33 -17 -25 27 hvcurveto
            -46 -13 -16 -98 -60 hhcurveto
            return
          </CharString>
          <CharString index="132">
            -42 callgsubr
            -65 28 -56 60 -49 vhcurveto
            -182 -107 110 -85 195 120 return
          </CharString>
          <CharString index="133">
            -48 callgsubr
            hlineto
            endchar
          </CharString>
          <CharString index="134">
            rlineto
            170 hlineto
            84 129 80 -129 rlineto
            170 hlineto
            return
          </CharString>
          <CharString index="135">
            rmoveto
            -112 389 28 callgsubr
            -98 54 -74 82 -31 hvcurveto
            99 callgsubr
            208 83 callsubr
            hlineto
            endchar
          </CharString>
          <CharString index="136">
            59 15 callsubr
            return
          </CharString>
          <CharString index="137">
            -11 21 -6 16 25 vvcurveto
            32 16 27 33 37 24 -24 -56 -82 -59 -47 -102 vhcurveto
            return
          </CharString>
          <CharString index="138">
            362 -55 callgsubr
            return
          </CharString>
          <CharString index="139">
            292 -55 callgsubr
            -57 -35 23 45 -16 vhcurveto
            70 24 56 54 71 vvcurveto
            88 -57 52 -138 return
          </CharString>
          <CharString index="140">
            -43 -68 vlineto
            41 callgsubr
            return
          </CharString>
          <CharString index="141">
            -105 162 -44 68 -55 23 -78 1 rlinecurve
            82 callsubr
            return
          </CharString>
          <CharString index="142">
            54 -136 90 -88 132 -25 -192 -156 rcurveline
            209 hlineto
            122 100 89 64 61 56 rrcurveto
            -111 -84 callgsubr
          </CharString>
          <CharString index="143">
            45 35 15 23 26 hvcurveto
            -85 callgsubr
          </CharString>
          <CharString index="144">
            hlineto
            -39 11 -50 50 -36 vhcurveto
            -54 -32 -38 -50 -73 vvcurveto
            -134 134 -70 149 162 121 79 123 72 -42 51 -59 33 vhcurveto
            return
          </CharString>
          <CharString index="145">
            -31 vvcurveto
            -58 53 -53 53 -28 vhcurveto
            80 49 rlineto
            -21 21 -21 23 25 vvcurveto
            13 5 15 13 11 vhcurveto
            return
          </CharString>
          <CharString index="146">
            -39 -25 6 26 28 26 6 37 hvcurveto
            190 84 callgsubr
            154 return
          </CharString>
          <CharString index="147">
            31 callsubr
            -64 return
          </CharString>
          <CharString index="148">
            101 112 -606 -112 363 -276 vlineto
            -107 callgsubr
            return
          </CharString>
          <CharString index="149">
            hlineto
            -109 -91 -46 -111 -129 121 -18 94 40 47 -3 -47 -33 -29 -25 -36 -55 -43 33 46 -17 hvcurveto
            -130 -252 140 96 hlineto
            -18 34 41 -10 46 hhcurveto
            113 75 78 89 110 -65 55 -161 -49 -23 10 26 28 26 9 25 hvcurveto
            return
          </CharString>
          <CharString index="150">
            532 rmoveto
            225 124 -367 -390 hlineto
            13 28 63 20 57 hhcurveto
            75 35 -31 -47 -58 -41 -38 -93 -57 -58 19 23 -37 hvcurveto
            -138 vlineto
            -26 50 63 -9 63 hhcurveto
            170 89 93 132 124 -76 81 -145 -14 -15 -1 -2 -15 hvcurveto
            endchar
          </CharString>
          <CharString index="151">
            53 callsubr
            -85 rmoveto
            return
          </CharString>
          <CharString index="152">
            -112 355 -43 -66 hlineto
            -109 -91 -45 136 callsubr
            -45 -41 30 47 -24 hvcurveto
            -1 7 rlineto
            -130 -242 69 callgsubr
            21 -2 20 -6 17 hvcurveto
            return
          </CharString>
          <CharString index="153">
            vvcurveto
            -22 -3 -27 -5 -16 vhcurveto
            126 hlineto
            6 21 3 33 26 vvcurveto
            139 -104 90 -176 return
          </CharString>
          <CharString index="154">
            143 -81 callsubr
          </CharString>
          <CharString index="155">
            171 292 57 callsubr
            return
          </CharString>
          <CharString index="156">
            -19 33 41 -12 45 hhcurveto
            113 75 68 101 return
          </CharString>
          <CharString index="157">
            hlineto
            -69 callsubr
            return
          </CharString>
          <CharString index="158">
            -268 vlineto
            58 callsubr
          </CharString>
          <CharString index="159">
            rmoveto
            -145 176 rlineto
            -143 hlineto
            120 -176 rlineto
            return
          </CharString>
          <CharString index="160">
            -104 callsubr
            -479 return
          </CharString>
          <CharString index="161">
            -24 callsubr
            hlineto
            -141 68 -64 122 return
          </CharString>
          <CharString index="162">
            rmoveto
            58 callgsubr
          </CharString>
          <CharString index="163">
            -28 284 -8 -77 callsubr
            return
          </CharString>
          <CharString index="164">
            566 -42 callgsubr
            return
          </CharString>
          <CharString index="165">
            110 callsubr
            -134 101 -72 116 -69 callgsubr
          </CharString>
          <CharString index="166">
            -24 -26 -2 -5 -26 hvcurveto
            -118 vlineto
            6 20 23 4 21 hhcurveto
            32 return
          </CharString>
          <CharString index="167">
            -320 vlineto
            -111 -88 -29 -65 -57 -50 30 48 -20 vhcurveto
            16 callsubr
            return
          </CharString>
          <CharString index="168">
            -45 callgsubr
            126 return
          </CharString>
          <CharString index="169">
            rmoveto
            -146 hlineto
            111 -177 rlineto
            121 hlineto
            endchar
          </CharString>
          <CharString index="170">
            vvcurveto
            18 14 9 23 vhcurveto
            return
          </CharString>
          <CharString index="171">
            57 -35 -56 27 -60 hhcurveto
            -123 -96 -93 -165 -136 80 -125 138 59 57 25 60 36 hvcurveto
            -79 146 return
          </CharString>
          <CharString index="172">
            -24 callsubr
            hlineto
            -143 return
          </CharString>
          <CharString index="173">
            89 -24 -77 48 160 callsubr
            -26 -55 -58 -33 -33 -71 -62 -48 21 22 -37 hvcurveto
            -127 vlineto
            -18 29 65 -19 64 hhcurveto
            115 89 70 91 24 hvcurveto
            return
          </CharString>
          <CharString index="174">
            -87 callsubr
            39 41 83 hvcurveto
            13 hlineto
            60 38 -32 -54 hvcurveto
            -5 vlineto
            return
          </CharString>
          <CharString index="175">
            -86 callsubr
            109 94 64 return
          </CharString>
          <CharString index="176">
            -39 -46 -80 -97 133 callsubr
            vhcurveto
            115 return
          </CharString>
          <CharString index="177">
            -112 110 -189 return
          </CharString>
          <CharString index="178">
            -112 251 hlineto
            18 -18 13 -24 -29 vvcurveto
            -69 -47 -12 -63 vhcurveto
            -31 -118 41 hlineto
            105 30 -35 -42 -56 -33 -28 -85 -38 -52 8 26 -49 198 callgsubr
            -15 43 59 -7 44 hhcurveto
            158 95 67 122 return
          </CharString>
          <CharString index="179">
            vvcurveto
            -113 77 -84 121 45 35 15 23 26 vhcurveto
            -116 78 callsubr
            31 46 vhcurveto
            137 -77 -265 268 hhcurveto
            64 60 29 35 212 callsubr
          </CharString>
          <CharString index="180">
            hlineto
            -102 callsubr
            141 -348 93 callgsubr
          </CharString>
          <CharString index="181">
            rmoveto
            -42 34 -34 42 42 34 34 42 42 -34 34 -42 -42 -34 -34 -42 vhcurveto
            return
          </CharString>
          <CharString index="182">
            100 112 vlineto
            endchar
          </CharString>
          <CharString index="183">
            hhcurveto
            -61 -65 26 52 -21 89 callgsubr
            return
          </CharString>
          <CharString index="184">
            559 rmoveto
            288 -148 hlineto
            30 -33 -55 27 -82 hhcurveto
            -45 -40 -10 -12 -33 hvcurveto
            529 225 rmoveto
            return
          </CharString>
          <CharString index="185">
            142 284 vlineto
            56 34 return
          </CharString>
          <CharString index="186">
            hhcurveto
            -45 -35 -16 -23 -26 hvcurveto
            return
          </CharString>
          <CharString index="187">
            vvcurveto
            -116 123 -57 131 139 callgsubr
            108 callgsubr
          </CharString>
          <CharString index="188">
            95 -49 50 -104 -30 -37 -10 -10 -19 vhcurveto
            -109 vlineto
            6 12 20 8 22 hhcurveto
            32 14 -18 -29 hvcurveto
            -93 61 callsubr
            return
          </CharString>
          <CharString index="189">
            59 callsubr
            24 -11 -30 20 hvcurveto
            67 -98 rlineto
            return
          </CharString>
          <CharString index="190">
            176 112 112 return
          </CharString>
          <CharString index="191">
            vvcurveto
            91 callgsubr
            vlineto
            endchar
          </CharString>
          <CharString index="192">
            -12 21 -11 27 32 197 callgsubr
            19 -30 -31 8 -44 hhcurveto
            -83 -60 -57 -77 -15 hvcurveto
            71 -47 -60 38 -85 hhcurveto
            -35 -33 -4 -5 -15 hvcurveto
            return
          </CharString>
          <CharString index="193">
            -291 75 hmoveto
            154 674 -154 hlineto
            return
          </CharString>
          <CharString index="194">
            -595 -427 800 116 callgsubr
            72 -105 rlineto
            151 hlineto
            -110 169 201 callgsubr
            return
          </CharString>
          <CharString index="195">
            132 -101 57 -115 -114 -98 -58 -132 vhcurveto
            -30 142 25 vlineto
            183 callgsubr
            141 559 100 112 return
          </CharString>
          <CharString index="196">
            hlineto
            -146 3 107 -88 177 hhcurveto
            51 68 15 20 39 hvcurveto
            127 vlineto
            -20 -30 -62 -21 -55 hhcurveto
            -90 -65 38 77 72 57 47 114 16 61 -3 -4 18 hvcurveto
            endchar
          </CharString>
          <CharString index="197">
            -67 callgsubr
            509 hmoveto
            112 return
          </CharString>
          <CharString index="198">
            295 90 -162 hlineto
            84 54 64 69 87 vvcurveto
            87 -64 50 -90 -44 -43 -14 -19 -30 vhcurveto
            -105 vlineto
            22 31 39 15 29 hhcurveto
            41 20 -20 -31 -64 -86 -83 -84 -61 hvcurveto
            return
          </CharString>
          <CharString index="199">
            138 134 callsubr
          </CharString>
          <CharString index="200">
            -2 -6 -6 -1 -5 hhcurveto
            -30 -14 17 22 27 26 17 34 51 30 -41 -60 -107 -105 -31 -94 -97 -86 42 95 -30 hvcurveto
            9 2 rlineto
            71 17 26 46 80 vvcurveto
            114 return
          </CharString>
          <CharString index="201">
            rmoveto
            -152 hlineto
            146 -162 -146 -162 rlineto
            152 hlineto
            152 162 rlineto
            return
          </CharString>
          <CharString index="202">
            48 118 -40 hlineto
            230 callsubr
            return
          </CharString>
          <CharString index="203">
            17 63 callsubr
            return
          </CharString>
          <CharString index="204">
            rmoveto
            -75 61 -61 75 75 61 61 75 75 -61 61 -75 -75 -61 -61 -75 vhcurveto
            83 3 rmoveto
            29 21 27 32 32 21 -27 -29 -29 -21 -27 -32 -32 -21 27 29 vhcurveto
            return
          </CharString>
          <CharString index="205">
            -320 vlineto
            -111 -88 -29 -65 return
          </CharString>
          <CharString index="206">
            -112 114 105 callgsubr
            -83 61 -58 82 -18 vhcurveto
            -140 -123 rlineto
            187 hlineto
            return
          </CharString>
          <CharString index="207">
            hvcurveto
            -124 vlineto
            return
          </CharString>
          <CharString index="208">
            -276 hlineto
            112 callsubr
            return
          </CharString>
          <CharString index="209">
            69 20 67 53 94 40 callgsubr
            return
          </CharString>
          <CharString index="210">
            -268 hlineto
            -71 callgsubr
            return
          </CharString>
          <CharString index="211">
            196 634 -196 hlineto
            236 -185 rmoveto
            196 185 -196 hlineto
            return
          </CharString>
          <CharString index="212">
            hhcurveto
            -49 -39 -16 -25 -29 hvcurveto
            return
          </CharString>
          <CharString index="213">
            159 callsubr
            95 107 -95 19 hlineto
            63 29 14 49 21 23 -4 -6 24 vhcurveto
            -593 146 657 vlineto
            37 -78 -70 26 -95 hhcurveto
            return
          </CharString>
          <CharString index="214">
            49 callgsubr
            vlineto
            endchar
          </CharString>
          <CharString index="215">
            -559 213 callgsubr
          </CharString>
          <CharString index="216">
            -112 213 return
          </CharString>
          <CharString index="217">
            -103 callsubr
            -136 -87 -93 -120 return
          </CharString>
          <CharString index="218">
            rmoveto
            -71 callgsubr
            return
          </CharString>
          <CharString index="219">
            -56 -34 -37 -46 -56 -26 43 44 49 29 40 57 5 5 0 -1 6 vhcurveto
            113 vlineto
            -62 callsubr
            -19 -18 -2 -3 -17 hvcurveto
            return
          </CharString>
          <CharString index="220">
            127 vlineto
            -22 -37 -88 -25 -62 hhcurveto
            -95 -50 28 54 58 70 23 88 hvcurveto
            return
          </CharString>
          <CharString index="221">
            136 callgsubr
            47 -15 43 return
          </CharString>
          <CharString index="222">
            rmoveto
            -51 40 -40 51 51 40 40 51 51 -40 40 -51 -51 -40 -40 -51 vhcurveto
            return
          </CharString>
          <CharString index="223">
            221 callgsubr
            -18 4 -15 7 -14 vhcurveto
            return
          </CharString>
          <CharString index="224">
            151 callgsubr
            98 112 return
          </CharString>
          <CharString index="225">
            -120 112 -31 97 return
          </CharString>
          <CharString index="226">
            -13 callgsubr
            43 26 -25 -32 9 vhcurveto
            101 103 rlineto
            41 -34 -53 25 -66 79 callsubr
            endchar
          </CharString>
          <CharString index="227">
            71 -108 274 168 rlineto
            -195 -84 callgsubr
          </CharString>
          <CharString index="228">
            380 rmoveto
            -172 179 rlineto
            172 hlineto
            -206 -76 rmoveto
            175 -177 rlineto
            -18 -22 -28 -11 -26 hhcurveto
            -55 -44 28 64 hvcurveto
            return
          </CharString>
          <CharString index="229">
            126 153 -44 hlineto
            -365 -313 rlineto
            193 hlineto
            172 151 rlineto
            -111 138 -10 callsubr
          </CharString>
          <CharString index="230">
            119 callgsubr
            -19 -26 3 -25 hhcurveto
            -136 -87 -93 -120 -134 return
          </CharString>
          <CharString index="231">
            55 40 38 51 22 17 -2 -7 20 hvcurveto
            return
          </CharString>
          <CharString index="232">
            131 callsubr
            112 return
          </CharString>
          <CharString index="233">
            -208 vlineto
            135 callgsubr
          </CharString>
          <CharString index="234">
            6 20 23 4 21 hhcurveto
            32 24 -11 -30 20 hvcurveto
            return
          </CharString>
          <CharString index="235">
            95 1 59 47 78 hhcurveto
            40 43 -11 -22 35 hvcurveto
            return
          </CharString>
          <CharString index="236">
            -2 callgsubr
            -821 -112 578 62 callgsubr
            return
          </CharString>
          <CharString index="237">
            vlineto
            61 39 32 50 53 34 -38 -42 11 vhcurveto
            110 72 rlineto
            75 -35 -56 45 -89 105 callsubr
            endchar
          </CharString>
          <CharString index="238">
            -29 -8 -16 -17 -30 -29 callgsubr
            return
          </CharString>
          <CharString index="239">
            130 vlineto
            16 -33 -47 8 -41 hhcurveto
            -84 -63 -56 -73 -21 hvcurveto
            -35 34 -38 13 -57 1 rrcurveto
            -24 -26 -2 -5 -26 hvcurveto
            return
          </CharString>
          <CharString index="240">
            -57 -36 24 45 64 62 22 103 return
          </CharString>
          <CharString index="241">
            -78 callgsubr
            112 hlineto
            endchar
          </CharString>
          <CharString index="242">
            67 57 26 38 23 hvcurveto
            -79 callgsubr
            112 return
          </CharString>
          <CharString index="243">
            -111 -116 100 -27 107 98 callgsubr
            return
          </CharString>
          <CharString index="244">
            -66 -107 66 159 callsubr
            return
          </CharString>
          <CharString index="245">
            66 callgsubr
            112 return
          </CharString>
          <CharString index="246">
            559 rmoveto
            112 return
          </CharString>
          <CharString index="247">
            -53 -85 -9 -66 -16 hvcurveto
            -173 21 98 -65 128 hhcurveto
            63 68 30 34 16 hvcurveto
            -100 -88 callsubr
            return
          </CharString>
          <CharString index="248">
            -179 264 176 243 rlineto
            -168 hlineto
            -160 -227 rlineto
            410 -146 -690 146 return
          </CharString>
          <CharString index="249">
            -2 callgsubr
            -240 -329 222 callsubr
            return
          </CharString>
          <CharString index="250">
            483 117 callsubr
            -611 -112 373 -48 -144 131 callgsubr
            return
          </CharString>
          <CharString index="251">
            183 callgsubr
            138 callsubr
            -102 return
          </CharString>
          <CharString index="252">
            63 callsubr
            endchar
          </CharString>
          <CharString index="253">
            -52 -40 151 callsubr
            return
          </CharString>
          <CharString index="254">
            68 callgsubr
            -250 -115 return
          </CharString>
          <CharString index="255">
            -112 118 hlineto
            3 callgsubr
            -91 -5 -52 -46 -75 vvcurveto
            return
          </CharString>
          <CharString index="256">
            rmoveto
            221 337 rlineto
            -183 hlineto
            -218 -339 226 -335 rlineto
            193 hlineto
            endchar
          </CharString>
          <CharString index="257">
            -24 callsubr
            vlineto
            -143 return
          </CharString>
          <CharString index="258">
            21 44 41 36 return
          </CharString>
          <CharString index="259">
            -35 callgsubr
            endchar
          </CharString>
          <CharString index="260">
            98 callsubr
            -57 -50 30 179 callsubr
            return
          </CharString>
          <CharString index="261">
            -23 -9 -13 -16 -27 181 callsubr
            return
          </CharString>
          <CharString index="262">
            309 -2 callgsubr
            -339 -112 339 hlineto
            return
          </CharString>
          <CharString index="263">
            -128 109 -90 121 64 52 22 36 39 return
          </CharString>
          <CharString index="264">
            40 callsubr
            -39 return
          </CharString>
          <CharString index="265">
            rmoveto
            99 -356 -99 vlineto
            return
          </CharString>
          <CharString index="266">
            -400 145 400 return
          </CharString>
          <CharString index="267">
            -111 hhcurveto
            -38 -43 -8 -9 -22 hvcurveto
            -119 vlineto
            10 23 36 9 31 hhcurveto
            57 35 return
          </CharString>
          <CharString index="268">
            -138 vlineto
            -70 -11 -44 -30 -55 hhcurveto
            -58 -40 36 65 63 45 40 71 hvcurveto
            endchar
          </CharString>
          <CharString index="269">
            23 37 67 27 62 hhcurveto
            64 43 -26 -38 30 hvcurveto
            -282 -170 71 -108 return
          </CharString>
          <CharString index="270" raw="1">
            f73b06f7 17f73705 fb0a7e1d 0b
          </CharString>
          <CharString index="271">
            -112 70 -178 195 callsubr
            return
          </CharString>
          <CharString index="272">
            112 -34 hlineto
            -46 -20 35 48 hvcurveto
            85 -135 -64 vlineto
            -85 -49 rlineto
            endchar
          </CharString>
          <CharString index="273">
            -70 -46 2 35 28 23 11 28 hvcurveto
            184 callsubr
          </CharString>
          <CharString index="274">
            -319 65 hmoveto
            146 707 -146 hlineto
            return
          </CharString>
          <CharString index="275">
            rmoveto
            -356 -99 356 hlineto
            return
          </CharString>
          <CharString index="276">
            140 44 87 return
          </CharString>
          <CharString index="277">
            138 callgsubr
            -38 -20 vhcurveto
            39 -32 -56 30 -75 hhcurveto
            return
          </CharString>
          <CharString index="278">
            -112 176 -49 callsubr
            return
          </CharString>
          <CharString index="279">
            69 120 hvcurveto
            -136 hlineto
            -52 return
          </CharString>
          <CharString index="280">
            -429 -711 rlineto
            109 hlineto
            return
          </CharString>
          <CharString index="281">
            -30 -2 callgsubr
            -112 return
          </CharString>
          <CharString index="282">
            -44 68 -55 23 -78 1 return
          </CharString>
          <CharString index="283">
            40 callgsubr
            -197 hlineto
            -90 -49 -42 -74 vhcurveto
            return
          </CharString>
          <CharString index="284">
            hlineto
            -189 -88 -107 -136 -134 92 -107 143 hvcurveto
            123 vlineto
            return
          </CharString>
          <CharString index="285" raw="1">
            1ebbf70a 6306516c 9db60b 
          </CharString>
          <CharString index="286">
            48 -20 vhcurveto
            193 callgsubr
            return
          </CharString>
          <CharString index="287">
            -92 -99 -44 -110 return
          </CharString>
          <CharString index="288">
            vvcurveto
            187 callsubr
            return
          </CharString>
          <CharString index="289">
            130 vlineto
            19 -39 -38 6 -45 hhcurveto
            -102 -67 -68 -100 hvcurveto
            -87 vlineto
            return
          </CharString>
          <CharString index="290">
            rmoveto
            116 62 rlineto
            -321 103 433 -85 vlineto
            -134 -76 rlineto
            return
          </CharString>
          <CharString index="291">
            220 callsubr
            hlineto
            endchar
          </CharString>
          <CharString index="292">
            131 112 return
          </CharString>
          <CharString index="293">
            22 29 38 13 30 hhcurveto
            31 21 -13 -28 -29 -32 -12 -45 hvcurveto
            return
          </CharString>
          <CharString index="294">
            -22 10 -27 -38 callsubr
            122 158 return
          </CharString>
          <CharString index="295">
            -238 45 202 rmoveto
            267 120 -267 hlineto
            endchar
          </CharString>
          <CharString index="296">
            -64 -71 vlineto
            -88 -65 -25 -42 -42 hvcurveto
            return
          </CharString>
          <CharString index="297">
            215 callsubr
            -39 return
          </CharString>
          <CharString index="298">
            -128 4 hvcurveto
            -83 3 -17 return
          </CharString>
          <CharString index="299">
            -188 -138 -70 -132 return
          </CharString>
          <CharString index="300">
            -30 -19 -23 -32 -55 vvcurveto
            return
          </CharString>
          <CharString index="301">
            -163 -194 return
          </CharString>
          <CharString index="302">
            hlineto
            -130 71 -64 125 123 77 66 131 vhcurveto
            return
          </CharString>
          <CharString index="303">
            -43 -68 hlineto
            180 callsubr
            118 callsubr
            return
          </CharString>
          <CharString index="304">
            55 vlineto
            58 30 29 47 37 30 -15 -11 21 vhcurveto
            endchar
          </CharString>
          <CharString index="305">
            vhcurveto
            121 vlineto
            return
          </CharString>
          <CharString index="306">
            170 hlineto
            92 119 92 -119 rlineto
            170 hlineto
            return
          </CharString>
          <CharString index="307">
            -98 -77 -60 -88 -84 62 -54 78 15 20 3 5 16 return
          </CharString>
          <CharString index="308">
            302 167 callgsubr
            return
          </CharString>
          <CharString index="309">
            hvcurveto
            68 23 63 50 -73 callsubr
            return
          </CharString>
          <CharString index="310">
            rmoveto
            122 261 -122 hlineto
            return
          </CharString>
          <CharString index="311">
            rlineto
            139 hlineto
            return
          </CharString>
          <CharString index="312">
            16 -33 -49 10 -41 hhcurveto
            -118 -86 -79 -108 return
          </CharString>
          <CharString index="313">
            -112 494 -48 -234 131 callgsubr
            return
          </CharString>
          <CharString index="314">
            13 638 -2 callgsubr
            -668 -112 426 return
          </CharString>
          <CharString index="315">
            vlineto
            -71 -21 -38 -56 -58 vvcurveto
            -104 85 -52 111 return
          </CharString>
          <CharString index="316">
            hlineto
            -32 -154 rlineto
            123 hlineto
            33 154 rlineto
            return
          </CharString>
          <CharString index="317">
            508 -2 callgsubr
            -538 -112 538 hlineto
            return
          </CharString>
          <CharString index="318">
            hlineto
            -83 callsubr
            305 return
          </CharString>
          <CharString index="319">
            23 hvcurveto
            -170 213 callgsubr
          </CharString>
          <CharString index="320">
            hlineto
            -90 -49 -42 -74 vhcurveto
            endchar
          </CharString>
          <CharString index="321">
            115 -359 -115 return
          </CharString>
          <CharString index="322">
            -55 callgsubr
            -64 return
          </CharString>
          <CharString index="323">
            146 507 return
          </CharString>
          <CharString index="324">
            -83 -10 hlineto
            -171 -5 -88 -103 -118 vvcurveto
            return
          </CharString>
          <CharString index="325">
            rmoveto
            -65 callgsubr
            177 return
          </CharString>
          <CharString index="326">
            vvcurveto
            107 -85 61 -104 22 vhcurveto
            59 vlineto
            endchar
          </CharString>
          <CharString index="327">
            209 84 callgsubr
            return
          </CharString>
          <CharString index="328">
            -115 hlineto
            97 46 -36 -55 return
          </CharString>
          <CharString index="329">
            hlineto
            -103 -68 -43 -92 -52 -40 return
          </CharString>
          <CharString index="330">
            142 671 -142 hlineto
            return
          </CharString>
          <CharString index="331">
            -88 46 -70 78 -27 return
          </CharString>
          <CharString index="332">
            -96 -136 -140 return
          </CharString>
          <CharString index="333">
            vhcurveto
            122 vlineto
            return
          </CharString>
          <CharString index="334">
            hhcurveto
            133 callgsubr
            hvcurveto
            return
          </CharString>
          <CharString index="335">
            vlineto
            89 45 rlineto
            111 vlineto
            -89 -45 rlineto
            return
          </CharString>
          <CharString index="336">
            -8 -18 -17 -3 -16 hhcurveto
            -37 -22 22 25 return
          </CharString>
          <CharString index="337">
            -58 -31 18 43 26 12 19 19 16 hvcurveto
            return
          </CharString>
          <CharString index="338">
            162 147 return
          </CharString>
        <CharString name=".notdef">
          161 160 hmoveto
          436 701 -436 hlineto
          81 -76 rmoveto
          275 -549 -275 hlineto
          endchar
        </CharString>
        <CharString name="A">
          95 262 262 -86 callgsubr
        </CharString>
        <CharString name="AE">
          345 301 262 rmoveto
          12 24 68 134 56 117 30 77 rlinecurve
          -352 vlineto
          149 -139 rmoveto
          153 232 122 -232 153 260 123 -543 vlineto
          -325 -674 rlineto
          161 hlineto
          69 138 rlineto
          229 -138 413 123 hlineto
          endchar
        </CharString>
        <CharString name="Aacute">
          95 527 898 18 callsubr
          -154 -459 -86 callgsubr
        </CharString>
        <CharString name="Abreve">
          95 428 898 23 callgsubr
          -278 -636 -86 callgsubr
        </CharString>
        <CharString name="Acircumflex">
          95 346 817 10 callsubr
          -5 -459 -86 callgsubr
        </CharString>
        <CharString name="Adieresis">
          95 486 728 -52 callgsubr
          44 -466 -86 callgsubr
        </CharString>
        <CharString name="Agrave">
          95 406 721 86 callgsubr
          -23 -459 -86 callgsubr
        </CharString>
        <CharString name="Amacron">
          95 527 860 168 callsubr
          -265 -499 -86 callgsubr
        </CharString>
        <CharString name="Aogonek">
          85 257 262 rmoveto
          7 24 rlineto
          66 221 8 55 0 vvcurveto
          0 8 -55 66 -221 vhcurveto
          7 -24 rlineto
          18 412 rmoveto
          -194 hlineto
          -225 -674 rlineto
          161 hlineto
          41 138 rlineto
          236 hlineto
          41 -138 rlineto
          0 vlineto
          -38 -35 -31 -48 -60 -47 callgsubr
          endchar
        </CharString>
        <CharString name="Aring">
          95 349 905 21 callgsubr
          -87 -448 -86 callgsubr
        </CharString>
        <CharString name="Atilde">
          95 471 887 -59 callsubr
          -283 -564 -86 callgsubr
        </CharString>
        <CharString name="B">
          10 219 123 rmoveto
          156 82 vlineto
          86 27 -36 -42 -50 -36 -28 -78 hvcurveto
          -81 428 rmoveto
          82 hlineto
          67 29 -26 -45 -45 -38 -35 -83 hvcurveto
          -57 hlineto
          -154 274 rmoveto
          -674 291 vlineto
          135 79 79 104 94 -56 46 -61 18 hvcurveto
          59 19 42 57 71 vvcurveto
          101 -71 85 -156 vhcurveto
          endchar
        </CharString>
        <CharString name="C">
          18 563 645 -45 callsubr
          endchar
        </CharString>
        <CharString name="CR">
          -595 endchar
        </CharString>
        <CharString name="Cacute">
          18 563 645 -45 callsubr
          -259 224 -38 callgsubr
          endchar
        </CharString>
        <CharString name="Ccaron">
          18 563 645 -45 callsubr
          -141 224 -74 callsubr
          endchar
        </CharString>
        <CharString name="Ccedilla">
          18 318 -51 rmoveto
          10 -13 16 -23 -26 vvcurveto
          -39 -26 -25 -49 vhcurveto
          -91 vlineto
          124 55 65 78 26 -5 29 -12 19 hvcurveto
          132 696 -45 callsubr
          endchar
        </CharString>
        <CharString name="D">
          88 223 126 rmoveto
          421 61 callgsubr
          -674 52 callgsubr
        </CharString>
        <CharString name="Dcaron">
          88 382 721 -74 callsubr
          -35 -595 rmoveto
          421 61 callgsubr
          -674 52 callgsubr
        </CharString>
        <CharString name="Dcroat">
          29 callgsubr
        </CharString>
        <CharString name="E">
          -51 220 123 rmoveto
          153 -29 callsubr
          vlineto
          endchar
        </CharString>
        <CharString name="Eacute">
          -51 454 898 18 callsubr
          -123 -598 rmoveto
          153 -29 callsubr
          vlineto
          endchar
        </CharString>
        <CharString name="Ecaron">
          -51 341 721 -74 callsubr
          3 -445 rmoveto
          -29 callsubr
          -264 hlineto
          endchar
        </CharString>
        <CharString name="Ecircumflex">
          -51 272 817 10 callsubr
          27 -445 rmoveto
          -29 callsubr
          -264 hlineto
          endchar
        </CharString>
        <CharString name="Edieresis">
          -51 406 727 -52 callgsubr
          82 -451 rmoveto
          -29 callsubr
          -264 hlineto
          endchar
        </CharString>
        <CharString name="Edotaccent">
          -51 282 728 rmoveto
          -14 callsubr
          -62 -605 rmoveto
          153 -29 callsubr
          vlineto
          endchar
        </CharString>
        <CharString name="Egrave">
          -51 346 721 86 callgsubr
          -5 -598 rmoveto
          153 -29 callsubr
          vlineto
          endchar
        </CharString>
        <CharString name="Emacron">
          -51 450 863 168 callsubr
          -230 -641 rmoveto
          153 -29 callsubr
          vlineto
          endchar
        </CharString>
        <CharString name="Eogonek">
          -51 484 123 rmoveto
          -264 153 232 122 -232 153 260 123 -415 -674 264 hlineto
          -43 -35 -36 -48 -60 -47 callgsubr
          endchar
        </CharString>
        <CharString name="Eth">
          29 callgsubr
        </CharString>
        <CharString name="Euro">
          27 582 625 rmoveto
          24 -40 -41 14 -80 hhcurveto
          -129 -117 -75 -143 -43 hvcurveto
          -92 -90 76 hlineto
          -1 -11 0 -12 -12 vvcurveto
          -10 0 -9 1 -10 vhcurveto
          -76 -90 93 hlineto
          -125 41 106 -84 146 hhcurveto
          88 35 17 18 33 hvcurveto
          148 vlineto
          -26 -32 -43 -23 -67 hhcurveto
          -63 -50 27 48 -29 hvcurveto
          179 90 -207 hlineto
          -1 9 0 9 10 vvcurveto
          12 1 12 1 12 vhcurveto
          206 90 -178 hlineto
          51 30 51 30 65 hhcurveto
          65 40 -22 -26 32 hvcurveto
          endchar
        </CharString>
        <CharString name="F">
          -89 476 551 rmoveto
          123 -411 -674 155 254 223 123 -223 174 vlineto
          endchar
        </CharString>
        <CharString name="G">
          111 646 402 -34 callsubr
        </CharString>
        <CharString name="Gbreve">
          111 464 898 23 callgsubr
          70 -496 -34 callsubr
        </CharString>
        <CharString name="H">
          91 466 674 rmoveto
          -274 -247 274 -154 -674 154 269 247 -269 155 674 vlineto
          endchar
        </CharString>
        <CharString name="I">
          86 callsubr
          endchar
        </CharString>
        <CharString name="Iacute">
          86 callsubr
          19 47 -38 callgsubr
          endchar
        </CharString>
        <CharString name="Icircumflex">
          -291 92 898 -8 callgsubr
          -141 -898 rmoveto
          154 674 -154 hlineto
          endchar
        </CharString>
        <CharString name="Idieresis">
          86 callsubr
          -134 136 -53 callsubr
          endchar
        </CharString>
        <CharString name="Idotaccent">
          86 callsubr
          -4 136 -35 callsubr
          endchar
        </CharString>
        <CharString name="Igrave">
          86 callsubr
          47 224 62 callsubr
        </CharString>
        <CharString name="Imacron">
          86 callsubr
          255 86 158 callsubr
          endchar
        </CharString>
        <CharString name="Iogonek">
          -291 229 674 rmoveto
          -154 -673 hlineto
          -43 -35 -37 -49 -60 -47 callgsubr
          endchar
        </CharString>
        <CharString name="J">
          -203 30 19 rmoveto
          -13 25 45 -7 37 hhcurveto
          123 72 75 130 hvcurveto
          469 -154 -465 vlineto
          -53 -26 -23 -45 -29 -27 10 13 -21 vhcurveto
          endchar
        </CharString>
        <CharString name="K">
          67 65 hmoveto
          154 674 -154 hlineto
          341 -337 149 callsubr
        </CharString>
        <CharString name="L">
          -107 219 135 rmoveto
          539 173 callgsubr
          vlineto
          endchar
        </CharString>
        <CharString name="Lacute">
          -107 488 898 18 callsubr
          -158 -47 rmoveto
          173 callgsubr
          -249 hlineto
          endchar
        </CharString>
        <CharString name="Lcaron">
          -107 501 699 rmoveto
          -151 hlineto
          -71 -211 rlineto
          106 hlineto
          -166 186 rmoveto
          173 callgsubr
          -249 hlineto
          endchar
        </CharString>
        <CharString name="Lslash">
          -32 279 135 rmoveto
          156 vlineto
          164 92 rlineto
          121 vlineto
          -164 -92 rlineto
          262 -154 -348 vlineto
          -80 -45 rlineto
          -121 vlineto
          80 45 rlineto
          -205 403 135 vlineto
          endchar
        </CharString>
        <CharString name="M">
          298 50 hmoveto
          154 hlineto
          21 261 rlineto
          5 70 4 69 58 vvcurveto
          0 14 -58 51 -139 vhcurveto
          94 -254 rlineto
          91 hlineto
          95 254 rlineto
          46 122 26 75 0 vvcurveto
          0 2 -76 11 -121 vhcurveto
          25 -261 rlineto
          154 hlineto
          -70 674 rlineto
          -169 hlineto
          -95 -244 rlineto
          -54 -138 -16 -66 0 vvcurveto
          0 -15 67 -53 137 vhcurveto
          -94 244 rlineto
          -169 hlineto
          endchar
        </CharString>
        <CharString name="N">
          102 65 hmoveto
          58 callgsubr
        </CharString>
        <CharString name="NULL">
          -595 endchar
        </CharString>
        <CharString name="Nacute">
          102 302 721 -38 callgsubr
          -323 -898 55 callsubr
        </CharString>
        <CharString name="Ncaron">
          102 65 hmoveto
          -59 callgsubr
          350 47 -74 callsubr
          endchar
        </CharString>
        <CharString name="Ntilde">
          102 65 hmoveto
          -59 callgsubr
          413 213 -59 callsubr
          endchar
        </CharString>
        <CharString name="O">
          36 callgsubr
          endchar
        </CharString>
        <CharString name="OE">
          405 363 133 rmoveto
          -100 -58 80 126 126 58 80 100 100 58 -80 -126 -126 -58 -80 -100 hvcurveto
          303 -10 rmoveto
          153 242 122 -242 153 270 123 -415 -39 vlineto
          32 -45 -53 18 -60 hhcurveto
          -200 -123 -140 -206 -207 122 -139 201 60 53 18 33 45 hvcurveto
          -44 419 123 vlineto
          endchar
        </CharString>
        <CharString name="Oacute">
          141 311 721 -38 callgsubr
          -357 -559 -80 callgsubr
          endchar
        </CharString>
        <CharString name="Ocircumflex">
          141 205 339 rmoveto
          126 63 80 100 100 63 -80 -126 -126 -63 -80 -100 -100 -63 80 126 vhcurveto
          -165 hmoveto
          -207 127 -139 201 200 128 140 206 207 -127 139 -201 -200 -128 -140 -206 vhcurveto
          270 559 -8 callgsubr
          endchar
        </CharString>
        <CharString name="Odieresis">
          141 160 810 -53 callsubr
          -388 -471 -80 callgsubr
          endchar
        </CharString>
        <CharString name="Ograve">
          36 callgsubr
          147 559 62 callsubr
        </CharString>
        <CharString name="Ohungarumlaut">
          141 415 721 14 callsubr
          -274 -559 -80 callgsubr
          endchar
        </CharString>
        <CharString name="Omacron">
          141 545 760 158 callsubr
          -149 -421 -80 callgsubr
          endchar
        </CharString>
        <CharString name="Oslash">
          119 519 445 rmoveto
          11 -29 6 -36 -41 vvcurveto
          -131 -66 -83 -104 -27 -24 5 10 -21 vhcurveto
          -80 90 rmoveto
          -12 30 -6 37 42 vvcurveto
          131 66 83 104 28 25 -6 -10 22 vhcurveto
          254 147 rmoveto
          -145 hlineto
          -25 -34 rlineto
          23 -46 -53 12 -60 hhcurveto
          -200 -128 -140 -206 -98 28 -82 51 -60 hvcurveto
          -78 -106 rlineto
          146 hlineto
          25 34 rlineto
          -22 45 52 -12 59 hhcurveto
          200 128 140 206 97 -28 82 -50 59 hvcurveto
          endchar
        </CharString>
        <CharString name="Otilde">
          36 callgsubr
          287 547 -59 callsubr
          endchar
        </CharString>
        <CharString name="P">
          -32 219 340 rmoveto
          211 60 vlineto
          80 33 -40 -60 -67 -33 -44 -89 hvcurveto
          -205 334 rmoveto
          -674 154 218 78 vlineto
          133 118 77 156 127 -99 96 -152 hvcurveto
          endchar
        </CharString>
        <CharString name="Q">
          146 205 339 rmoveto
          126 63 80 100 100 63 -80 -126 -126 -63 -80 -100 -100 -63 80 126 vhcurveto
          533 -423 rmoveto
          -206 115 rlineto
          103 55 61 111 142 vvcurveto
          207 -127 139 -201 -200 -128 -140 -206 -206 125 -138 199 -2 vhcurveto
          199 -144 rlineto
          endchar
        </CharString>
        <CharString name="R">
          19 219 549 -7 callsubr
        </CharString>
        <CharString name="Racute">
          19 466 898 18 callsubr
          -136 -172 -7 callsubr
        </CharString>
        <CharString name="Rcaron">
          19 378 721 -74 callsubr
          -35 -172 -7 callsubr
        </CharString>
        <CharString name="S">
          -81 454 644 -76 callsubr
          endchar
        </CharString>
        <CharString name="Sacute">
          -81 202 721 -38 callgsubr
          166 -254 -76 callsubr
          endchar
        </CharString>
        <CharString name="Scaron">
          -81 454 644 -76 callsubr
          -126 221 -74 callsubr
          endchar
        </CharString>
        <CharString name="T">
          -51 514 674 81 callgsubr
        </CharString>
        <CharString name="Tcaron">
          -51 334 721 -74 callsubr
          304 -47 81 callgsubr
        </CharString>
        <CharString name="Thorn">
          -32 219 232 rmoveto
          209 66 vlineto
          84 23 -58 -47 -57 -32 -47 -75 hvcurveto
          -66 332 rmoveto
          110 -154 -674 154 110 78 vlineto
          133 118 76 156 127 -99 95 -152 hvcurveto
          endchar
        </CharString>
        <CharString name="U">
          73 454 260 20 callgsubr
        </CharString>
        <CharString name="Uacute">
          73 287 721 -38 callgsubr
          81 -638 20 callgsubr
        </CharString>
        <CharString name="Ucircumflex">
          73 454 260 -64 callgsubr
          -184 224 -8 callgsubr
          endchar
        </CharString>
        <CharString name="Udieresis">
          73 122 809 -53 callsubr
          64 -549 20 callgsubr
        </CharString>
        <CharString name="Ugrave">
          73 454 260 -64 callgsubr
          -138 224 62 callsubr
        </CharString>
        <CharString name="Uhungarumlaut">
          73 454 260 -64 callgsubr
          -77 47 14 callsubr
          endchar
        </CharString>
        <CharString name="Umacron">
          73 454 260 -64 callgsubr
          66 86 158 callsubr
          endchar
        </CharString>
        <CharString name="Uogonek">
          73 454 674 rmoveto
          -414 vlineto
          -102 -54 -28 -66 -63 -57 28 97 vhcurveto
          419 -154 -420 vlineto
          -152 88 -88 129 -20 vhcurveto
          -35 -34 -28 -43 -52 -47 callgsubr
          98 34 62 85 134 vvcurveto
          413 vlineto
          endchar
        </CharString>
        <CharString name="Uring">
          73 200 846 97 callsubr
          171 -589 20 callgsubr
        </CharString>
        <CharString name="V">
          64 640 674 rmoveto
          -164 hlineto
          -81 -269 rlineto
          -49 -162 -16 -104 0 vvcurveto
          0 -15 104 -49 162 vhcurveto
          -81 269 rlineto
          -166 hlineto
          224 -674 rlineto
          170 hlineto
          endchar
        </CharString>
        <CharString name="W">
          376 431 664 rmoveto
          -67 -238 rlineto
          -51 -180 -17 -78 0 vvcurveto
          0 -9 78 -44 180 vhcurveto
          -62 248 rlineto
          -162 hlineto
          181 -674 rlineto
          172 hlineto
          62 213 rlineto
          51 172 3 41 0 vvcurveto
          0 5 -40 48 -173 vhcurveto
          59 -213 rlineto
          172 hlineto
          180 674 rlineto
          -157 hlineto
          -62 -247 rlineto
          -43 -170 -13 -89 0 vvcurveto
          0 -19 89 -47 169 vhcurveto
          -66 238 rlineto
          endchar
        </CharString>
        <CharString name="X">
          68 240 342 rmoveto
          -213 -342 rlineto
          186 hlineto
          39 70 40 68 39 72 122 -210 rcurveline
          183 hlineto
          -217 341 204 333 rlineto
          -188 hlineto
          -35 -65 -37 -66 -35 -66 -112 197 rcurveline
          -179 hlineto
          endchar
        </CharString>
        <CharString name="Y">
          48 630 674 14 callgsubr
        </CharString>
        <CharString name="Yacute">
          48 507 898 18 callsubr
          234 -47 14 callgsubr
        </CharString>
        <CharString name="Ydieresis">
          48 463 727 -52 callgsubr
          435 -53 14 callgsubr
        </CharString>
        <CharString name="Z">
          26 549 674 17 callsubr
          endchar
        </CharString>
        <CharString name="Zacute">
          26 272 721 -38 callgsubr
          191 -224 17 callsubr
          endchar
        </CharString>
        <CharString name="Zcaron">
          26 549 674 17 callsubr
          -167 156 -74 callsubr
          endchar
        </CharString>
        <CharString name="Zdotaccent">
          26 549 674 17 callsubr
          -303 245 -35 callsubr
          endchar
        </CharString>
        <CharString name="a">
          -79 311 208 -94 callgsubr
        </CharString>
        <CharString name="aacute">
          -79 426 731 18 callsubr
          -4 -346 -94 callgsubr
        </CharString>
        <CharString name="abreve">
          -79 343 730 23 callgsubr
          -144 -522 -94 callgsubr
        </CharString>
        <CharString name="acircumflex">
          -79 256 650 10 callsubr
          134 -346 -94 callgsubr
        </CharString>
        <CharString name="acute">
          -95 134 621 -38 callgsubr
          endchar
        </CharString>
        <CharString name="adieresis">
          -79 399 561 -52 callgsubr
          180 -353 -94 callgsubr
        </CharString>
        <CharString name="ae">
          213 316 171 rmoveto
          -43 -23 -28 -42 -40 -19 18 33 33 27 24 50 vhcurveto
          47 hlineto
          316 92 rmoveto
          -176 hlineto
          69 13 42 32 43 hhcurveto
          56 18 -40 -50 4 hvcurveto
          128 -115 rmoveto
          3 21 5 36 22 vvcurveto
          162 -89 75 -131 -66 -60 -26 -44 -31 vhcurveto
          44 -21 -55 30 -73 hhcurveto
          -79 -54 -17 -17 -30 hvcurveto
          -131 vlineto
          25 38 55 21 59 hhcurveto
          65 20 -26 -38 hvcurveto
          -35 -64 vlineto
          -144 -68 -60 -94 -88 62 -60 116 105 51 50 42 18 hvcurveto
          -67 40 86 -26 67 hhcurveto
          52 64 11 23 36 hvcurveto
          122 vlineto
          -24 -32 -42 -19 -60 hhcurveto
          -68 -53 31 57 -21 hvcurveto
          endchar
        </CharString>
        <CharString name="agrave">
          -79 326 554 86 callgsubr
          106 -346 -94 callgsubr
        </CharString>
        <CharString name="amacron">
          -79 436 692 168 callsubr
          -125 -385 -94 callgsubr
        </CharString>
        <CharString name="ampersand">
          147 425 130 rmoveto
          -12 -28 -31 -6 -30 hhcurveto
          -79 -58 32 45 34 14 27 65 23 hvcurveto
          7 -7 7 -6 6 -6 rrcurveto
          41 315 rmoveto
          47 30 -27 -50 -29 -13 -38 -62 -34 hvcurveto
          -36 36 -33 38 39 vvcurveto
          44 31 21 36 vhcurveto
          398 -569 rmoveto
          -125 123 rlineto
          36 50 20 61 67 vvcurveto
          -131 hlineto
          -33 -7 -28 -11 -24 vhcurveto
          -98 96 rlineto
          103 52 39 60 76 vvcurveto
          119 -85 69 -139 -118 -97 -62 -124 -58 31 -49 37 -41 vhcurveto
          -105 -34 -37 -58 -78 vvcurveto
          -102 102 -90 183 70 62 17 30 52 vhcurveto
          39 -39 rlineto
          endchar
        </CharString>
        <CharString name="aogonek">
          -84 311 208 rmoveto
          -37 vlineto
          -43 -23 -28 -42 -40 -19 18 33 33 27 24 50 vhcurveto
          197 117 rmoveto
          131 -71 60 -143 -79 -64 -17 -17 -30 vhcurveto
          -131 vlineto
          25 38 55 21 59 hhcurveto
          65 20 -26 -38 hvcurveto
          -35 -64 vlineto
          -144 -68 -60 -94 -81 55 -66 102 74 36 33 32 16 hvcurveto
          -52 vlineto
          -48 -36 -43 -52 -65 -47 callgsubr
          endchar
        </CharString>
        <CharString name="apostrophemod">
          -328 28 433 85 callgsubr
        </CharString>
        <CharString name="approxequal">
          -6 473 329 102 callgsubr
          -92 278 102 callgsubr
          endchar
        </CharString>
        <CharString name="aring">
          -79 260 738 21 callgsubr
          51 -335 -94 callgsubr
        </CharString>
        <CharString name="asciicircum">
          -104 458 332 rmoveto
          -151 262 rlineto
          -123 hlineto
          -151 -262 rlineto
          135 hlineto
          78 146 77 -146 rlineto
          endchar
        </CharString>
        <CharString name="asciitilde">
          59 524 379 rmoveto
          -35 -30 -25 -24 -48 -62 -41 49 -118 hhcurveto
          -76 -63 -62 -47 -33 hvcurveto
          101 -80 rlineto
          35 30 25 23 48 76 37 -49 107 hhcurveto
          84 56 62 47 33 hvcurveto
          endchar
        </CharString>
        <CharString name="asterisk">
          -87 339 428 rmoveto
          15 16 2 6 19 hvcurveto
          92 30 -36 112 -94 -30 -18 -6 -14 -7 -12 -9 rlinecurve
          4 14 3 17 19 vvcurveto
          98 -118 -98 vlineto
          -19 3 -17 4 -14 vhcurveto
          -12 9 -15 8 -18 6 -93 30 rcurveline
          -37 -112 94 -31 rlineto
          -6 17 17 -3 15 hhcurveto
          -13 -10 -12 -12 -10 -13 -58 -79 rcurveline
          95 -70 59 80 11 15 8 14 5 13 rlinecurve
          4 -14 7 -14 11 -15 57 -79 rcurveline
          96 69 -58 80 -11 15 -13 12 -12 9 rlinecurve
          endchar
        </CharString>
        <CharString name="at">
          382 476 105 rmoveto
          -46 -43 38 64 88 49 45 52 41 40 -30 -66 8 hvcurveto
          -13 -1 -14 -13 vvcurveto
          -67 -14 -45 -32 -41 hhcurveto
          192 -157 rmoveto
          -31 -65 -75 -15 -61 hhcurveto
          -162 -137 107 187 182 133 175 213 168 140 -87 -199 -97 -33 -57 -46 -28 -23 24 84 26 4 55 8 120 hvcurveto
          1 20 rlineto
          -116 hlineto
          -1 -24 -2 -23 -2 -24 rrcurveto
          50 -27 -43 23 -50 hhcurveto
          -106 -99 -87 -144 -114 63 -98 112 66 58 35 73 28 hvcurveto
          -59 19 46 -50 88 hhcurveto
          110 93 117 160 246 -201 148 -222 -261 -218 -207 -264 -221 150 -195 278 58 73 12 29 65 hvcurveto
          endchar
        </CharString>
        <CharString name="atilde">
          -79 380 720 -59 callsubr
          -143 -451 -94 callgsubr
        </CharString>
        <CharString name="b">
          16 318 116 rmoveto
          -66 -46 55 88 90 57 43 56 58 51 -48 -92 -84 -50 -52 -60 hvcurveto
          -112 591 rmoveto
          -146 -707 146 79 hlineto
          -60 36 57 -25 59 hhcurveto
          138 80 125 136 165 -96 93 -123 -60 -56 -27 -57 -35 hvcurveto
          endchar
        </CharString>
        <CharString name="backslash">
          -131 107 707 rmoveto
          -152 hlineto
          360 -810 rlineto
          151 hlineto
          endchar
        </CharString>
        <CharString name="bar">
          -315 70 -194 rmoveto
          140 889 -140 hlineto
          endchar
        </CharString>
        <CharString name="braceleft">
          -215 40 325 rmoveto
          -141 vlineto
          0 7 1 10 55 30 -50 -47 vhcurveto
          -34 -12 -38 -42 vvcurveto
          -104 66 -76 93 21 22 4 8 23 vhcurveto
          135 vlineto
          -6 -10 -11 -3 -10 hhcurveto
          -27 -24 22 33 hvcurveto
          28 12 43 44 vvcurveto
          85 -56 60 -60 8 vhcurveto
          60 8 56 59 85 44 -12 43 28 vvcurveto
          33 24 22 27 10 11 -3 -6 10 vhcurveto
          135 vlineto
          8 -23 -22 4 -21 hhcurveto
          -93 -66 -76 -104 hvcurveto
          -42 12 -38 -34 vvcurveto
          -47 -30 -49 -55 vhcurveto
          endchar
        </CharString>
        <CharString name="braceright">
          -215 323 325 rmoveto
          -55 -30 49 47 hvcurveto
          34 12 38 42 vvcurveto
          104 -66 76 -93 -21 -22 -4 -8 -23 vhcurveto
          -135 vlineto
          6 10 11 3 10 hhcurveto
          27 24 -22 -33 hvcurveto
          -28 -12 -43 -44 vvcurveto
          -85 56 -59 60 -8 vhcurveto
          -60 -8 -56 -60 -85 -44 12 -43 -28 vvcurveto
          -33 -24 -22 -27 -10 -11 3 6 -10 vhcurveto
          -135 vlineto
          -8 23 22 -4 21 hhcurveto
          93 66 76 104 hvcurveto
          42 -12 38 34 vvcurveto
          47 30 50 55 10 7 -1 0 vhcurveto
          141 vlineto
          endchar
        </CharString>
        <CharString name="bracketleft">
          -232 348 580 rmoveto
          127 -283 -903 283 128 -145 648 vlineto
          endchar
        </CharString>
        <CharString name="bracketright">
          -232 298 707 rmoveto
          -283 -127 145 -648 -145 -128 283 hlineto
          endchar
        </CharString>
        <CharString name="breve">
          -95 52 798 rmoveto
          -131 88 -50 110 110 88 50 131 vhcurveto
          -112 hlineto
          -58 -36 -31 -50 -50 -36 31 58 vhcurveto
          endchar
        </CharString>
        <CharString name="brokenbar">
          -315 210 369 rmoveto
          338 -140 -338 vlineto
          140 -486 rmoveto
          338 -140 -338 vlineto
          endchar
        </CharString>
        <CharString name="bullet">
          -170 80 356 rmoveto
          -75 56 -58 77 74 58 58 75 75 -58 58 -75 -76 -56 -58 -75 vhcurveto
          endchar
        </CharString>
        <CharString name="c">
          -126 183 252 rmoveto
          128 callsubr
          125 vlineto
          -27 callgsubr
          endchar
        </CharString>
        <CharString name="cacute">
          -126 237 553 -38 callgsubr
          -140 -478 rmoveto
          128 callsubr
          125 vlineto
          -27 callgsubr
          endchar
        </CharString>
        <CharString name="caron">
          -95 312 621 -74 callsubr
          endchar
        </CharString>
        <CharString name="ccaron">
          -126 439 486 rmoveto
          -27 callgsubr
          128 callsubr
          -102 192 -74 callsubr
          endchar
        </CharString>
        <CharString name="ccedilla">
          -126 183 252 rmoveto
          128 callsubr
          125 vlineto
          -27 callgsubr
          186 -377 8 callsubr
        </CharString>
        <CharString name="cedilla">
          -95 339 -125 8 callsubr
        </CharString>
        <CharString name="cent">
          -117 438 483 rmoveto
          -27 14 -26 8 -26 5 rrcurveto
          110 -122 -112 vlineto
          -130 -26 -75 -104 -2 -126 rrcurveto
          -134 87 -97 121 -24 vhcurveto
          -108 121 109 vlineto
          29 5 27 9 23 12 rrcurveto
          122 vlineto
          -23 -38 -43 -12 -40 hhcurveto
          -79 -55 52 89 -5 hvcurveto
          95 1 63 47 78 hhcurveto
          40 43 -11 -22 35 hvcurveto
          endchar
        </CharString>
        <CharString name="circumflex">
          -95 188 798 -8 callgsubr
          endchar
        </CharString>
        <CharString name="colon">
          -309 55 419 rmoveto
          123 callgsubr
          -331 vmoveto
          123 callgsubr
          endchar
        </CharString>
        <CharString name="comma">
          -301 -7 -127 85 callgsubr
        </CharString>
        <CharString name="copyright">
          166 35 338 rmoveto
          -191 155 -155 191 190 155 155 191 190 -155 155 -190 -191 -155 -155 -190 vhcurveto
          97 -1 rmoveto
          143 105 105 144 143 105 -105 -143 -145 -105 -104 -143 -144 -105 104 145 vhcurveto
          202 hmoveto
          53 1 40 22 32 hhcurveto
          28 28 -7 -15 24 hvcurveto
          94 vlineto
          17 -32 -31 5 -27 hhcurveto
          -108 -67 -70 -99 -1 hvcurveto
          -103 82 -63 88 35 35 7 14 26 vhcurveto
          95 vlineto
          -16 -26 -29 -8 -27 hhcurveto
          -36 -32 26 48 -3 hvcurveto
          endchar
        </CharString>
        <CharString name="currency">
          -24 58 311 rmoveto
          -40 11 -40 18 -32 vhcurveto
          -59 -57 85 -82 58 57 rlineto
          -18 34 39 -9 42 hhcurveto
          42 38 9 17 33 hvcurveto
          59 -56 85 82 -59 57 rlineto
          18 32 12 40 40 vvcurveto
          40 -12 39 -17 31 vhcurveto
          58 57 -85 82 -58 -56 rlineto
          17 -33 -39 10 -42 hhcurveto
          -43 -39 -10 -18 -33 hvcurveto
          -58 57 -85 -82 58 -57 rlineto
          -17 -31 -11 -40 -39 vvcurveto
          122 hmoveto
          57 43 50 63 63 43 -50 -57 -57 -43 -50 -63 -63 -43 50 57 vhcurveto
          endchar
        </CharString>
        <CharString name="d">
          16 47 callgsubr
          112 591 rmoveto
          -278 vlineto
          64 callsubr
          707 vlineto
          endchar
        </CharString>
        <CharString name="dagger">
          -36 529 523 rmoveto
          196 callgsubr
          -405 130 405 185 hlineto
          endchar
        </CharString>
        <CharString name="daggerdbl">
          -6 544 405 rmoveto
          118 196 callgsubr
          -136 -184 -118 184 -151 130 151 185 118 -185 136 vlineto
          endchar
        </CharString>
        <CharString name="danda">
          -118 215 hmoveto
          223 callsubr
          endchar
        </CharString>
        <CharString name="dcaron">
          150 47 callgsubr
          112 313 rmoveto
          64 callsubr
          707 -146 vlineto
          265 1 rmoveto
          -71 -211 rlineto
          106 hlineto
          116 211 rlineto
          endchar
        </CharString>
        <CharString name="dcroat">
          16 47 callgsubr
          315 530 rmoveto
          -57 61 -146 -61 -151 -82 151 -135 hlineto
          64 callsubr
          564 57 vlineto
          endchar
        </CharString>
        <CharString name="degree">
          -155 30 495 115 callgsubr
          102 hmoveto
          48 40 40 48 48 40 -40 -48 -48 -40 -40 -48 -48 -40 40 48 vhcurveto
          endchar
        </CharString>
        <CharString name="dieresis">
          -95 33 710 -53 callsubr
          endchar
        </CharString>
        <CharString name="divide">
          -6 214 516 170 callgsubr
          -169 -241 rmoveto
          499 130 -499 hlineto
          169 -241 170 callgsubr
          endchar
        </CharString>
        <CharString name="dollar">
          -81 449 644 rmoveto
          -31 14 -35 10 -34 5 rrcurveto
          117 -122 -115 vlineto
          -123 -15 -70 -75 -101 vvcurveto
          -108 73 -50 71 -33 vhcurveto
          77 -36 60 -18 -49 vvcurveto
          -40 -35 -27 -46 -63 -65 18 48 -66 vhcurveto
          -155 vlineto
          37 -21 49 -13 52 -5 rrcurveto
          -113 121 116 vlineto
          111 21 69 75 102 vvcurveto
          123 -94 48 -84 37 vhcurveto
          -57 25 -43 24 37 vvcurveto
          32 26 25 54 57 61 -18 -29 50 vhcurveto
          endchar
        </CharString>
        <CharString name="dotaccent">
          -95 167 711 -35 callsubr
          endchar
        </CharString>
        <CharString name="dotlessi">
          87 callgsubr
          endchar
        </CharString>
        <CharString name="dottedcircle">
          65 139 517 rmoveto
          -26 18 -19 26 26 18 19 26 25 -18 19 -26 -26 -18 -19 -25 vhcurveto
          -82 -110 rmoveto
          -25 20 -19 26 24 20 19 25 25 -20 19 -24 -26 -20 -19 -25 vhcurveto
          -13 -126 rmoveto
          -25 19 -18 25 26 18 18 227 callgsubr
          52 -116 rmoveto
          -26 18 -18 26 25 19 18 26 25 -19 19 -25 -26 -18 -19 -25 vhcurveto
          101 -75 rmoveto
          -26 19 -20 26 25 19 20 26 24 -19 20 -25 -26 -19 -20 -24 vhcurveto
          127 -16 rmoveto
          -26 18 -18 26 26 19 18 26 26 -19 18 -26 -26 -18 -18 -26 vhcurveto
          121 53 rmoveto
          -26 19 -18 25 25 20 18 26 25 -20 19 -25 -25 -19 -19 -25 vhcurveto
          73 98 rmoveto
          -25 19 -19 26 24 19 19 25 26 -19 19 -24 -26 -19 -19 -26 vhcurveto
          10 134 rmoveto
          -26 18 -18 26 25 19 18 26 26 -19 18 -25 -26 -18 -18 -26 vhcurveto
          -50 118 rmoveto
          -25 19 -19 25 26 18 19 227 callgsubr
          -95 68 rmoveto
          -24 19 -20 26 25 18 20 24 26 -18 19 -25 -26 -19 -19 -26 vhcurveto
          -126 15 rmoveto
          -26 18 -18 26 26 18 18 26 26 -18 18 -26 -26 -18 -18 -26 vhcurveto
          endchar
        </CharString>
        <CharString name="doubledanda">
          132 215 hmoveto
          223 callsubr
          250 -671 rmoveto
          223 callsubr
          endchar
        </CharString>
        <CharString name="dvA">
          107 732 -2 callgsubr
          -319 -72 callgsubr
          100 vlineto
          endchar
        </CharString>
        <CharString name="dvAA">
          386 1011 -2 callgsubr
          -598 -72 callgsubr
          138 108 callsubr
        </CharString>
        <CharString name="dvAI">
          -18 607 -2 callgsubr
          -75 hlineto
          34 callsubr
          -411 -37 callsubr
        </CharString>
        <CharString name="dvAU">
          388 906 -2 callgsubr
          -116 191 rlineto
          -50 callsubr
          -323 -72 callgsubr
          140 -79 callsubr
          vlineto
          endchar
        </CharString>
        <CharString name="dvAbbreviationsign">
          -93 63 320 rmoveto
          -15 callsubr
          endchar
        </CharString>
        <CharString name="dvAcandra">
          107 413 559 rmoveto
          -70 callgsubr
          100 112 -319 vlineto
          237 251 rmoveto
          39 callgsubr
          123 100 69 120 vhcurveto
          endchar
        </CharString>
        <CharString name="dvAnusvara">
          -595 -222 818 rmoveto
          -18 callsubr
          -46 -36 -36 -46 vhcurveto
          endchar
        </CharString>
        <CharString name="dvAnusvara.amI">
          -595 -65 908 rmoveto
          -18 callsubr
          -46 -36 -36 -46 vhcurveto
          endchar
        </CharString>
        <CharString name="dvAvagraha">
          -12 296 -3 rmoveto
          155 72 79 103 hvcurveto
          191 -296 46 90 vvcurveto
          28 20 8 28 vhcurveto
          213 129 -229 hlineto
          -119 -69 -60 -94 hvcurveto
          -191 306 -55 -89 vvcurveto
          -37 -26 -19 -56 -81 -97 44 33 -50 vhcurveto
          -145 vlineto
          -26 46 74 -35 109 hhcurveto
          endchar
        </CharString>
        <CharString name="dvB">
          -200 205 callgsubr
          -62 -356 rmoveto
          -12 -22 -26 -7 -30 -64 callsubr
          267 -40 rmoveto
          -13 -22 -15 -21 -17 -19 -171 142 rcurveline
          -94 callsubr
          125 91 70 98 45 hvcurveto
          endchar
        </CharString>
        <CharString name="dvBA">
          37 363 204 rmoveto
          -13 -24 -28 -7 -26 -64 callsubr
          469 325 rmoveto
          -692 -112 450 103 callsubr
          -144 -88 -97 -122 156 callsubr
          hvcurveto
          -132 -84 callgsubr
        </CharString>
        <CharString name="dvBH">
          -236 453 378 rmoveto
          -223 -53 callgsubr
          126 223 hlineto
          endchar
        </CharString>
        <CharString name="dvBHA">
          -4 383 378 rmoveto
          -153 -53 callgsubr
          125 153 -266 204 callgsubr
          112 -238 hlineto
          endchar
        </CharString>
        <CharString name="dvBH_LA">
          526 1151 129 callsubr
          -82 -58 -38 -64 -29 hvcurveto
          -186 -53 callgsubr
          126 164 -1 hlineto
          -160 108 -105 172 -34 callgsubr
          vhcurveto
          -90 callsubr
        </CharString>
        <CharString name="dvBH_NA">
          1 388 -2 callgsubr
          -243 -153 76 callgsubr
          153 -59 hlineto
          -235 -145 rlineto
          -42 -26 -17 -30 -33 callsubr
          6 14 13 8 vhcurveto
          132 84 rlineto
          -125 138 -10 callsubr
        </CharString>
        <CharString name="dvBH_R">
          -197 245 428 rmoveto
          76 callgsubr
          173 hlineto
          -345 -357 rlineto
          183 hlineto
          316 357 rlineto
          111 vlineto
          endchar
        </CharString>
        <CharString name="dvBH_RA">
          11 397 -2 callgsubr
          1 -243 rlineto
          -153 77 callgsubr
          153 -44 hlineto
          -365 -313 rlineto
          193 hlineto
          172 151 rlineto
          -111 204 callgsubr
          112 vlineto
          endchar
        </CharString>
        <CharString name="dvBH_R_YA">
          427 811 -104 callsubr
          -453 -9 callgsubr
          -112 176 79 callgsubr
          -19 -7 -18 -15 -15 vhcurveto
          -296 77 callgsubr
          173 0 hlineto
          -345 -357 rlineto
          183 hlineto
          216 244 rlineto
          -64 47 69 -34 76 hhcurveto
          135 callsubr
          vlineto
          endchar
        </CharString>
        <CharString name="dvBH_VA">
          368 993 -2 callgsubr
          -663 -112 421 -268 hlineto
          -103 callsubr
          -101 -74 -51 -76 -31 hvcurveto
          -182 -53 callgsubr
          126 166 hlineto
          -118 12 95 -63 109 hhcurveto
          -69 callgsubr
        </CharString>
        <CharString name="dvBH_YA">
          419 626 124 callgsubr
          -684 75 callgsubr
          -53 callgsubr
          126 57 hlineto
          33 40 1 4 37 hvcurveto
          -107 41 88 -59 100 hhcurveto
          24 124 rmoveto
          -64 -38 30 46 -15 hvcurveto
          68 21 63 57 89 176 callsubr
          endchar
        </CharString>
        <CharString name="dvB_BA">
          447 773 204 rmoveto
          -13 -24 -28 -7 -26 -64 callsubr
          -240 -143 rmoveto
          -12 -22 -26 -7 -30 -64 callsubr
          879 325 rmoveto
          -1102 -112 860 103 callsubr
          -144 -88 -97 -122 hvcurveto
          -9 vlineto
          -9 -14 -10 -13 -11 -12 -171 142 rcurveline
          -94 callsubr
          89 71 35 56 50 hvcurveto
          -57 43 70 -34 75 hhcurveto
          64 52 22 36 39 hvcurveto
          -132 -84 callgsubr
        </CharString>
        <CharString name="dvB_BHA">
          406 363 203 rmoveto
          -12 -22 -26 -7 -30 -64 callsubr
          600 325 rmoveto
          -293 -153 145 vlineto
          143 callgsubr
          -514 -112 483 129 callgsubr
          -138 vlineto
          -29 -8 -17 -24 -33 vvcurveto
          -8 vlineto
          -12 -19 -13 -19 -15 -16 -171 142 rcurveline
          -94 callsubr
          96 77 42 64 50 hvcurveto
          18 -39 165 callgsubr
        </CharString>
        <CharString name="dvB_BH_RA">
          391 363 203 rmoveto
          -12 -22 -26 -7 -30 -64 callsubr
          584 325 rmoveto
          1 -243 rlineto
          -153 95 hlineto
          143 callgsubr
          -499 -112 468 129 callgsubr
          -88 vlineto
          -29 -8 -17 -24 -33 vvcurveto
          -16 4 -18 10 -25 vhcurveto
          -11 -19 -13 -18 -15 -16 -171 142 rcurveline
          -94 callsubr
          102 79 47 70 51 hvcurveto
          116 122 callsubr
        </CharString>
        <CharString name="dvB_DA">
          384 363 203 rmoveto
          -12 -22 -26 -7 -30 -64 callsubr
          704 37 rmoveto
          83 callsubr
          -1039 -112 784 28 callgsubr
          hvcurveto
          -5 0 -6 -5 vvcurveto
          -4 -6 -5 -6 -6 -6 -171 142 rcurveline
          -94 callsubr
          79 65 28 45 49 hvcurveto
          -52 36 62 -33 78 hhcurveto
          40 67 15 38 26 hvcurveto
          -85 callsubr
          endchar
        </CharString>
        <CharString name="dvB_DHA">
          448 363 203 rmoveto
          -12 -22 -26 -7 -30 -64 callsubr
          880 325 -11 callsubr
          -725 -112 527 -6 callgsubr
          -73 -5 -52 -27 -22 -47 -10 -16 -11 -15 -13 -14 -171 142 rcurveline
          -94 callsubr
          78 65 27 45 49 hvcurveto
          -50 38 70 -27 80 hhcurveto
          65 70 19 48 41 hvcurveto
          -136 -1 callsubr
        </CharString>
        <CharString name="dvB_DH_VA">
          808 363 203 rmoveto
          -12 -22 -26 -7 -30 -64 callsubr
          1240 325 rmoveto
          -603 -112 361 -268 hlineto
          110 callsubr
          -19 2 -17 4 -16 hvcurveto
          -39 -48 -48 -15 -62 hhcurveto
          -60 -42 151 callsubr
          17 59 hvcurveto
          -68 callsubr
          -725 -112 527 -6 callgsubr
          -73 -5 -52 -27 -22 -47 -10 -16 -11 -15 -13 -14 -171 142 rcurveline
          -94 callsubr
          78 65 28 44 49 hvcurveto
          -50 39 74 -27 85 hhcurveto
          94 79 27 44 59 hvcurveto
          -36 39 55 -18 59 hhcurveto
          -69 callgsubr
        </CharString>
        <CharString name="dvB_JA">
          463 364 203 rmoveto
          -12 -23 -26 -7 -30 -64 callsubr
          896 325 rmoveto
          -1119 -112 876 -96 -359 -47 callsubr
          141 -348 93 callgsubr
        </CharString>
        <CharString name="dvB_JHA">
          576 669 336 rmoveto
          0 -14 vlineto
          39 callsubr
          115 -223 hlineto
          -573 -182 rmoveto
          -9 -21 -23 -4 -29 hhcurveto
          -69 -66 41 76 23 5 19 10 16 hvcurveto
          1008 355 rmoveto
          -1231 -112 734 194 callgsubr
          -43 136 callsubr
          -46 -42 31 49 -23 hvcurveto
          -115 hlineto
          -205 169 rlineto
          -89 callgsubr
          -131 105 -102 149 hvcurveto
          62 1 46 13 37 22 rrcurveto
          -116 140 84 vlineto
          49 callsubr
          21 -2 20 -6 17 hvcurveto
          86 -229 66 callgsubr
          hlineto
          endchar
        </CharString>
        <CharString name="dvB_J_YA">
          861 1245 31 callsubr
          -61 -39 23 53 -22 vhcurveto
          102 callsubr
          hlineto
          -881 -356 rmoveto
          -12 -23 -26 -7 -30 -64 callsubr
          1293 325 rmoveto
          -1516 -112 998 hlineto
          19 -19 10 -26 -34 vvcurveto
          -30 -18 -27 -41 -20 vhcurveto
          38 -41 -69 22 -91 hhcurveto
          -250 -47 callsubr
          26 hlineto
          197 -78 -242 248 -96 callgsubr
        </CharString>
        <CharString name="dvB_JxA">
          463 573 -6 rmoveto
          -101 callsubr
          -209 209 rmoveto
          -12 -23 -26 -7 -30 -64 callsubr
          896 325 rmoveto
          -1119 -112 876 -96 -359 -47 callsubr
          141 -348 93 callgsubr
        </CharString>
        <CharString name="dvB_LA">
          576 363 203 rmoveto
          -12 -22 -26 -7 -30 -64 callsubr
          1008 325 rmoveto
          -1231 -112 988 -73 hlineto
          1 -8 -9 1 -8 hhcurveto
          -75 -16 callsubr
          70 26 31 64 6 5 0 -1 6 vhcurveto
          -376 143 -78 callgsubr
          vlineto
          endchar
        </CharString>
        <CharString name="dvB_L_YA">
          959 1373 -104 callsubr
          -1010 -356 rmoveto
          -12 -22 -26 -7 -30 -64 callsubr
          1421 325 rmoveto
          -1644 -112 1126 50 callsubr
          -27 -14 -24 -31 -19 vhcurveto
          44 -31 -50 34 -70 hhcurveto
          -71 -16 callsubr
          65 17 36 43 39 25 -44 -39 12 vhcurveto
          0 vlineto
          -121 41 92 -67 106 -96 callgsubr
        </CharString>
        <CharString name="dvB_NA">
          37 362 203 rmoveto
          -12 -23 -28 -7 -26 hhcurveto
          -62 -45 40 64 23 5 19 9 16 hvcurveto
          470 325 rmoveto
          -692 -112 450 -268 hlineto
          -16 -4 -14 -7 -12 vhcurveto
          -166 136 rlineto
          4 11 12 2 13 hhcurveto
          21 27 -3 -7 21 45 callgsubr
          -22 -33 3 -26 hhcurveto
          -144 -88 -97 -122 -100 66 -76 86 -29 hvcurveto
          -21 -12 rlineto
          -44 -24 -15 -32 38 callsubr
          128 108 8 5 8 7 7 6 rlinecurve
          -132 -84 callgsubr
        </CharString>
        <CharString name="dvB_R">
          -218 407 -2 callgsubr
          -437 -112 437 hlineto
          -45 -355 rmoveto
          -15 -23 -25 -5 -29 -64 callsubr
          255 -36 rmoveto
          -13 -25 -13 -20 -12 -16 -166 137 rcurveline
          -89 callgsubr
          -98 67 -79 84 -26 hvcurveto
          -162 -154 rlineto
          194 hlineto
          314 302 rlineto
          endchar
        </CharString>
        <CharString name="dvB_RA">
          38 363 204 rmoveto
          -13 -24 -28 -7 -26 -64 callsubr
          470 325 rmoveto
          -693 -112 451 -269 hlineto
          -1 1 rlineto
          -71 callgsubr
          -144 -88 -97 -122 -98 67 -76 80 -29 hvcurveto
          -158 -154 rlineto
          194 hlineto
          203 200 rlineto
          -66 callgsubr
        </CharString>
        <CharString name="dvB_SA">
          497 712 167 callgsubr
          148 -205 vlineto
          -515 -153 rmoveto
          -11 -20 -26 -6 -29 hhcurveto
          -69 -44 42 62 23 5 19 10 16 hvcurveto
          929 325 rmoveto
          -1152 -112 623 -115 hlineto
          -45 -27 -32 -65 vhcurveto
          -71 -42 hlineto
          -31 -6 -26 -11 -21 vhcurveto
          -169 139 rlineto
          -94 callsubr
          98 79 35 66 44 hvcurveto
          125 -175 -57 callsubr
        </CharString>
        <CharString name="dvB_SHA">
          535 205 callgsubr
          -58 -359 rmoveto
          -10 -20 -23 -6 -24 hhcurveto
          -69 -53 35 69 23 5 19 10 16 hvcurveto
          427 93 24 callgsubr
          -112 -45 hlineto
          -23 -8 -22 -14 -19 vhcurveto
          -174 144 rlineto
          -94 callsubr
          98 76 35 62 48 hvcurveto
          162 -171 -7 callgsubr
        </CharString>
        <CharString name="dvB_TA">
          413 363 203 rmoveto
          -12 -22 -26 -7 -30 -64 callsubr
          845 325 rmoveto
          -1068 -112 826 -85 -74 hlineto
          -167 -88 -75 -111 -18 hvcurveto
          -11 -16 -11 -15 -12 -13 -171 142 rcurveline
          -94 callsubr
          74 63 25 41 48 hvcurveto
          -85 30 71 -54 106 hhcurveto
          32 callgsubr
        </CharString>
        <CharString name="dvB_VA">
          408 363 203 rmoveto
          -12 -22 -26 -7 -30 -64 callsubr
          840 325 rmoveto
          -1063 -112 821 -268 hlineto
          110 callsubr
          -8 0 -7 1 -8 hvcurveto
          -7 -8 -6 -9 -8 -8 -171 142 rcurveline
          -94 callsubr
          85 69 32 52 50 hvcurveto
          -47 40 63 -25 68 hhcurveto
          -69 callgsubr
        </CharString>
        <CharString name="dvB_YA">
          439 823 -104 callsubr
          -460 -356 rmoveto
          -12 -22 -26 -7 -30 -64 callsubr
          871 325 rmoveto
          -1094 -112 576 27 callgsubr
          4 -36 8 -32 12 -29 -9 -13 -9 -11 -10 -11 -171 142 rcurveline
          -94 callsubr
          98 76 43 65 51 hvcurveto
          -50 46 61 -26 67 -96 callgsubr
        </CharString>
        <CharString name="dvC">
          -166 459 -2 callgsubr
          -489 -112 489 hlineto
          46 -203 rmoveto
          -87 -31 -71 -65 -96 -39 callsubr
          151 104 100 95 24 vhcurveto
          endchar
        </CharString>
        <CharString name="dvCA">
          65 690 -2 callgsubr
          -720 -112 480 -236 hlineto
          69 callsubr
          -359 -115 112 vlineto
          193 callsubr
          -86 69 -76 121 96 57 38 39 28 vhcurveto
          -168 -1 callsubr
        </CharString>
        <CharString name="dvCH">
          111 callgsubr
          -116 123 -57 131 139 callgsubr
          120 -84 66 -114 -22 -32 -3 -5 -18 vhcurveto
          -82 callgsubr
          endchar
        </CharString>
        <CharString name="dvCHA">
          62 414 508 rmoveto
          -21 -1 -26 -3 -15 -4 rrcurveto
          -82 callgsubr
          176 hlineto
          273 hmoveto
          112 -717 -112 118 vlineto
          3 callgsubr
          -91 -5 -52 -46 -75 80 callsubr
        </CharString>
        <CharString name="dvCH_R">
          111 callgsubr
          -86 67 -53 88 -22 vhcurveto
          -126 -161 27 callsubr
          -136 173 rlineto
          109 40 71 88 121 vvcurveto
          120 -84 66 -114 -22 -32 -3 -5 -18 vhcurveto
          -82 callgsubr
          endchar
        </CharString>
        <CharString name="dvCH_RA">
          62 414 508 rmoveto
          -21 -1 -26 -3 -15 -4 rrcurveto
          -82 callgsubr
          176 hlineto
          273 hmoveto
          112 -717 -112 118 vlineto
          3 callgsubr
          -91 -5 -52 -46 -75 vvcurveto
          -86 67 -53 88 -22 vhcurveto
          -126 -161 27 callsubr
          -136 173 rlineto
          109 40 71 88 121 vvcurveto
          108 callgsubr
        </CharString>
        <CharString name="dvCH_R_YA">
          669 1053 32 callsubr
          -55 -93 -14 -22 -69 vhcurveto
          18 -32 -38 9 -42 hhcurveto
          -22 -32 -3 -5 -18 hvcurveto
          -82 callgsubr
          815 hlineto
          260 -9 callgsubr
          -1343 148 callsubr
          -86 67 -53 88 -22 vhcurveto
          -126 -161 27 callsubr
          -136 173 rlineto
          109 40 71 88 121 vvcurveto
          25 -4 22 -6 20 vhcurveto
          13 52 54 9 35 -3 callsubr
        </CharString>
        <CharString name="dvCH_YA">
          689 1073 32 callsubr
          -59 -101 -15 -25 -70 vhcurveto
          20 -33 -40 11 -46 hhcurveto
          -22 -32 -3 -5 -18 hvcurveto
          -82 callgsubr
          835 hlineto
          260 -9 callgsubr
          -1363 148 callsubr
          -116 123 -57 131 139 callgsubr
          23 -3 20 -6 19 vhcurveto
          16 58 62 11 40 -3 callsubr
        </CharString>
        <CharString name="dvC_CA">
          445 1070 -2 callgsubr
          -1100 -112 860 -236 hlineto
          69 callsubr
          -329 -115 82 vlineto
          -6 -4 -1 1 -1 -2 -21 -16 -17 -25 -5 -36 rlinecurve
          -44 -38 -52 -29 -64 -39 callsubr
          82 68 29 42 49 vhcurveto
          -42 31 54 -29 75 hhcurveto
          96 57 38 39 28 hvcurveto
          -168 -1 callsubr
        </CharString>
        <CharString name="dvC_CHA">
          462 814 508 rmoveto
          -21 -1 -26 -3 -15 -4 rrcurveto
          -82 callgsubr
          176 hlineto
          273 hmoveto
          112 -1117 161 callgsubr
          -29 -17 -47 rrcurveto
          -40 -37 -50 -24 -59 -39 callsubr
          70 60 22 32 47 vhcurveto
          -64 41 93 -32 98 hhcurveto
          139 callgsubr
          69 -28 52 -46 31 hvcurveto
          85 vlineto
          endchar
        </CharString>
        <CharString name="dvC_CH_VA">
          482 834 508 rmoveto
          -21 -1 -26 -3 -15 -4 rrcurveto
          -111 vlineto
          3 11 20 2 18 hhcurveto
          42 36 -27 -57 -89 -72 -56 -107 -87 -47 28 44 30 29 22 53 hvcurveto
          37 118 -37 hlineto
          -48 -24 32 38 33 14 27 28 22 hvcurveto
          196 hlineto
          -3 -598 rmoveto
          -56 -61 -37 -49 -65 -38 33 58 62 41 28 50 vhcurveto
          0 10 vlineto
          40 37 5 9 35 hvcurveto
          276 496 rmoveto
          112 -1137 161 callgsubr
          -28 -17 -48 rrcurveto
          -39 -37 -49 -25 -60 -39 callsubr
          71 60 22 34 47 vhcurveto
          16 -23 22 -18 26 -15 rrcurveto
          -36 -33 -21 -45 -51 vvcurveto
          -134 101 -72 116 60 47 19 36 32 vhcurveto
          -131 137 459 vlineto
          47 46 27 62 75 vvcurveto
          108 callgsubr
        </CharString>
        <CharString name="dvC_MA">
          420 807 -12 callgsubr
          238 -9 callgsubr
          -1075 -112 540 -193 hlineto
          -29 -8 -16 -17 -30 vvcurveto
          -7 1 -8 2 -9 vhcurveto
          -50 -37 -56 -33 -68 -39 callsubr
          95 76 39 53 49 vhcurveto
          20 -44 26 callsubr
        </CharString>
        <CharString name="dvC_NA">
          65 690 -2 callgsubr
          -720 -112 480 -236 hlineto
          69 callsubr
          -359 -115 112 vlineto
          193 callsubr
          -67 42 -62 77 -23 vhcurveto
          -51 -30 132 callgsubr
          157 116 20 12 15 15 11 15 rlinecurve
          -168 -1 callsubr
        </CharString>
        <CharString name="dvC_R">
          195 callgsubr
          39 -221 rmoveto
          -81 -51 -65 -53 -65 hhcurveto
          133 callsubr
          hvcurveto
          214 callsubr
          112 vlineto
          193 callsubr
          -74 56 -66 77 -13 vhcurveto
          -150 -145 rlineto
          184 hlineto
          309 300 rlineto
          endchar
        </CharString>
        <CharString name="dvC_RA">
          65 690 -2 callgsubr
          -720 -112 480 -236 hlineto
          -68 -70 -51 -73 133 callsubr
          vhcurveto
          214 callsubr
          112 vlineto
          193 callsubr
          -68 44 -63 79 -22 vhcurveto
          -150 -145 rlineto
          184 hlineto
          214 212 rlineto
          -167 -1 callsubr
        </CharString>
        <CharString name="dvC_YA">
          469 853 -104 callsubr
          241 -9 callgsubr
          -1124 -112 606 hlineto
          171 callgsubr
          -27 rrcurveto
          -51 -37 -56 -33 -69 -39 callsubr
          101 81 45 59 49 vhcurveto
          -58 47 66 -31 72 -96 callgsubr
        </CharString>
        <CharString name="dvCandrabindu">
          -595 -139 -13 callsubr
          endchar
        </CharString>
        <CharString name="dvD">
          -16 667 -251 52 callsubr
          -529 922 44 callgsubr
        </CharString>
        <CharString name="dvDA">
          -16 -30 671 44 callgsubr
        </CharString>
        <CharString name="dvDA_mvR">
          -114 382 403 rmoveto
          10 -3 9 -3 8 -3 rrcurveto
          165 102 112 -541 -112 299 -55 vlineto
          1 -13 -13 0 -13 hhcurveto
          -114 -70 -47 -77 -70 46 -42 90 -2 hvcurveto
          -91 -2 -56 -41 -79 vvcurveto
          -108 125 -46 130 68 65 21 18 28 vhcurveto
          127 vlineto
          -27 -35 -60 -27 -66 hhcurveto
          -68 -45 12 39 30 28 21 71 hvcurveto
          79 118 -71 hlineto
          -74 -19 21 25 34 45 13 51 22 23 -2 -4 21 hvcurveto
          endchar
        </CharString>
        <CharString name="dvDD">
          -61 194 -65 -17 callsubr
          96 624 225 callgsubr
          -594 226 callgsubr
          -43 -68 hlineto
          41 callgsubr
          hlineto
          endchar
        </CharString>
        <CharString name="dvDDA">
          -61 433 191 callgsubr
          -594 226 callgsubr
          -43 -68 hlineto
          41 callgsubr
          hlineto
          endchar
        </CharString>
        <CharString name="dvDDH">
          -31 266 200 -40 callgsubr
          256 -531 52 callsubr
          endchar
        </CharString>
        <CharString name="dvDDHA">
          -31 266 200 -40 callgsubr
          endchar
        </CharString>
        <CharString name="dvDDH_DDHA">
          39 514 559 rmoveto
          150 112 -694 -112 404 -43 -17 hlineto
          -168 -4 -149 -68 -163 vvcurveto
          -85 52 -69 80 -41 vhcurveto
          -69 -32 -52 -53 -76 vvcurveto
          -142 136 -80 231 callsubr
          114 73 101 83 -64 56 -108 -45 -49 -9 -14 -27 vhcurveto
          -99 vlineto
          12 26 46 10 30 hhcurveto
          36 21 -17 -25 -40 -72 -18 -47 -93 -70 43 65 93 86 21 75 11 hvcurveto
          139 5 105 64 99 82 callgsubr
        </CharString>
        <CharString name="dvDDH_R">
          -27 234 -205 -17 callsubr
          87 764 -4 callgsubr
        </CharString>
        <CharString name="dvDDH_RA">
          -27 464 559 -4 callgsubr
        </CharString>
        <CharString name="dvDDH_VA">
          39 408 -14 157 callgsubr
          49 40 33 64 -2 vhcurveto
          0 8 vlineto
          24 24 2 3 22 hvcurveto
          106 505 rmoveto
          150 112 -694 -112 404 -43 -17 hlineto
          -168 -4 -149 -68 -163 vvcurveto
          -80 47 -67 72 -41 vhcurveto
          -46 -27 -30 -43 -61 88 callgsubr
          387 vlineto
          36 28 21 38 44 82 callgsubr
        </CharString>
        <CharString name="dvDDH_YA">
          573 618 393 rmoveto
          67 29 -10 -31 140 callsubr
          112 -1228 -112 354 -71 vlineto
          -161 -9 -133 -63 -165 vvcurveto
          -135 106 -107 231 callsubr
          84 73 101 50 callgsubr
          -99 vlineto
          11 15 35 11 22 hhcurveto
          36 21 -17 -25 -40 -42 -18 -47 -82 -51 63 65 117 106 6 170 12 hvcurveto
          5 66 65 3 38 hhcurveto
          -154 166 rmoveto
          493 -267 hlineto
          -90 -49 -42 -74 -57 -35 11 45 -16 vhcurveto
          70 24 56 44 71 vvcurveto
          103 -77 45 -138 -41 -76 -1 -4 -56 vhcurveto
          endchar
        </CharString>
        <CharString name="dvDDHxA">
          -31 211 -132 74 callsubr
          55 332 -40 callgsubr
          endchar
        </CharString>
        <CharString name="dvDD_DDA">
          140 callgsubr
          -70 49 -65 112 hvcurveto
          34 37 5 45 hhcurveto
          38 20 -13 -24 -38 -38 -6 -67 -71 -95 25 40 -63 198 callgsubr
          16 -9 23 -9 28 -8 rrcurveto
          -19 -22 -13 -34 -33 vvcurveto
          -78 76 -39 87 vhcurveto
          93 8 rlineto
          37 -2 16 -15 -27 vvcurveto
          -31 -34 -16 -61 -78 -105 23 42 -66 vhcurveto
          -130 vlineto
          -31 65 95 -21 86 hhcurveto
          130 108 59 117 81 -52 59 -127 4 hvcurveto
          -92 -6 rlineto
          -28 2 -10 13 16 vvcurveto
          13 8 14 9 10 vhcurveto
          -1 15 14 -1 15 hhcurveto
          117 121 46 125 78 -56 59 -104 hvcurveto
          -67 -42 -4 -23 hhcurveto
          -30 -10 12 16 24 23 8 33 hvcurveto
          endchar
        </CharString>
        <CharString name="dvDD_DDHA">
          140 callgsubr
          -83 66 -55 107 hvcurveto
          31 32 6 38 hhcurveto
          38 23 -12 -24 -37 -39 -6 -66 -71 -95 25 40 -63 198 callgsubr
          17 -9 24 -10 28 -8 rrcurveto
          -50 -33 -33 -50 -67 vvcurveto
          -135 106 -87 231 callsubr
          84 73 101 50 callgsubr
          -99 vlineto
          11 15 35 11 22 hhcurveto
          36 21 -17 -25 -40 -42 -18 -47 -82 -51 43 65 119 111 1 79 14 hvcurveto
          -1 1 rlineto
          84 18 72 48 92 vvcurveto
          83 -55 58 -116 vhcurveto
          -56 -37 -4 -25 hhcurveto
          -34 -9 12 17 23 26 8 28 hvcurveto
          endchar
        </CharString>
        <CharString name="dvDD_R">
          -56 194 -214 -17 callsubr
          101 773 -21 callgsubr
        </CharString>
        <CharString name="dvDD_RA">
          -56 438 559 -21 callgsubr
        </CharString>
        <CharString name="dvDD_VA">
          -6 375 -23 157 callgsubr
          55 37 24 47 2 vhcurveto
          -1 10 9 0 10 hhcurveto
          23 24 2 4 22 hvcurveto
          113 358 rmoveto
          155 185 callsubr
          -649 -112 378 -43 -98 vlineto
          -92 -99 -39 -109 -76 54 -59 115 hvcurveto
          31 43 5 45 hhcurveto
          38 19 -14 -24 -38 -52 -5 -53 -71 -105 26 39 -63 198 callgsubr
          12 -7 17 -7 19 -6 rrcurveto
          -35 -27 -23 -39 -53 88 callgsubr
          401 vlineto
          22 25 13 33 40 vvcurveto
          75 -50 65 -112 vhcurveto
          -68 -46 -5 -26 hhcurveto
          -30 -10 13 16 26 26 4 30 hvcurveto
          endchar
        </CharString>
        <CharString name="dvDD_YA">
          542 926 292 rmoveto
          -78 -49 -54 -74 -48 -41 16 42 -16 vhcurveto
          77 17 46 50 66 vvcurveto
          99 -71 55 -144 vhcurveto
          -173 54 493 hlineto
          241 -9 callgsubr
          -1197 226 callgsubr
          -53 -68 hlineto
          -92 -99 -43 -109 -87 74 -56 95 -6 hvcurveto
          87 8 rlineto
          37 -2 22 -11 -27 vvcurveto
          -44 -47 -12 -58 -79 -67 25 40 -63 vhcurveto
          55 callgsubr
          115 123 56 119 92 -56 54 -129 4 hvcurveto
          -86 -6 rlineto
          -28 2 -13 12 22 vvcurveto
          28 26 11 25 vhcurveto
          366 hlineto
          74 13 -24 -28 -44 -84 -8 -63 -7 hvcurveto
          -163 20 103 -84 122 hhcurveto
          63 68 30 34 16 hvcurveto
          -100 213 callgsubr
        </CharString>
        <CharString name="dvDDxA">
          -61 245 -56 rmoveto
          -101 callsubr
          188 615 225 callgsubr
          -594 226 callgsubr
          -43 -68 hlineto
          41 callgsubr
          hlineto
          endchar
        </CharString>
        <CharString name="dvDH">
          -173 513 315 rmoveto
          -95 -76 -62 -34 -92 -50 callgsubr
          135 103 56 81 59 vhcurveto
          endchar
        </CharString>
        <CharString name="dvDHA">
          48 673 671 -11 callsubr
          -325 -112 127 hlineto
          92 callgsubr
        </CharString>
        <CharString name="dvDH_MA">
          400 787 377 rmoveto
          -158 182 158 hlineto
          -377 -9 callgsubr
          -112 80 -189 vlineto
          -29 -8 -16 -23 -33 vvcurveto
          -14 4 -16 8 -22 vhcurveto
          -49 -53 -52 -19 -69 -50 callgsubr
          98 81 29 47 59 vhcurveto
          5 -10 rlineto
          119 119 158 -254 92 callsubr
        </CharString>
        <CharString name="dvDH_NA">
          49 674 142 callsubr
          18 44 35 40 16 55 15 callsubr
          -326 -112 128 -6 callgsubr
          -94 -7 -63 -42 -75 vvcurveto
          -86 63 -54 85 -18 vhcurveto
          -40 -24 rlineto
          -43 -25 -16 -31 -33 callsubr
          6 13 13 9 vhcurveto
          150 127 rlineto
          0 vlineto
          12 8 11 10 10 11 rrcurveto
          -146 -1 callsubr
        </CharString>
        <CharString name="dvDH_N_YA">
          419 803 -104 callsubr
          -453 -9 callgsubr
          171 callsubr
          6 -47 12 -41 17 -36 rrcurveto
          -39 -46 -49 -17 -65 hhcurveto
          -52 -40 18 44 35 40 16 55 hvcurveto
          -68 callsubr
          -326 -112 128 -6 callgsubr
          -94 -7 -63 -42 -75 vvcurveto
          -86 63 -54 85 -18 vhcurveto
          -40 -24 rlineto
          -43 -25 -16 -31 -33 callsubr
          6 13 13 9 vhcurveto
          148 125 32 17 29 22 27 23 rlinecurve
          -47 46 59 -24 64 hhcurveto
          135 callsubr
          vlineto
          endchar
        </CharString>
        <CharString name="dvDH_R">
          -143 499 351 rmoveto
          -111 -47 -81 -44 -92 hhcurveto
          -52 -40 16 40 36 36 21 59 hvcurveto
          -68 callsubr
          -331 -112 133 -6 callgsubr
          -101 -4 -56 -51 -71 vvcurveto
          -95 82 -61 93 vhcurveto
          -146 -131 rlineto
          191 hlineto
          330 325 rlineto
          endchar
        </CharString>
        <CharString name="dvDH_RA">
          54 679 142 callsubr
          16 40 36 36 21 29 callsubr
          -331 -112 133 -6 callgsubr
          -101 -4 -56 -51 -71 vvcurveto
          -86 69 -54 81 -16 vhcurveto
          -141 -131 rlineto
          191 hlineto
          194 191 rlineto
          -146 -1 callsubr
        </CharString>
        <CharString name="dvDH_VA">
          428 1053 -2 callgsubr
          -603 -112 361 -268 hlineto
          110 callsubr
          -13 1 -13 2 -11 hvcurveto
          -50 -54 -52 -19 -69 -50 callgsubr
          100 83 31 49 60 vhcurveto
          -42 40 59 -21 63 hhcurveto
          -69 callgsubr
        </CharString>
        <CharString name="dvDH_YA">
          459 843 -104 callsubr
          -413 -9 callgsubr
          -112 136 -49 callsubr
          5 -42 10 -37 14 -32 rrcurveto
          -57 -57 -55 -22 -73 -50 callgsubr
          114 91 40 61 61 vhcurveto
          -42 45 57 -22 61 hhcurveto
          135 callsubr
          vlineto
          endchar
        </CharString>
        <CharString name="dvD_BA">
          20 callsubr
          -110 93 -70 120 63 46 19 32 32 vhcurveto
          113 callgsubr
        </CharString>
        <CharString name="dvD_BHA">
          221 729 383 168 callgsubr
          -876 -112 616 28 callgsubr
          -81 36 -68 64 -38 hvcurveto
          -75 -38 -51 94 rlineto
          47 -26 -33 25 -46 hhcurveto
          -49 -54 -28 -47 -30 hvcurveto
          45 -85 rlineto
          14 9 23 26 26 hhcurveto
          15 11 -8 -16 7 hvcurveto
          47 -87 rlineto
          -12 -11 -7 -13 -15 vvcurveto
          -29 21 -33 110 -69 vhcurveto
          92 49 -53 99 199 103 32 8 32 14 16 24 rlinecurve
          -85 callsubr
          endchar
        </CharString>
        <CharString name="dvD_B_RA">
          20 callsubr
          -88 60 -63 85 -21 vhcurveto
          -119 -109 rlineto
          171 hlineto
          137 135 rlineto
          0 vlineto
          7 5 7 6 6 6 rrcurveto
          113 callgsubr
        </CharString>
        <CharString name="dvD_DA">
          -19 476 559 rmoveto
          130 112 -636 -112 366 -49 hlineto
          2 -20 -19 1 -17 hhcurveto
          -152 -73 -64 -84 -61 45 -52 92 -2 hvcurveto
          -91 -2 -57 -54 -73 vvcurveto
          -94 91 -58 107 59 73 25 37 17 vhcurveto
          -111 140 289 -138 vlineto
          -87 -60 -40 -63 -48 -37 18 34 38 41 23 60 vhcurveto
          42 114 -43 hlineto
          -52 -33 15 32 32 39 15 57 57 66 -12 -17 57 hvcurveto
          endchar
        </CharString>
        <CharString name="dvD_DHA">
          173 314 92 rmoveto
          21 -13 24 -9 26 -4 rrcurveto
          -65 -15 -36 -32 -31 hhcurveto
          -27 -12 17 22 25 15 28 21 19 hvcurveto
          381 303 168 callgsubr
          -828 -112 568 28 callgsubr
          -43 10 -40 20 -33 hvcurveto
          -5 -4 rlineto
          -13 -14 -19 -7 -18 hhcurveto
          -24 -19 12 26 50 27 1 2 84 hvcurveto
          -109 39 rlineto
          -2 -101 -36 -2 -81 vvcurveto
          -76 55 -41 65 11 14 1 3 12 vhcurveto
          -17 -21 -7 -29 -24 vvcurveto
          -67 55 -46 78 95 76 75 130 27 vhcurveto
          29 8 28 14 15 22 rrcurveto
          -85 callsubr
          endchar
        </CharString>
        <CharString name="dvD_GA">
          -11 502 383 rmoveto
          83 callsubr
          -644 -112 389 28 callgsubr
          -87 42 -73 73 -35 hvcurveto
          -89 vlineto
          -21 -8 -21 -32 -25 -20 11 0 vhcurveto
          -100 vlineto
          -11 32 20 -2 29 hhcurveto
          72 60 37 92 hvcurveto
          85 vlineto
          38 5 47 16 21 30 rrcurveto
          -85 callsubr
          endchar
        </CharString>
        <CharString name="dvD_GHA">
          166 288 104 rmoveto
          22 -16 25 -12 29 -7 rrcurveto
          -54 -17 -33 -26 -28 hhcurveto
          -27 -12 17 22 24 15 29 22 19 hvcurveto
          -62 77 rmoveto
          -12 -14 -19 -7 -18 hhcurveto
          -24 -19 12 26 28 26 33 53 7 hvcurveto
          2 -30 7 -28 11 -25 rrcurveto
          447 202 168 callgsubr
          -821 -112 561 -64 -71 vlineto
          -128 -80 -54 -80 -30 hvcurveto
          -106 -5 -106 -60 -111 vvcurveto
          -72 55 -44 65 12 13 1 3 12 vhcurveto
          -17 -22 -6 -28 -24 vvcurveto
          -67 54 -46 78 89 73 66 115 31 vhcurveto
          33 7 37 15 17 26 rrcurveto
          -85 callsubr
          endchar
        </CharString>
        <CharString name="dvD_G_RA">
          40 507 383 rmoveto
          176 158 112 -695 -112 394 28 callgsubr
          -68 25 -56 45 -38 hvcurveto
          -116 vlineto
          -20 -7 -21 -31 -24 -19 11 0 vhcurveto
          -96 vlineto
          -10 31 19 -2 27 hhcurveto
          69 58 35 88 hvcurveto
          79 vlineto
          -3 16 18 -1 18 hhcurveto
          11 11 1 2 11 hvcurveto
          -120 vlineto
          -265 -201 rlineto
          161 hlineto
          104 84 rlineto
          -61 120 358 vlineto
          1 2 50 -135 rlineto
          140 hlineto
          -110 289 rlineto
          -118 hlineto
          -72 -11 -43 -28 -62 hhcurveto
          -62 -40 36 65 63 45 40 71 hvcurveto
          endchar
        </CharString>
        <CharString name="dvD_MA">
          254 641 93 rmoveto
          -137 212 -138 hlineto
          -61 -15 -48 -16 -40 hhcurveto
          -45 -40 25 53 63 45 30 71 hvcurveto
          208 160 139 hlineto
          238 -9 callgsubr
          -909 -112 389 -48 -71 hlineto
          -168 -85 -83 -124 -108 75 -88 121 50 59 23 40 24 hvcurveto
          -85 vlineto
          -29 -8 -16 -23 -33 vvcurveto
          -37 32 -50 33 -64 vhcurveto
          119 99 138 -174 138 763 100 hlineto
          endchar
        </CharString>
        <CharString name="dvD_NA">
          -6 507 383 rmoveto
          83 callsubr
          -649 -112 394 28 callgsubr
          -90 46 -76 78 -32 hvcurveto
          -47 -28 rlineto
          -43 -25 -16 -31 -33 callsubr
          6 13 13 9 vhcurveto
          142 110 rlineto
          0 vlineto
          11 7 9 8 7 10 rrcurveto
          -85 callsubr
          endchar
        </CharString>
        <CharString name="dvD_R">
          -11 552 -296 52 callsubr
          -414 967 28 callsubr
        </CharString>
        <CharString name="dvD_RA">
          -11 -30 671 28 callsubr
        </CharString>
        <CharString name="dvD_VA">
          -7 383 107 callgsubr
          -648 -112 388 28 callgsubr
          -77 33 -66 58 -38 hvcurveto
          90 callgsubr
        </CharString>
        <CharString name="dvD_YA">
          104 489 311 rmoveto
          -104 -99 -51 -101 -42 -61 6 37 38 50 5 50 vhcurveto
          49 118 -50 hlineto
          -44 -40 7 32 24 16 22 56 41 39 -8 -13 36 hvcurveto
          135 100 vlineto
          240 -9 callgsubr
          -759 -112 279 -35 hlineto
          1 -9 -8 0 -9 hhcurveto
          -104 -63 -49 -71 -62 57 -37 79 -2 hvcurveto
          -91 -2 -56 -43 -69 vvcurveto
          -103 100 -48 144 90 70 34 37 40 vhcurveto
          -110 -1 callsubr
        </CharString>
        <CharString name="dvE">
          -18 607 -2 callgsubr
          -637 -37 callsubr
        </CharString>
        <CharString name="dvEcandra">
          -18 398 922 rmoveto
          39 callgsubr
          123 100 69 120 vhcurveto
          73 -251 rmoveto
          -637 -37 callsubr
        </CharString>
        <CharString name="dvEight">
          -2 callsubr
        </CharString>
        <CharString name="dvEyelash">
          -403 6 400 rmoveto
          -116 vlineto
          -15 31 39 -11 54 hhcurveto
          86 69 27 19 35 hvcurveto
          -32 111 rlineto
          -23 -40 -49 -24 -71 hhcurveto
          -61 -38 18 14 -23 hvcurveto
          216 159 rmoveto
          112 -252 -112 vlineto
          endchar
        </CharString>
        <CharString name="dvEyelash_HA">
          148 675 117 callsubr
          -803 -112 565 -48 -144 131 callgsubr
          hvcurveto
          -7 vlineto
          -10 -27 -32 -6 -40 hhcurveto
          -61 -48 18 14 -23 hvcurveto
          -116 vlineto
          -15 31 49 -11 54 hhcurveto
          66 55 14 14 38 hvcurveto
          8 -5 rlineto
          -44 -34 -22 -48 -48 -81 callgsubr
          endchar
        </CharString>
        <CharString name="dvEyelash_YA">
          209 593 -104 callsubr
          241 -9 callgsubr
          -864 -112 346 50 callsubr
          -36 -25 -31 -58 -20 vhcurveto
          0 vlineto
          -13 -41 -44 -7 -41 hhcurveto
          -47 -45 9 20 -38 hvcurveto
          -114 vlineto
          -15 31 39 -11 54 hhcurveto
          31 30 2 5 26 hvcurveto
          -106 44 86 -57 99 -96 callgsubr
        </CharString>
        <CharString name="dvFive">
          -80 215 43 callsubr
        </CharString>
        <CharString name="dvFour">
          -18 178 94 callgsubr
        </CharString>
        <CharString name="dvG">
          -271 354 -2 callgsubr
          -384 -112 153 -198 hlineto
          -99 callsubr
          90 vlineto
          endchar
        </CharString>
        <CharString name="dvGA">
          -10 174 callsubr
          153 -198 vlineto
          -99 callsubr
          111 -559 184 callgsubr
        </CharString>
        <CharString name="dvGH">
          -246 412 261 rmoveto
          -50 -31 -46 -25 -67 hhcurveto
          -52 -40 21 44 41 36 27 59 hvcurveto
          95 callsubr
          158 112 -409 -112 108 105 callgsubr
          -108 99 -60 119 88 65 32 55 45 vhcurveto
          endchar
        </CharString>
        <CharString name="dvGHA">
          43 428 -19 callgsubr
          -698 -112 108 105 callgsubr
          -108 99 -60 119 65 75 21 50 36 vhcurveto
          -140 -1 callsubr
        </CharString>
        <CharString name="dvGH_MA">
          340 727 -12 callgsubr
          -408 177 callgsubr
          209 -193 hlineto
          -29 -8 -16 -17 -30 vvcurveto
          -17 6 -20 11 -27 vhcurveto
          -41 -30 -44 -20 -60 227 callsubr
          694 352 rmoveto
          -995 -112 108 105 callgsubr
          -108 99 -60 119 85 63 30 51 45 vhcurveto
          5 -11 26 callsubr
        </CharString>
        <CharString name="dvGH_NA">
          43 428 -19 callgsubr
          -698 -112 108 105 callgsubr
          -85 61 -55 84 -20 vhcurveto
          -45 -26 132 callgsubr
          160 117 13 9 12 11 9 13 rlinecurve
          -140 -1 callsubr
        </CharString>
        <CharString name="dvGH_R">
          -215 487 365 rmoveto
          -75 -37 -66 -104 -110 hhcurveto
          -52 -40 21 44 41 36 27 59 hvcurveto
          95 callsubr
          183 112 -440 99 callsubr
          334 284 rlineto
          endchar
        </CharString>
        <CharString name="dvGH_RA">
          49 434 -19 callgsubr
          -704 99 callsubr
          204 185 rlineto
          -140 -1 callsubr
        </CharString>
        <CharString name="dvGH_YA">
          409 793 -104 callsubr
          -474 177 callgsubr
          295 27 callgsubr
          5 -40 10 -37 13 -32 rrcurveto
          -56 -34 -53 -25 -62 227 callsubr
          763 352 rmoveto
          -1064 -112 108 105 callgsubr
          -108 99 -60 119 97 74 41 69 52 vhcurveto
          -48 46 60 -25 65 -96 callgsubr
        </CharString>
        <CharString name="dvG_BA">
          377 703 204 rmoveto
          -13 -24 -28 -7 -26 -64 callsubr
          469 325 rmoveto
          -1032 -112 153 -198 hlineto
          -99 callsubr
          496 -268 vlineto
          -71 callgsubr
          -144 -88 -97 -122 156 callsubr
          hvcurveto
          -132 -84 callgsubr
        </CharString>
        <CharString name="dvG_BHA">
          326 713 -2 callgsubr
          -293 -153 145 vlineto
          143 callgsubr
          -434 -112 153 -198 hlineto
          -99 callsubr
          109 vlineto
          35 13 -18 -32 hvcurveto
          -138 vlineto
          -29 -8 -17 -24 -33 vvcurveto
          -22 7 -24 20 -42 vhcurveto
          36 -77 165 callgsubr
        </CharString>
        <CharString name="dvG_BH_YA">
          719 1103 40 callsubr
          -38 30 46 -15 vhcurveto
          68 21 63 57 89 -32 callgsubr
          -443 -9 callgsubr
          75 callgsubr
          145 hlineto
          143 callgsubr
          -434 -112 153 -198 hlineto
          -99 callsubr
          109 vlineto
          35 13 -18 -32 hvcurveto
          -138 61 callsubr
          57 hlineto
          33 40 1 4 37 hvcurveto
          -107 41 88 -59 100 hhcurveto
          135 callsubr
          vlineto
          endchar
        </CharString>
        <CharString name="dvG_DA">
          314 827 383 rmoveto
          83 callsubr
          -969 -112 153 -198 vlineto
          -99 callsubr
          420 28 callgsubr
          137 callgsubr
          hvcurveto
          -85 callsubr
          endchar
        </CharString>
        <CharString name="dvG_DHA">
          368 993 671 -11 callsubr
          -645 -112 153 -198 hlineto
          -99 callsubr
          153 vlineto
          92 callgsubr
        </CharString>
        <CharString name="dvG_DH_VA">
          748 1373 -2 callgsubr
          -613 -112 371 -268 hlineto
          110 callsubr
          -19 2 -17 4 -16 hvcurveto
          -39 -48 -48 -15 -62 hhcurveto
          -60 -42 151 callsubr
          17 59 hvcurveto
          -68 callsubr
          -665 -112 153 -198 hlineto
          -99 callsubr
          173 vlineto
          -18 callgsubr
          94 79 27 44 59 vhcurveto
          -36 39 55 -18 59 hhcurveto
          -69 callgsubr
        </CharString>
        <CharString name="dvG_DH_YA">
          769 1153 -4 callsubr
          6 -50 13 -44 19 -37 rrcurveto
          -42 -50 -49 -17 -65 hhcurveto
          -60 -42 151 callsubr
          17 59 hvcurveto
          -68 callsubr
          -665 -112 153 -198 hlineto
          -99 callsubr
          173 vlineto
          -18 callgsubr
          105 86 34 54 61 vhcurveto
          -34 42 51 -17 54 hhcurveto
          135 callsubr
          vlineto
          endchar
        </CharString>
        <CharString name="dvG_GA">
          310 935 -2 callgsubr
          -965 -112 153 -198 hlineto
          -99 callsubr
          179 -198 vlineto
          -99 callsubr
          111 -559 -1 callsubr
        </CharString>
        <CharString name="dvG_GHA">
          373 758 -19 callgsubr
          -1028 -112 153 -198 hlineto
          -99 callsubr
          144 vlineto
          -20 callgsubr
          -108 99 -60 119 65 75 21 50 36 vhcurveto
          -140 -1 callsubr
        </CharString>
        <CharString name="dvG_JA">
          383 1009 -2 callgsubr
          -1039 -112 153 -198 hlineto
          -99 callsubr
          502 -96 -359 -115 vlineto
          -102 callsubr
          141 -348 93 callgsubr
        </CharString>
        <CharString name="dvG_LA">
          496 1121 -2 callgsubr
          -1151 -112 153 -198 hlineto
          -99 callsubr
          614 -73 vlineto
          1 -8 -9 1 -8 hhcurveto
          -75 -59 -28 -69 -20 hvcurveto
          47 -11 -48 42 -85 hhcurveto
          -122 -69 -85 -129 -160 108 -105 172 -68 callgsubr
        </CharString>
        <CharString name="dvG_MA">
          310 697 -12 callgsubr
          238 -9 callgsubr
          -965 -112 153 -198 hlineto
          -99 callsubr
          136 -193 vlineto
          131 callsubr
          hlineto
          endchar
        </CharString>
        <CharString name="dvG_NA">
          -10 174 callsubr
          153 -198 vlineto
          -99 callsubr
          111 -313 vlineto
          -231 -143 rlineto
          -42 -26 -17 -30 -33 callsubr
          6 14 13 8 vhcurveto
          128 82 rlineto
          -113 184 callgsubr
        </CharString>
        <CharString name="dvG_NNA">
          513 641 342 -54 callgsubr
          497 -9 callgsubr
          -1168 -112 153 -198 hlineto
          -99 callsubr
          120 126 callsubr
        </CharString>
        <CharString name="dvG_N_YA">
          699 1083 -104 callsubr
          241 -9 callgsubr
          -1354 -112 153 -198 hlineto
          -99 callsubr
          542 79 callgsubr
          -33 -21 -28 -48 -21 vhcurveto
          19 -33 -56 21 -84 hhcurveto
          -113 -99 callgsubr
          61 hlineto
          51 27 -11 -9 12 hvcurveto
          -129 38 95 -71 110 -96 callgsubr
        </CharString>
        <CharString name="dvG_R">
          43 callgsubr
          endchar
        </CharString>
        <CharString name="dvG_RA">
          5 -30 671 37 callgsubr
        </CharString>
        <CharString name="dvG_R_YA">
          429 813 -104 callsubr
          241 -9 callgsubr
          -1084 -112 168 -198 hlineto
          -99 callsubr
          257 -49 callsubr
          2 -18 3 -18 4 -16 -389 -344 rcurveline
          189 hlineto
          256 223 rlineto
          -63 48 69 -34 75 -96 callgsubr
        </CharString>
        <CharString name="dvG_SA">
          437 652 167 callgsubr
          148 -205 vlineto
          241 317 rmoveto
          -1092 -112 153 -198 hlineto
          -99 callsubr
          269 -115 vlineto
          -45 -27 -32 -65 vhcurveto
          -71 -98 hlineto
          -22 callgsubr
        </CharString>
        <CharString name="dvG_VA">
          338 963 -2 callgsubr
          -993 -112 153 -198 hlineto
          -99 callsubr
          457 51 callsubr
        </CharString>
        <CharString name="dvG_YA">
          389 773 -104 callsubr
          241 -9 callgsubr
          -1044 -112 153 -198 hlineto
          -99 callsubr
          232 19 callsubr
        </CharString>
        <CharString name="dvGx">
          -273 165 94 rmoveto
          -101 callsubr
          187 577 rmoveto
          -382 -112 153 -198 hlineto
          -99 callsubr
          88 vlineto
          endchar
        </CharString>
        <CharString name="dvGxA">
          -10 165 94 rmoveto
          -101 callsubr
          -195 577 rmoveto
          -112 153 -198 vlineto
          -99 callsubr
          111 -559 184 callgsubr
        </CharString>
        <CharString name="dvGx_R">
          43 callgsubr
          -100 -213 rmoveto
          -101 callsubr
          endchar
        </CharString>
        <CharString name="dvGx_RA">
          5 315 -56 rmoveto
          -101 callsubr
          -345 727 37 callgsubr
        </CharString>
        <CharString name="dvH">
          -44 244 -109 -17 callsubr
          -417 780 rmoveto
          -112 373 -48 -144 131 callgsubr
          -63 46 -33 24 -14 hvcurveto
          -44 -34 -22 -48 -48 -81 callgsubr
          255 158 98 112 hlineto
          endchar
        </CharString>
        <CharString name="dvHA">
          -44 143 callsubr
          -63 46 -33 24 -14 hvcurveto
          -44 -34 -22 -48 -48 -81 callgsubr
          endchar
        </CharString>
        <CharString name="dvHA_mU">
          -47 143 callsubr
          -61 43 -33 26 -15 hvcurveto
          -44 -35 -21 -48 -48 vvcurveto
          -150 126 -41 96 8 7 0 1 8 vhcurveto
          8 8 20 9 16 hhcurveto
          35 19 -22 -26 -28 -20 -24 -56 -59 -100 38 35 -59 hvcurveto
          -136 vlineto
          -33 63 85 -19 75 hhcurveto
          142 64 79 99 76 -58 73 -119 -22 -36 -10 -8 -14 hvcurveto
          -57 -30 26 52 40 35 34 70 45 26 -17 -30 -9 -2 -11 -6 -12 hvcurveto
          138 hlineto
          5 14 2 13 14 vvcurveto
          82 -68 71 -135 -32 -29 -3 -6 -26 vhcurveto
          -15 13 -8 16 15 145 callsubr
        </CharString>
        <CharString name="dvHA_mUU">
          -44 143 callsubr
          -63 46 -33 24 -14 hvcurveto
          -44 -34 -22 -48 -48 vvcurveto
          -56 29 -58 64 -31 vhcurveto
          -18 -25 -10 -30 -31 vvcurveto
          217 callgsubr
          106 vlineto
          229 callsubr
          27 20 15 31 94 47 -93 -104 1 hvcurveto
          131 hlineto
          152 -1 -68 157 -205 hhcurveto
          -76 5 -30 34 41 vvcurveto
          40 35 29 70 46 27 -20 -24 -9 0 -22 -10 -19 vhcurveto
          138 hlineto
          9 20 0 24 14 vvcurveto
          86 -83 65 -122 -30 -28 -3 -5 -24 vhcurveto
          -18 14 -10 17 17 145 callsubr
        </CharString>
        <CharString name="dvHA_mvR">
          -13 487 151 callgsubr
          125 112 -642 -112 377 -48 -134 131 callgsubr
          -68 54 -34 22 -11 hvcurveto
          -64 -46 -28 -68 -72 -9 callsubr
          79 58 61 79 24 7 -11 -12 hvcurveto
          -26 -63 -49 -48 vvcurveto
          -68 68 -29 64 57 53 12 18 31 vhcurveto
          101 vlineto
          -16 -21 -50 -16 -36 hhcurveto
          -20 -18 2 17 hvcurveto
          32 68 50 54 vvcurveto
          62 -58 37 -87 -38 -35 -4 -7 -30 vhcurveto
          -21 15 -11 18 18 145 callsubr
        </CharString>
        <CharString name="dvH_LA">
          99 591 151 callgsubr
          134 112 -755 -112 481 -48 -234 131 callgsubr
          -71 59 -33 20 -10 hvcurveto
          -70 -55 -27 -80 -80 vvcurveto
          -219 169 -106 191 26 33 1 4 19 vhcurveto
          104 vlineto
          -4 -16 -26 0 -27 hhcurveto
          -144 -85 96 115 108 64 70 130 62 43 -14 -30 26 hvcurveto
          -43 -33 -18 -39 -12 hvcurveto
          27 -6 -28 26 -50 hhcurveto
          -72 -41 -51 -76 -94 63 -61 102 11 15 1 1 8 hvcurveto
          68 vlineto
          -2 -5 -8 0 -9 hhcurveto
          -61 -31 33 53 36 14 19 21 22 11 -17 -29 hvcurveto
          -40 90 37 vlineto
          39 14 19 35 8 7 -1 -1 8 vhcurveto
          1 -11 1 -13 -13 vvcurveto
          -60 -17 -64 -18 -41 vhcurveto
          126 hlineto
          21 44 15 70 66 vvcurveto
          139 -105 110 -185 -55 -46 -7 -12 -40 vhcurveto
          -19 15 -10 17 17 145 callsubr
        </CharString>
        <CharString name="dvH_MA">
          266 653 182 rmoveto
          -143 11 hlineto
          84 -79 57 -108 -27 -24 -2 -5 -23 vhcurveto
          -18 14 -9 16 96 callsubr
          235 158 159 229 callgsubr
          384 -48 -124 hlineto
          -87 -67 -40 -80 -62 44 -33 25 -14 hvcurveto
          -57 -43 -29 -66 -77 vvcurveto
          -201 153 -100 196 200 callgsubr
          -26 hhcurveto
          -124 -93 66 107 82 40 58 77 39 20 -15 -24 hvcurveto
          -5 vlineto
          -27 -7 -16 -22 -31 vvcurveto
          -30 30 -52 32 -61 vhcurveto
          113 81 143 -169 138 669 100 hlineto
          endchar
        </CharString>
        <CharString name="dvH_NA">
          84 587 151 callgsubr
          122 112 -739 -112 477 -48 -234 131 callgsubr
          -76 67 -33 16 -7 hvcurveto
          -69 -45 -30 -68 -70 -9 callsubr
          82 66 55 113 23 21 -2 -5 19 hvcurveto
          -91 -43 rlineto
          -41 -19 -19 -26 -31 vvcurveto
          -51 57 -56 26 -20 vhcurveto
          87 41 rlineto
          -26 36 -13 27 13 vvcurveto
          11 7 6 11 5 vhcurveto
          91 43 rlineto
          8 -17 5 -20 -23 46 callsubr
          -50 -44 -5 -10 -38 vhcurveto
          -25 16 -13 19 20 145 callsubr
        </CharString>
        <CharString name="dvH_NNA">
          107 412 116 rmoveto
          -30 -8 -11 -23 -22 -11 11 30 vhcurveto
          104 vlineto
          1 10 11 0 11 hhcurveto
          11 11 0 -1 10 hvcurveto
          192 181 rmoveto
          158 128 112 -762 206 callsubr
          -76 67 -33 16 -7 hvcurveto
          -69 -45 -30 -68 -70 -9 callsubr
          49 15 40 42 23 hvcurveto
          -78 vlineto
          -80 43 -40 78 76 47 41 81 vhcurveto
          72 vlineto
          29 -21 14 -33 -48 46 callsubr
          -50 -44 -5 -10 -38 vhcurveto
          -25 16 -13 19 20 145 callsubr
        </CharString>
        <CharString name="dvH_R">
          102 314 -257 -17 callsubr
          147 658 -28 callgsubr
        </CharString>
        <CharString name="dvH_RA">
          102 604 401 -28 callgsubr
        </CharString>
        <CharString name="dvH_VA">
          97 599 151 callgsubr
          123 112 -752 -112 489 -48 -234 131 callgsubr
          -77 69 -33 14 -6 hvcurveto
          -75 -51 -34 -78 -74 vvcurveto
          -201 163 -116 200 27 28 2 5 28 vhcurveto
          104 vlineto
          -3 -21 -21 -2 -21 hhcurveto
          -121 -121 52 140 97 69 71 110 111 45 -55 -86 7 hvcurveto
          0 vlineto
          -41 -15 -39 -21 -38 hhcurveto
          -33 -18 14 27 26 20 13 21 11 13 -3 -4 9 hvcurveto
          82 vlineto
          5 -13 -23 4 -19 hhcurveto
          -82 -64 -50 -76 -80 63 -49 79 45 41 13 28 32 hvcurveto
          -4 -19 -6 -18 -6 -16 rrcurveto
          129 hlineto
          16 40 12 68 47 vvcurveto
          145 -96 119 -186 -46 -41 -5 -10 -36 vhcurveto
          -24 16 -13 19 20 145 callsubr
        </CharString>
        <CharString name="dvH_YA">
          266 653 192 rmoveto
          -84 -59 -49 -69 -31 -28 11 19 -16 vhcurveto
          52 18 41 41 57 vvcurveto
          99 -94 40 -107 -35 -33 -4 -9 -30 vhcurveto
          -15 13 -7 15 15 63 callsubr
          255 158 139 229 callgsubr
          404 -48 -144 hlineto
          -87 -67 -40 -80 -61 43 -33 25 -14 hvcurveto
          -53 -42 -32 -61 -74 vvcurveto
          -201 179 -110 170 200 callgsubr
          -7 hhcurveto
          -116 -120 72 111 92 55 47 98 33 22 -15 -21 -35 -49 -21 -65 -14 hvcurveto
          -130 22 103 -48 83 hhcurveto
          66 54 19 39 29 hvcurveto
          -118 138 669 100 vlineto
          endchar
        </CharString>
        <CharString name="dvI">
          -66 454 559 rmoveto
          105 112 -589 -112 344 -45 -56 42 callsubr
          202 84 callgsubr
          hlineto
          endchar
        </CharString>
        <CharString name="dvII">
          -66 444 559 rmoveto
          115 112 -142 hlineto
          -11 17 -19 34 33 vvcurveto
          31 21 27 37 39 40 -13 -18 25 vhcurveto
          130 208 callgsubr
          -47 19 -33 12 -17 hvcurveto
          -304 -112 334 -45 -46 42 callsubr
          192 84 callgsubr
          hlineto
          endchar
        </CharString>
        <CharString name="dvII_Anusvara">
          -66 567 982 rmoveto
          205 callsubr
          -64 22 -47 30 -39 hvcurveto
          -322 -112 354 -43 -75 hlineto
          -92 -99 -43 -109 -87 74 -60 95 -6 hvcurveto
          91 6 rlineto
          29 -5 13 -21 -23 vvcurveto
          -42 -33 -24 -38 -52 -40 34 45 -17 vhcurveto
          -130 -252 140 95 hlineto
          -17 32 39 -10 43 hhcurveto
          115 80 67 102 94 -56 61 -111 8 hvcurveto
          -90 -4 rlineto
          -28 2 -13 16 22 vvcurveto
          28 26 11 25 vhcurveto
          212 84 callgsubr
          152 95 112 -127 hlineto
          -17 19 -30 40 53 vvcurveto
          55 46 40 52 180 callgsubr
          vhcurveto
          -136 -79 rmoveto
          18 callgsubr
          -32 -25 -25 -32 vhcurveto
          endchar
        </CharString>
        <CharString name="dvJ">
          -175 211 callgsubr
          125 -96 rmoveto
          -488 -115 hlineto
          -102 callsubr
          270 hlineto
          endchar
        </CharString>
        <CharString name="dvJA">
          63 174 callsubr
          476 -96 -359 -115 vlineto
          -102 callsubr
          141 -348 142 559 101 112 hlineto
          endchar
        </CharString>
        <CharString name="dvJH">
          -66 686 336 rmoveto
          -407 0 -14 hlineto
          39 callsubr
          105 112 -589 -41 callgsubr
          21 -2 20 -6 17 hvcurveto
          203 hlineto
          endchar
        </CharString>
        <CharString name="dvJHA">
          186 279 336 rmoveto
          0 -14 vlineto
          39 callsubr
          115 -223 hlineto
          242 335 rmoveto
          -841 -41 callgsubr
          21 -2 20 -6 17 hvcurveto
          86 -229 66 callgsubr
          hlineto
          endchar
        </CharString>
        <CharString name="dvJH_MA">
          550 937 -12 callgsubr
          -483 -157 rmoveto
          -1 3 rlineto
          1 154 186 -193 hlineto
          -20 -5 -13 -10 -7 -15 rrcurveto
          -321 0 -14 hlineto
          -39 -25 6 26 28 26 6 37 hvcurveto
          911 269 rmoveto
          -1205 -41 callgsubr
          21 -2 20 -6 17 hvcurveto
          137 hlineto
          4 -10 166 callgsubr
        </CharString>
        <CharString name="dvJH_NA">
          311 283 345 rmoveto
          -43 -19 9 21 23 21 9 42 hvcurveto
          216 152 194 -214 hlineto
          242 326 rmoveto
          -966 -112 390 -43 -82 hlineto
          -109 -91 -37 -111 -110 104 -32 101 47 40 -8 -46 -36 -27 -17 -40 -46 -44 33 224 callgsubr
          -242 140 87 hlineto
          -20 34 41 -12 46 hhcurveto
          113 75 65 101 21 -2 20 -6 17 hvcurveto
          193 -33 hlineto
          -208 -184 rlineto
          -35 -31 -14 -32 -30 vvcurveto
          -50 41 -46 53 -26 vhcurveto
          76 46 rlineto
          -23 23 -16 21 21 vvcurveto
          12 5 11 12 13 vhcurveto
          109 116 rlineto
          -69 -84 callgsubr
        </CharString>
        <CharString name="dvJH_R">
          33 729 264 rmoveto
          72 -463 vlineto
          -39 -25 6 26 28 26 8 37 hvcurveto
          200 155 193 112 -688 45 callsubr
          207 hlineto
          -380 -347 rlineto
          188 hlineto
          306 289 rlineto
          endchar
        </CharString>
        <CharString name="dvJH_RA">
          286 266 336 rmoveto
          -39 -25 6 26 28 26 8 37 hvcurveto
          200 155 204 -223 hlineto
          242 335 rmoveto
          -941 45 callsubr
          185 -21 hlineto
          -358 -326 rlineto
          188 hlineto
          170 178 rlineto
          -60 -84 callgsubr
        </CharString>
        <CharString name="dvJH_YA">
          599 973 157 callsubr
          20 46 -14 vhcurveto
          76 25 55 76 74 vvcurveto
          29 -6 35 -15 24 vhcurveto
          130 hlineto
          -694 -223 rmoveto
          0 -14 vlineto
          39 callsubr
          242 hlineto
          17 -16 12 -26 -29 vvcurveto
          -108 -150 -44 -199 vhcurveto
          838 335 rmoveto
          -1244 -41 callgsubr
          22 -3 20 -5 18 hvcurveto
          45 2 40 5 35 8 rrcurveto
          -93 46 83 -47 94 -96 callgsubr
        </CharString>
        <CharString name="dvJ_BA">
          467 793 204 rmoveto
          -13 -24 -28 -7 -26 -64 callsubr
          469 325 rmoveto
          -1122 -112 880 103 callsubr
          -62 -51 -18 -30 -39 hvcurveto
          -458 -115 hlineto
          -102 callsubr
          167 hlineto
          -5 -18 -2 -19 -19 vvcurveto
          156 callsubr
          vhcurveto
          -132 -84 callgsubr
        </CharString>
        <CharString name="dvJ_DA">
          404 917 383 rmoveto
          83 callsubr
          -1059 -112 804 -64 -71 vlineto
          -59 -49 -12 -20 -39 hvcurveto
          -469 -115 hlineto
          -102 callsubr
          155 hlineto
          -7 -22 -3 -23 -25 vvcurveto
          137 callgsubr
          vhcurveto
          -85 callsubr
          endchar
        </CharString>
        <CharString name="dvJ_DDA">
          419 913 191 callgsubr
          -1074 -112 803 -43 -68 hlineto
          -56 -58 -16 -37 -37 hvcurveto
          -467 -115 hlineto
          -102 callsubr
          210 hlineto
          -108 8 107 -29 93 hhcurveto
          -88 callgsubr
          hlineto
          endchar
        </CharString>
        <CharString name="dvJ_JA">
          463 1089 -2 callgsubr
          -1119 -112 876 -96 -759 -115 hlineto
          -102 callsubr
          182 73 callsubr
        </CharString>
        <CharString name="dvJ_JHA">
          636 729 336 rmoveto
          0 -14 vlineto
          39 callsubr
          115 -223 hlineto
          242 335 rmoveto
          -1291 -112 794 -45 -56 hlineto
          -65 -58 -15 -36 -37 hvcurveto
          -461 -115 hlineto
          -102 callsubr
          203 hlineto
          -106 7 97 -25 103 hhcurveto
          98 callgsubr
          -46 -42 31 224 callgsubr
          -238 69 callgsubr
          21 -2 20 -6 17 hvcurveto
          86 -229 66 callgsubr
          hlineto
          endchar
        </CharString>
        <CharString name="dvJ_J_NYA">
          626 1251 -2 callgsubr
          -1281 -112 1039 -53 -315 hlineto
          -53 -55 -12 -31 -38 hvcurveto
          -461 -115 hlineto
          -102 callsubr
          198 hlineto
          -85 7 70 -42 126 hhcurveto
          67 27 -18 5 callsubr
          57 191 callsubr
          8 192 callgsubr
          306 -394 66 callgsubr
          hlineto
          endchar
        </CharString>
        <CharString name="dvJ_J_VA">
          828 1453 -2 callgsubr
          -1483 -112 1241 -268 hlineto
          -103 callsubr
          -56 -47 -15 -27 -36 hvcurveto
          -852 -115 hlineto
          -102 callsubr
          192 hlineto
          -102 callsubr
          147 hlineto
          -5 -18 -2 -19 -19 -58 callgsubr
        </CharString>
        <CharString name="dvJ_J_YA">
          861 1245 31 callsubr
          -61 -39 23 53 -22 vhcurveto
          102 callsubr
          hlineto
          241 -9 callgsubr
          -1516 -112 998 68 callgsubr
          -650 -115 hlineto
          -102 callsubr
          189 hlineto
          92 -2 44 -36 -53 vvcurveto
          190 callgsubr
          vhcurveto
          114 callsubr
          -44 28 hvcurveto
          27 hlineto
          197 -78 -242 248 -96 callgsubr
        </CharString>
        <CharString name="dvJ_KA">
          634 1259 139 callsubr
          -1289 -112 783 -276 vlineto
          -56 -34 -37 -46 -56 -26 43 44 49 29 40 57 5 5 0 -1 6 vhcurveto
          113 vlineto
          -62 callsubr
          -35 -32 -6 -11 -28 hvcurveto
          1 -488 -115 vlineto
          -102 callsubr
          156 hlineto
          -8 -22 -4 -24 -27 vvcurveto
          -113 77 -84 121 45 35 15 23 26 vhcurveto
          -85 callgsubr
        </CharString>
        <CharString name="dvJ_MA">
          440 827 -12 callgsubr
          238 -9 callgsubr
          -1095 -112 560 -96 -443 -115 hlineto
          -102 callsubr
          193 hlineto
          -9 -9 -4 -12 -16 -29 callgsubr
          hlineto
          endchar
        </CharString>
        <CharString name="dvJ_NA">
          63 174 callsubr
          476 -96 -359 -115 vlineto
          97 46 -36 -45 -56 -38 -16 -61 68 callsubr
          101 47 -20 36 -40 25 hvcurveto
          143 -185 hlineto
          -212 -119 rlineto
          -42 -26 -17 -30 -33 callsubr
          6 14 13 8 vhcurveto
          109 70 rlineto
          -42 -25 callsubr
        </CharString>
        <CharString name="dvJ_NY">
          -50 575 -2 callgsubr
          -605 -112 605 hlineto
          121 -175 rmoveto
          112 -442 vlineto
          -92 -99 -36 -109 -94 71 -41 132 67 27 -13 5 callsubr
          52 191 callsubr
          3 192 callgsubr
          endchar
        </CharString>
        <CharString name="dvJ_NYA">
          163 174 callsubr
          599 -53 -315 vlineto
          -92 -99 -36 -109 -94 71 -46 132 67 27 -18 5 callsubr
          57 191 callsubr
          8 192 callgsubr
          306 -394 185 callgsubr
        </CharString>
        <CharString name="dvJ_NY_YA">
          569 953 31 callsubr
          -66 -37 25 48 -21 vhcurveto
          73 23 65 53 70 callgsubr
          241 -9 callgsubr
          -1224 -112 706 50 callsubr
          -32 -20 -23 -34 -20 vhcurveto
          59 -47 -78 32 -113 hhcurveto
          -159 hlineto
          -92 -99 -36 -109 -94 71 -41 132 67 27 -13 5 callsubr
          52 191 callsubr
          3 192 callgsubr
          137 hlineto
          248 -106 -278 264 -96 callgsubr
        </CharString>
        <CharString name="dvJ_R">
          202 callgsubr
          -431 -659 rmoveto
          179 hlineto
          351 304 -78 84 rlineto
          -452 175 rmoveto
          -14 callgsubr
          315 115 hlineto
          endchar
        </CharString>
        <CharString name="dvJ_RA">
          63 174 callsubr
          476 -96 -359 -14 callgsubr
          140 -140 hlineto
          -359 -308 rlineto
          179 hlineto
          180 156 rlineto
          -56 -25 callsubr
        </CharString>
        <CharString name="dvJ_TA">
          443 1068 -2 callgsubr
          -1098 -112 856 -85 -74 hlineto
          -6 0 -659 -115 hlineto
          -102 callsubr
          198 hlineto
          -19 -34 -9 -39 -44 vvcurveto
          -77 callgsubr
        </CharString>
        <CharString name="dvJ_TTA">
          345 873 559 rmoveto
          97 112 -1000 -112 763 -83 -10 hlineto
          -33 -1 -29 -4 -27 -8 rrcurveto
          -547 -115 hlineto
          -102 callsubr
          182 hlineto
          -15 -30 -8 -33 -35 -54 callsubr
        </CharString>
        <CharString name="dvJ_VA">
          438 1063 -2 callgsubr
          -1093 -112 851 -268 hlineto
          -103 callsubr
          -56 -47 -15 -27 -36 hvcurveto
          -462 -115 hlineto
          -102 callsubr
          167 hlineto
          -5 -18 -2 -19 -19 -58 callgsubr
        </CharString>
        <CharString name="dvJ_YA">
          441 -30 559 -31 callgsubr
        </CharString>
        <CharString name="dvJx">
          -153 211 callgsubr
          -277 -565 rmoveto
          -101 callsubr
          402 469 rmoveto
          -488 -115 hlineto
          -102 callsubr
          270 hlineto
          endchar
        </CharString>
        <CharString name="dvJxA">
          63 173 -6 rmoveto
          -101 callsubr
          -203 677 rmoveto
          -112 476 -96 -359 -115 vlineto
          -102 callsubr
          141 -348 142 559 101 112 hlineto
          endchar
        </CharString>
        <CharString name="dvJx_JxA">
          464 173 -6 rmoveto
          -101 callsubr
          400 hmoveto
          -101 callsubr
          516 677 rmoveto
          -1119 -112 876 -96 -759 -115 hlineto
          -102 callsubr
          182 73 callsubr
        </CharString>
        <CharString name="dvJx_R">
          202 callgsubr
          7 -555 rmoveto
          -101 callsubr
          -438 -104 rmoveto
          179 hlineto
          351 304 -78 84 rlineto
          -452 175 rmoveto
          -14 callgsubr
          315 115 hlineto
          endchar
        </CharString>
        <CharString name="dvJx_RA">
          63 422 -56 rmoveto
          -101 callsubr
          -452 727 rmoveto
          -112 476 -96 -359 -14 callgsubr
          140 -140 hlineto
          -359 -308 rlineto
          179 hlineto
          180 156 rlineto
          -56 -25 callsubr
        </CharString>
        <CharString name="dvJx_YA">
          441 97 -82 74 callsubr
          -127 641 -31 callgsubr
        </CharString>
        <CharString name="dvK">
          -49 475 559 rmoveto
          101 112 -606 -102 callgsubr
          43 26 -25 -32 9 vhcurveto
          101 103 rlineto
          41 -34 -53 25 -66 79 callsubr
          endchar
        </CharString>
        <CharString name="dvKA">
          214 839 139 callsubr
          -869 -112 363 -10 callgsubr
        </CharString>
        <CharString name="dvKH">
          33 544 312 rmoveto
          -93 callsubr
          122 340 216 callgsubr
          208 -92 vlineto
          -60 callgsubr
          180 159 108 175 105 -71 99 -146 -58 callsubr
          endchar
        </CharString>
        <CharString name="dvKHA">
          246 871 -2 callgsubr
          -901 -112 233 -116 hlineto
          -45 -27 -32 -65 vhcurveto
          -76 -110 hlineto
          -76 callgsubr
        </CharString>
        <CharString name="dvKH_KHA">
          821 1204 22 callgsubr
          -436 -92 rmoveto
          -40 -11 -21 -27 -7 vhcurveto
          62 -32 -64 45 176 callgsubr
          94 vlineto
          -93 callsubr
          122 450 vlineto
          678 -9 callgsubr
          -1476 125 callgsubr
          hlineto
          -60 callgsubr
          123 113 50 88 59 hvcurveto
          -86 68 94 -52 121 hhcurveto
          80 76 26 46 57 hvcurveto
          -91 -84 callgsubr
        </CharString>
        <CharString name="dvKH_MA">
          640 1027 373 -39 callgsubr
        </CharString>
        <CharString name="dvKH_NA">
          231 614 22 callgsubr
          242 112 rmoveto
          -886 125 callgsubr
          hlineto
          -51 -18 -20 -46 vhcurveto
          -69 -110 hlineto
          45 -114 74 -87 100 -40 -77 -27 rcurveline
          -59 -16 -21 -34 -40 vvcurveto
          -49 33 -56 39 -35 vhcurveto
          91 29 rlineto
          -15 30 -13 29 21 vvcurveto
          18 9 12 18 7 vhcurveto
          264 110 rlineto
          0 vlineto
          30 12 27 16 24 19 rrcurveto
          -91 -84 callgsubr
        </CharString>
        <CharString name="dvKH_R">
          2 540 322 -15 callgsubr
        </CharString>
        <CharString name="dvKH_RA">
          227 610 488 -36 callgsubr
          -882 -112 204 -86 hlineto
          -51 -14 -16 -46 vhcurveto
          -69 -110 hlineto
          35 callsubr
        </CharString>
        <CharString name="dvKH_SHA">
          805 890 439 -55 callsubr
        </CharString>
        <CharString name="dvKH_TA">
          603 986 474 -43 callsubr
        </CharString>
        <CharString name="dvKH_VA">
          598 981 291 rmoveto
          -103 callsubr
          -64 -54 -21 -34 -38 hvcurveto
          34 -36 -52 22 -69 hhcurveto
          -58 callsubr
          94 vlineto
          -93 callsubr
          122 663 64 callgsubr
          -1253 125 callgsubr
          hlineto
          -60 callgsubr
          113 105 42 75 62 hvcurveto
          -33 39 53 -17 57 hhcurveto
          -69 callgsubr
        </CharString>
        <CharString name="dvKH_YA">
          639 1023 53 callsubr
          -247 rmoveto
          -93 callsubr
          122 428 79 callgsubr
          -28 -15 -25 -35 -20 vhcurveto
          58 -33 -63 41 -94 hhcurveto
          -58 callsubr
          720 453 rmoveto
          -1294 125 callgsubr
          hlineto
          -60 callgsubr
          128 117 55 94 58 hvcurveto
          -41 44 56 -21 60 -96 callgsubr
        </CharString>
        <CharString name="dvKHx">
          35 105 34 rmoveto
          -101 callsubr
          439 278 rmoveto
          -93 callsubr
          122 340 216 callgsubr
          208 -92 vlineto
          -60 callgsubr
          180 159 108 175 105 -71 99 -146 -58 callsubr
          endchar
        </CharString>
        <CharString name="dvKHxA">
          246 95 14 rmoveto
          -101 callsubr
          776 657 rmoveto
          -901 -112 233 -116 hlineto
          -45 -27 -32 -65 vhcurveto
          -76 -110 hlineto
          -76 callgsubr
        </CharString>
        <CharString name="dvKHx_MA">
          640 105 34 rmoveto
          -101 callsubr
          922 339 -39 callgsubr
        </CharString>
        <CharString name="dvKHx_R">
          2 575 -36 rmoveto
          -101 callsubr
          -35 358 -15 callgsubr
        </CharString>
        <CharString name="dvKHx_RA">
          227 535 -56 rmoveto
          -101 callsubr
          75 544 -36 callgsubr
          -882 -112 204 -86 hlineto
          -51 -14 -16 -46 vhcurveto
          -69 -110 hlineto
          35 callsubr
        </CharString>
        <CharString name="dvKHx_SA">
          727 105 34 rmoveto
          -101 callsubr
          837 320 rmoveto
          -65 callgsubr
          148 -205 vlineto
          -793 205 rmoveto
          505 -115 hlineto
          -42 -24 -31 -57 -4 vhcurveto
          78 -24 -68 61 -115 hhcurveto
          -58 callsubr
          94 vlineto
          -93 callsubr
          1034 234 rmoveto
          -1382 125 callgsubr
          hlineto
          -60 callgsubr
          134 122 60 102 54 hvcurveto
          130 -181 -57 callsubr
        </CharString>
        <CharString name="dvKHx_SHA">
          805 105 34 rmoveto
          -101 callsubr
          785 405 -55 callsubr
        </CharString>
        <CharString name="dvKHx_TA">
          603 105 34 rmoveto
          -101 callsubr
          881 440 -43 callsubr
        </CharString>
        <CharString name="dvKHx_VA">
          598 105 34 rmoveto
          -101 callsubr
          876 257 rmoveto
          -103 callsubr
          -64 -54 -21 -34 -38 hvcurveto
          34 -36 -52 22 -69 hhcurveto
          -58 callsubr
          94 vlineto
          -93 callsubr
          122 663 64 callgsubr
          -1253 125 callgsubr
          hlineto
          -60 callgsubr
          113 105 42 75 62 hvcurveto
          -33 39 53 -17 57 hhcurveto
          -69 callgsubr
        </CharString>
        <CharString name="dvKHx_YA">
          639 105 34 rmoveto
          -101 callsubr
          918 328 -104 callgsubr
          -479 -247 rmoveto
          -93 callsubr
          122 428 79 callgsubr
          -28 -15 -25 -35 -20 vhcurveto
          58 -33 -63 41 -94 hhcurveto
          -58 callsubr
          720 453 rmoveto
          -1294 125 callgsubr
          hlineto
          -60 callgsubr
          128 117 55 94 58 hvcurveto
          -41 44 56 -21 60 -96 callgsubr
        </CharString>
        <CharString name="dvK_CA">
          665 1051 301 rmoveto
          69 callsubr
          -279 vlineto
          22 -27 -35 15 -52 hhcurveto
          -49 -36 -17 -23 -27 hvcurveto
          110 576 vlineto
          240 -9 callgsubr
          -1321 -112 363 -276 hlineto
          -105 callsubr
          32 37 46 40 22 -20 -20 12 vhcurveto
          106 hlineto
          193 callsubr
          -86 69 -76 121 96 57 38 39 28 vhcurveto
          -146 -1 callsubr
        </CharString>
        <CharString name="dvK_DA">
          532 475 559 rmoveto
          411 -43 -68 hlineto
          -52 -55 -14 -33 -37 hvcurveto
          13 -27 -31 7 -35 79 callsubr
          551 109 225 callgsubr
          -1187 -102 callgsubr
          39 26 -21 -28 10 vhcurveto
          -92 20 99 -25 87 hhcurveto
          -88 callgsubr
          hlineto
          endchar
        </CharString>
        <CharString name="dvK_JA">
          610 724 433 rmoveto
          33 -30 -50 23 -63 hhcurveto
          -56 callsubr
          517 -126 vlineto
          243 238 rmoveto
          -1265 -102 callgsubr
          43 28 -26 -33 7 vhcurveto
          100 38 -35 -46 -40 -32 -22 -62 -36 -33 9 16 -32 100 callsubr
          -13 37 45 -8 52 hhcurveto
          101 93 47 112 43 -14 36 -39 25 hvcurveto
          141 -318 93 callgsubr
        </CharString>
        <CharString name="dvK_KA">
          774 893 9 callgsubr
          -41 -38 -8 -16 -32 hvcurveto
          22 -32 -40 12 -46 hhcurveto
          -56 callsubr
          418 vlineto
          506 hmoveto
          112 -1429 -112 363 -276 vlineto
          -106 callsubr
          21 17 -6 -10 13 vhcurveto
          -11 -25 -6 -29 -32 vvcurveto
          -113 77 -84 121 45 35 15 23 26 vhcurveto
          -85 callgsubr
        </CharString>
        <CharString name="dvK_KHA">
          843 800 443 rmoveto
          -34 -16 -27 -35 -11 vhcurveto
          67 -23 -52 49 -92 hhcurveto
          -46 -35 -16 -22 -26 hvcurveto
          110 325 vlineto
          668 -9 callgsubr
          -1498 -112 363 -276 hlineto
          -107 callsubr
          54 33 37 46 56 22 -44 -48 vhcurveto
          -27 vlineto
          -76 callgsubr
        </CharString>
        <CharString name="dvK_LA">
          756 1138 486 rmoveto
          -46 callsubr
          -43 -37 -11 -19 -29 hvcurveto
          25 -32 -43 14 -50 hhcurveto
          -56 callsubr
          663 vlineto
          243 -9 callgsubr
          -1411 -102 callgsubr
          39 25 -21 -27 11 vhcurveto
          -4 -20 -2 -21 -22 vvcurveto
          -160 108 -105 172 -34 callgsubr
          vhcurveto
          -90 callsubr
        </CharString>
        <CharString name="dvK_MA">
          585 972 358 -36 callsubr
        </CharString>
        <CharString name="dvK_NA">
          229 855 139 callsubr
          -885 -112 379 -266 vlineto
          -56 -34 -37 -46 -56 -26 36 44 49 29 37 57 5 5 0 -1 6 vhcurveto
          113 vlineto
          -62 callsubr
          -127 -94 -75 -126 -84 43 -65 72 -27 hvcurveto
          -51 -36 rlineto
          -37 -25 -14 -28 -28 vvcurveto
          -57 60 -57 58 -25 vhcurveto
          77 57 rlineto
          -29 29 -26 27 25 vvcurveto
          10 5 10 11 9 vhcurveto
          119 101 6 4 5 4 5 4 rlinecurve
          -126 -100 callsubr
        </CharString>
        <CharString name="dvK_NNA">
          759 887 342 -54 callgsubr
          -412 hmoveto
          155 -75 hlineto
          3 -15 -17 2 -17 79 callsubr
          909 221 rmoveto
          -1414 -102 callgsubr
          40 25 -22 -28 11 vhcurveto
          -114 8 70 -56 117 hhcurveto
          123 77 66 131 hvcurveto
          205 117 108 callsubr
        </CharString>
        <CharString name="dvK_PA">
          550 933 -67 callgsubr
          -458 hmoveto
          153 -75 hlineto
          3 -15 -15 2 -17 79 callsubr
          700 221 rmoveto
          -1205 -102 callgsubr
          41 25 -22 -30 10 vhcurveto
          -107 16 69 -47 100 -22 callsubr
        </CharString>
        <CharString name="dvK_PHA">
          818 934 -67 callgsubr
          -459 hmoveto
          154 -75 hlineto
          3 -15 -16 2 -17 79 callsubr
          968 109 rmoveto
          112 -1473 -112 363 -276 vlineto
          -106 callsubr
          43 26 -25 -32 9 vhcurveto
          0 vlineto
          -104 17 69 -45 98 31 callgsubr
          295 -100 callgsubr
          100 vlineto
          endchar
        </CharString>
        <CharString name="dvK_P_RA">
          549 932 -25 callgsubr
          -457 hmoveto
          152 -74 hlineto
          3 -14 -16 1 -16 79 callsubr
          699 221 rmoveto
          -1204 -102 callgsubr
          43 26 -25 -32 9 vhcurveto
          13 -66 36 -41 52 -19 -27 callsubr
        </CharString>
        <CharString name="dvK_R">
          -10 491 559 -5 callsubr
        </CharString>
        <CharString name="dvK_RA">
          229 855 139 callsubr
          -885 -112 379 -276 vlineto
          -56 -34 -37 -46 -56 -26 43 44 49 29 40 57 5 5 0 -1 6 vhcurveto
          113 vlineto
          -62 callsubr
          -127 -94 -78 -126 224 callsubr
          hvcurveto
          -118 -135 rlineto
          167 hlineto
          131 163 rlineto
          -118 -100 callsubr
        </CharString>
        <CharString name="dvK_SA">
          694 909 167 callgsubr
          148 -205 vlineto
          -603 23 callsubr
          844 224 rmoveto
          -1349 -51 callsubr
          150 -243 -88 callsubr
          hlineto
          endchar
        </CharString>
        <CharString name="dvK_SHA">
          725 661 506 rmoveto
          4 -18 -19 2 -20 hhcurveto
          -56 -42 -18 -27 -31 hvcurveto
          92 41 callsubr
          294 vlineto
          73 8 55 33 60 hhcurveto
          24 24 -4 -9 22 hvcurveto
          155 hlineto
          -3 6 -4 7 -4 7 rrcurveto
          -14 28 -6 31 23 vvcurveto
          37 19 34 36 43 13 -43 -47 -78 -33 -71 -98 vhcurveto
          -112 -117 hlineto
          191 -204 rlineto
          180 hlineto
          -207 210 rlineto
          120 7 98 83 159 vvcurveto
          119 -65 99 -132 -118 -66 -77 -87 vhcurveto
          447 158 rmoveto
          -671 -25 callsubr
        </CharString>
        <CharString name="dvK_SS">
          -32 280 566 -46 callgsubr
          399 -254 rmoveto
          107 -256 vlineto
          -91 callsubr
          endchar
        </CharString>
        <CharString name="dvK_SSA">
          199 280 566 -46 callgsubr
          302 105 rmoveto
          -252 -159 vlineto
          -91 callsubr
          214 -312 185 callgsubr
        </CharString>
        <CharString name="dvK_SS_MA">
          535 922 -12 callgsubr
          -642 7 -46 callgsubr
          235 105 rmoveto
          -112 110 -140 -202 vlineto
          -91 callsubr
          212 -1 hlineto
          -26 callsubr
          112 hlineto
          endchar
        </CharString>
        <CharString name="dvK_SS_M_YA">
          915 1299 -65 callsubr
          -533 189 -46 callgsubr
          236 105 rmoveto
          -112 110 -140 -203 vlineto
          -91 callsubr
          213 -6 hlineto
          91 callgsubr
          112 vlineto
          endchar
        </CharString>
        <CharString name="dvK_SS_VA">
          538 280 566 -46 callgsubr
          883 105 rmoveto
          -643 -112 401 -268 hlineto
          -103 callsubr
          -82 -63 -33 -53 -39 hvcurveto
          -181 hlineto
          -91 callsubr
          198 hlineto
          -1 -7 0 -6 -7 -58 callgsubr
        </CharString>
        <CharString name="dvK_SS_YA">
          549 933 31 callsubr
          -70 -34 30 55 -17 vhcurveto
          81 20 54 57 81 -32 callgsubr
          -653 7 rmoveto
          37 21 -25 -33 -39 -26 -26 -34 -17 hvcurveto
          -37 21 -21 29 30 vvcurveto
          36 23 24 37 vhcurveto
          240 105 rmoveto
          -112 136 vlineto
          17 -14 12 -27 -25 vvcurveto
          -82 -105 -26 -123 -27 -25 2 4 -24 vhcurveto
          48 25 41 40 69 vvcurveto
          101 -77 55 -116 -121 -69 -80 -91 -52 20 -45 36 -36 vhcurveto
          -63 -28 -61 -48 -94 vvcurveto
          -107 78 -68 115 60 50 19 32 27 vhcurveto
          -83 140 219 -138 vlineto
          -39 -15 -37 -31 -58 hhcurveto
          -50 -29 26 43 41 32 33 45 23 hvcurveto
          -25 60 74 -13 84 hhcurveto
          36 27 1 3 29 hvcurveto
          -102 32 85 -73 120 hhcurveto
          135 callsubr
          vlineto
          endchar
        </CharString>
        <CharString name="dvK_S_DDA">
          499 280 566 -46 callgsubr
          713 -7 225 callgsubr
          -594 226 callgsubr
          -43 -68 hlineto
          -74 -79 -29 -68 -27 hvcurveto
          -182 hlineto
          -91 callsubr
          234 hlineto
          -79 27 92 -22 82 hhcurveto
          -88 callgsubr
          hlineto
          endchar
        </CharString>
        <CharString name="dvK_S_P_LA">
          1513 1895 486 rmoveto
          -46 callsubr
          -106 -66 -64 -101 -15 hvcurveto
          -20 -25 -32 -12 -35 103 callgsubr
          190 676 vlineto
          -986 -205 rmoveto
          -65 callgsubr
          147 -184 vlineto
          -7 0 -7 1 -7 vhcurveto
          -603 23 callsubr
          1663 224 rmoveto
          -2168 -51 callsubr
          180 hlineto
          -50 31 54 -23 74 hhcurveto
          45 41 10 17 35 hvcurveto
          -121 27 100 -75 146 -70 callsubr
        </CharString>
        <CharString name="dvK_S_P_RA">
          1044 1427 -25 callgsubr
          -518 -205 rmoveto
          -65 callgsubr
          192 -174 vlineto
          -11 0 -10 1 -10 vhcurveto
          -648 23 callsubr
          1194 224 rmoveto
          -1699 -51 callsubr
          233 hlineto
          17 -23 23 -16 28 -10 -27 callsubr
        </CharString>
        <CharString name="dvK_S_TA">
          543 280 566 -46 callgsubr
          888 105 rmoveto
          -638 -112 396 -85 -74 hlineto
          -87 -65 -20 -35 -45 hvcurveto
          -232 hlineto
          -91 callsubr
          216 hlineto
          -6 -22 -3 -23 -25 vvcurveto
          -77 callgsubr
        </CharString>
        <CharString name="dvK_S_TTA">
          465 280 566 -46 callgsubr
          713 -7 rmoveto
          97 112 -540 -112 303 -83 -10 hlineto
          -76 -2 -59 -22 -43 -33 rrcurveto
          -242 hlineto
          -91 callsubr
          225 hlineto
          -6 -20 -3 -21 -21 -54 callsubr
        </CharString>
        <CharString name="dvK_TA">
          349 974 139 callsubr
          -1004 -112 468 -87 -393 -111 74 vlineto
          11 callsubr
          -63 -42 42 69 79 49 47 104 hvcurveto
          56 -360 142 256 hlineto
          62 38 42 61 70 33 -57 -65 -73 -26 -50 -67 -6 -10 1 1 -6 vhcurveto
          -113 vlineto
          -2 11 14 -1 13 hhcurveto
          140 79 97 140 122 -69 112 -150 -57 -41 -15 -24 -27 hvcurveto
          126 vlineto
          endchar
        </CharString>
        <CharString name="dvK_THA">
          689 1072 -2 callgsubr
          98 callsubr
          -69 -32 23 49 -26 vhcurveto
          169 callsubr
          76 104 vvcurveto
          -1 callgsubr
          -12 2 -16 2 -10 vhcurveto
          131 hlineto
          -2 8 0 10 8 -3 callgsubr
          -54 -51 -37 -101 -32 vhcurveto
          55 -33 -50 39 -72 hhcurveto
          -45 -35 -15 -22 -26 hvcurveto
          113 41 callsubr
          284 vlineto
          56 34 31 46 vhcurveto
          115 -45 -281 279 13 callsubr
        </CharString>
        <CharString name="dvK_TTA">
          495 475 559 rmoveto
          408 -83 -10 hlineto
          -61 -2 -51 -14 -40 -23 rrcurveto
          32 -34 -48 20 -58 79 callsubr
          548 109 rmoveto
          97 112 -1150 -102 callgsubr
          38 25 -19 -27 11 vhcurveto
          -10 -25 -5 -28 -28 -54 callsubr
        </CharString>
        <CharString name="dvK_T_RA">
          603 986 414 rmoveto
          49 -47 -62 28 -75 hhcurveto
          -44 -47 -13 -19 -36 hvcurveto
          19 -24 -30 11 -40 hhcurveto
          -56 callsubr
          511 64 callgsubr
          -1258 -102 callgsubr
          45 24 -30 -38 14 vhcurveto
          28 32 62 32 64 hhcurveto
          57 -2 44 -23 32 -36 -288 -173 rcurveline
          120 callsubr
        </CharString>
        <CharString name="dvK_T_VA">
          908 1291 291 rmoveto
          -103 callsubr
          -47 -42 -11 -20 -34 hvcurveto
          -163 hlineto
          -64 -52 -11 -20 -42 hvcurveto
          29 -33 -46 17 -54 hhcurveto
          -56 callsubr
          816 64 callgsubr
          -1563 -102 callgsubr
          28 21 -11 -16 14 vhcurveto
          -15 -32 -8 -36 -40 vvcurveto
          3 callsubr
          vhcurveto
          -61 callsubr
          69 hlineto
          -7 -21 -3 -23 -24 -58 callgsubr
        </CharString>
        <CharString name="dvK_T_YA">
          969 1353 44 callsubr
          -64 -51 -13 -22 -40 hvcurveto
          31 -34 -47 19 -57 hhcurveto
          -56 callsubr
          601 83 callgsubr
          -1624 -102 callgsubr
          38 25 -19 -27 11 vhcurveto
          -9 -27 -5 -30 -32 vvcurveto
          -140 74 -101 150 146 callgsubr
          -57 callgsubr
        </CharString>
        <CharString name="dvK_VA">
          577 960 291 rmoveto
          -103 callsubr
          -56 -47 -16 -26 -37 hvcurveto
          16 -29 -36 10 -41 hhcurveto
          -56 callsubr
          485 64 callgsubr
          -1232 -102 callgsubr
          25 19 -8 -14 14 vhcurveto
          -6 -20 -3 -21 -22 -58 callgsubr
        </CharString>
        <CharString name="dvK_V_YA">
          939 1323 -104 callsubr
          -435 -62 rmoveto
          5 -19 -26 3 -25 hhcurveto
          -54 -46 -15 -25 -36 hvcurveto
          16 -29 -34 8 -38 hhcurveto
          -56 callsubr
          571 -49 callsubr
          6 -48 12 -42 18 -35 rrcurveto
          -32 -30 -36 -21 -48 186 callgsubr
          676 296 rmoveto
          -1594 -102 callgsubr
          21 17 -6 -10 13 vhcurveto
          -7 -21 -4 -24 -24 vvcurveto
          -134 102 -72 126 84 64 32 48 47 vhcurveto
          -39 44 55 -21 59 -96 callgsubr
        </CharString>
        <CharString name="dvK_YA">
          646 1030 -31 callsubr
          -1301 -112 363 -276 hlineto
          -105 callgsubr
          31 46 vhcurveto
          137 -77 -265 268 hhcurveto
          64 60 29 35 212 callsubr
        </CharString>
        <CharString name="dvKx">
          -9 175 24 rmoveto
          -101 callsubr
          300 535 rmoveto
          101 112 -606 -102 callgsubr
          43 26 -25 -32 9 vhcurveto
          101 103 rlineto
          41 -34 -53 25 -66 79 callsubr
          endchar
        </CharString>
        <CharString name="dvKxA">
          214 175 24 rmoveto
          -101 callsubr
          664 535 rmoveto
          112 -869 -112 363 -10 callgsubr
        </CharString>
        <CharString name="dvKx_BA">
          633 175 24 rmoveto
          -101 callsubr
          841 267 111 callsubr
          -68 -55 -21 -36 -40 hvcurveto
          22 -31 -41 13 -47 hhcurveto
          -56 callsubr
          541 vlineto
          -57 -355 rmoveto
          -13 -24 -28 -7 -26 -64 callsubr
          469 325 rmoveto
          -1288 -102 callgsubr
          43 25 -24 -32 10 vhcurveto
          -1 -9 -1 -10 -10 vvcurveto
          156 callsubr
          vhcurveto
          -132 -84 callgsubr
        </CharString>
        <CharString name="dvKx_KxA">
          774 175 24 rmoveto
          -101 callsubr
          560 hmoveto
          -101 callsubr
          158 259 rmoveto
          -56 -34 -37 -46 -56 -26 43 44 49 29 40 57 5 5 0 -1 6 vhcurveto
          113 vlineto
          -62 callsubr
          -41 -38 -8 -16 -32 hvcurveto
          22 -32 -40 12 -46 hhcurveto
          -56 callsubr
          418 vlineto
          506 hmoveto
          112 -1429 -112 363 -276 vlineto
          -106 callsubr
          21 17 -6 -10 13 vhcurveto
          -11 -25 -6 -29 -32 vvcurveto
          -113 77 -84 121 45 35 15 23 26 vhcurveto
          -85 callgsubr
        </CharString>
        <CharString name="dvKx_MA">
          585 175 24 rmoveto
          -101 callsubr
          797 334 -36 callsubr
        </CharString>
        <CharString name="dvKx_PHA">
          818 175 24 rmoveto
          -101 callsubr
          759 352 rmoveto
          -83 callsubr
          190 163 vlineto
          -459 hmoveto
          154 -75 hlineto
          3 -15 -16 2 -17 79 callsubr
          968 109 rmoveto
          112 -1473 -112 363 -276 vlineto
          -106 callsubr
          43 26 -25 -32 9 vhcurveto
          0 vlineto
          -104 17 69 -45 98 31 callgsubr
          295 -100 callgsubr
          100 vlineto
          endchar
        </CharString>
        <CharString name="dvKx_PHxA">
          818 175 24 rmoveto
          -101 callsubr
          539 80 rmoveto
          -101 callsubr
          220 272 rmoveto
          -83 callsubr
          190 163 vlineto
          -459 hmoveto
          154 -75 hlineto
          3 -15 -16 2 -17 79 callsubr
          968 109 rmoveto
          112 -1473 -112 363 -276 vlineto
          -106 callsubr
          43 26 -25 -32 9 vhcurveto
          0 vlineto
          -104 17 69 -45 98 31 callgsubr
          295 -100 callgsubr
          100 vlineto
          endchar
        </CharString>
        <CharString name="dvKx_R">
          -10 315 -56 rmoveto
          -101 callsubr
          176 615 -5 callsubr
        </CharString>
        <CharString name="dvKx_RA">
          229 315 -56 rmoveto
          -101 callsubr
          540 615 rmoveto
          112 -885 -112 379 -276 vlineto
          -56 -34 -37 -46 -56 -26 43 44 49 29 40 57 5 5 0 -1 6 vhcurveto
          113 vlineto
          -62 callsubr
          -127 -94 -78 -126 224 callsubr
          hvcurveto
          -118 -135 rlineto
          167 hlineto
          131 163 rlineto
          -118 -100 callsubr
        </CharString>
        <CharString name="dvKx_TA">
          585 175 24 rmoveto
          -101 callsubr
          793 450 rmoveto
          -74 hlineto
          -71 -58 -14 -24 -43 hvcurveto
          33 -34 -48 20 -59 hhcurveto
          -56 callsubr
          493 64 callgsubr
          -1240 -102 callgsubr
          40 25 -21 -29 11 vhcurveto
          -10 -26 -4 -28 -31 vvcurveto
          -77 callgsubr
        </CharString>
        <CharString name="dvL">
          -81 373 120 rmoveto
          -71 callsubr
          37 34 -28 -21 12 vhcurveto
          68 81 rlineto
          45 -31 -50 34 -78 hhcurveto
          -75 -59 -28 -69 4 callgsubr
          -122 -69 -85 -129 -160 108 -105 172 -34 callgsubr
          hvcurveto
          -403 554 rmoveto
          574 112 -574 hlineto
          endchar
        </CharString>
        <CharString name="dvLA">
          166 791 671 rmoveto
          -821 -112 578 -73 hlineto
          1 -8 -9 1 -8 hhcurveto
          -75 -59 -28 -69 -20 hvcurveto
          47 -11 -48 42 -85 hhcurveto
          -122 -69 -85 -129 -160 108 -105 172 -68 callgsubr
        </CharString>
        <CharString name="dvLL">
          207 552 87 rmoveto
          125 95 80 123 124 -93 81 -129 101 callgsubr
          -4 296 80 callgsubr
          -283 360 rmoveto
          862 112 -862 hlineto
          endchar
        </CharString>
        <CharString name="dvLLA">
          0 callgsubr
          -27 34 48 -32 76 hhcurveto
          125 95 80 123 98 -58 71 -87 25 hvcurveto
          75 vlineto
          endchar
        </CharString>
        <CharString name="dvLL_R">
          207 548 383 80 callgsubr
          32 -261 rmoveto
          145 callgsubr
          124 -93 81 -129 -74 -40 -24 -31 -35 vhcurveto
          6 callgsubr
          13 -11 16 -11 18 -10 rrcurveto
          -471 557 rmoveto
          -112 862 112 vlineto
          endchar
        </CharString>
        <CharString name="dvLL_RA">
          0 callgsubr
          13 -11 16 -11 18 -10 -156 -176 rcurveline
          145 callgsubr
          98 -58 71 -87 25 vhcurveto
          75 vlineto
          endchar
        </CharString>
        <CharString name="dvLL_YA">
          635 1019 -104 callsubr
          -392 -245 rmoveto
          1 -7 1 -8 -8 vvcurveto
          -54 -30 -38 -49 -34 -36 23 21 -23 vhcurveto
          54 7 20 86 64 hhcurveto
          38 26 -21 -33 11 hvcurveto
          -370 -130 rmoveto
          24 callsubr
          1007 472 rmoveto
          -1290 -112 772 50 callsubr
          -25 -12 -22 -27 -19 vhcurveto
          51 -39 -65 30 -78 hhcurveto
          101 callgsubr
          71 61 26 45 40 hvcurveto
          -34 42 51 -18 55 -96 callgsubr
        </CharString>
        <CharString name="dvL_BA">
          557 883 204 rmoveto
          -13 -24 -28 -7 -26 -64 callsubr
          469 325 rmoveto
          -1212 -112 970 103 callsubr
          -64 -53 -19 -33 -40 hvcurveto
          18 -27 -36 11 -44 hhcurveto
          -75 -59 -28 -69 -20 -106 callgsubr
          65 vlineto
          70 26 31 64 13 12 -3 -6 12 vhcurveto
          -9 -23 -4 -26 -27 vvcurveto
          156 callsubr
          vhcurveto
          -132 -84 callgsubr
        </CharString>
        <CharString name="dvL_BHA">
          516 903 -2 callgsubr
          -293 -153 145 vlineto
          143 callgsubr
          -624 -112 593 129 callgsubr
          -33 vlineto
          7 -26 -27 5 -25 hhcurveto
          -85 -59 -36 -61 -20 -106 callgsubr
          65 vlineto
          65 36 36 60 25 22 -2 -7 18 vhcurveto
          -23 -10 -14 -22 -30 vvcurveto
          -22 7 -24 20 -42 vhcurveto
          36 -77 165 callgsubr
        </CharString>
        <CharString name="dvL_DA">
          524 1037 383 rmoveto
          83 callsubr
          -1179 -112 924 -64 -71 vlineto
          -74 -58 -18 -31 -42 hvcurveto
          25 -30 -41 17 -55 hhcurveto
          -75 -59 -28 -69 -20 -106 callgsubr
          65 vlineto
          70 26 31 64 19 19 -8 -10 15 vhcurveto
          -9 -25 -5 -27 -29 vvcurveto
          137 callgsubr
          vhcurveto
          -85 callsubr
          endchar
        </CharString>
        <CharString name="dvL_DDA">
          479 973 191 callgsubr
          -1134 -112 863 -43 -68 hlineto
          -54 -56 -15 -34 -37 hvcurveto
          13 -26 -31 8 -38 hhcurveto
          -75 -59 -28 -69 -20 -106 callgsubr
          65 vlineto
          70 26 31 64 15 15 -5 -7 13 vhcurveto
          -3 vlineto
          118 callsubr
          -26 callgsubr
          vhcurveto
          55 callgsubr
          150 86 77 98 2 hvcurveto
          86 -50 67 -150 -70 -46 2 35 28 23 11 28 vhcurveto
          184 callsubr
        </CharString>
        <CharString name="dvL_DDHA">
          499 994 559 rmoveto
          130 112 -1154 -112 884 -73 -9 hlineto
          -72 -1 -65 -15 -51 -32 rrcurveto
          30 -31 -43 20 -60 hhcurveto
          -75 -59 -28 -69 -20 -106 callgsubr
          65 vlineto
          70 26 31 64 19 19 -8 -10 15 vhcurveto
          -16 -30 -8 -36 -42 vvcurveto
          -135 106 -107 231 callsubr
          84 73 101 12 callsubr
        </CharString>
        <CharString name="dvL_D_RA">
          499 1012 383 rmoveto
          83 callsubr
          -1154 -112 899 -64 -71 vlineto
          -67 -53 -15 -25 -41 hvcurveto
          20 -29 -37 13 -48 hhcurveto
          -75 -59 -28 -69 -20 -106 callgsubr
          65 vlineto
          70 26 31 64 11 11 -3 -4 10 vhcurveto
          -12 -27 -6 -32 -33 vvcurveto
          -98 54 -74 82 -31 vhcurveto
          99 callgsubr
          endchar
        </CharString>
        <CharString name="dvL_GA">
          490 1115 -2 callgsubr
          -1145 -112 653 -95 hlineto
          15 -27 -33 9 -40 hhcurveto
          -75 -59 -28 -69 -20 -106 callgsubr
          65 vlineto
          70 26 31 64 37 33 -27 -21 13 vhcurveto
          -9 -7 -11 -5 -17 hhcurveto
          -27 -22 12 0 hvcurveto
          -110 vlineto
          -12 35 22 -2 32 hhcurveto
          79 66 41 101 hvcurveto
          214 111 -559 -1 callsubr
        </CharString>
        <CharString name="dvL_HA">
          466 993 117 callsubr
          -1121 -112 883 -48 -144 vlineto
          -46 -41 -11 -23 -28 hvcurveto
          7 -21 -23 4 -27 hhcurveto
          -75 -59 -28 -69 -20 -106 callgsubr
          65 vlineto
          70 26 31 64 9 8 -2 -2 8 vhcurveto
          8 -51 39 -29 22 -12 rrcurveto
          -44 -34 -22 -48 -48 -81 callgsubr
          endchar
        </CharString>
        <CharString name="dvL_JA">
          573 1199 -2 callgsubr
          -1229 -112 986 -106 -325 hlineto
          22 -27 -37 13 -48 hhcurveto
          -79 -56 -40 -57 -15 -106 callgsubr
          65 vlineto
          55 18 46 62 35 26 -17 -22 15 vhcurveto
          97 46 -39 -48 -52 -38 -24 -92 callgsubr
          45 -17 38 -39 25 hvcurveto
          139 -338 93 callgsubr
        </CharString>
        <CharString name="dvL_JxA">
          573 683 -6 rmoveto
          -101 callsubr
          516 677 rmoveto
          -1229 -112 986 -106 -325 hlineto
          22 -27 -37 13 -48 hhcurveto
          -79 -56 -40 -57 -15 -106 callgsubr
          65 vlineto
          55 18 46 62 35 26 -17 -22 15 vhcurveto
          97 46 -39 -48 -52 -38 -24 -92 callgsubr
          45 -17 38 -39 25 hvcurveto
          139 -338 93 callgsubr
        </CharString>
        <CharString name="dvL_KA">
          734 1359 139 callsubr
          -1389 -112 883 -276 vlineto
          -56 -34 -37 -46 -56 -26 43 44 49 29 40 57 5 5 0 -1 6 vhcurveto
          113 vlineto
          -62 callsubr
          -47 -43 -11 -20 -34 hvcurveto
          24 -30 -40 16 -53 hhcurveto
          -75 -59 -28 -69 -20 -106 callgsubr
          65 vlineto
          70 26 31 64 13 13 -4 -5 12 vhcurveto
          -13 -27 -7 -31 -35 vvcurveto
          -113 77 -84 121 45 35 15 23 26 vhcurveto
          -85 callgsubr
        </CharString>
        <CharString name="dvL_KHA">
          776 1406 -2 callgsubr
          -1436 -112 768 -116 hlineto
          -35 -16 -27 -38 -10 vhcurveto
          68 -20 -58 49 -88 hhcurveto
          -74 -59 -38 -59 -16 hvcurveto
          56 -15 -52 33 -77 hhcurveto
          -122 -69 -85 -129 -160 108 -105 172 -97 callsubr
          65 vlineto
          59 18 42 47 48 16 -40 -52 vhcurveto
          -29 vlineto
          -76 callgsubr
        </CharString>
        <CharString name="dvL_K_YA">
          1166 1550 -31 callsubr
          -1821 -112 883 -276 hlineto
          -56 -34 -37 -46 -56 -26 43 44 49 29 40 57 5 5 0 -1 6 vhcurveto
          113 vlineto
          -62 callsubr
          -47 -43 -11 -20 -34 hvcurveto
          24 -30 -40 16 -53 hhcurveto
          -75 -59 -28 -69 -20 -106 callgsubr
          65 vlineto
          70 26 31 64 13 13 -4 -5 12 vhcurveto
          -13 -27 -7 -31 -35 72 callsubr
        </CharString>
        <CharString name="dvL_LA">
          676 1301 -2 callgsubr
          -1331 -112 1088 62 callgsubr
          -39 -33 -8 -16 -27 hvcurveto
          20 -29 -37 12 -47 hhcurveto
          -75 -59 -28 -69 -20 -106 callgsubr
          65 vlineto
          70 26 31 64 11 11 -2 -5 10 vhcurveto
          -13 -29 -6 -36 -39 vvcurveto
          -160 108 -105 172 -34 callgsubr
          vhcurveto
          -90 callsubr
        </CharString>
        <CharString name="dvL_L_YA">
          1089 1473 -104 callsubr
          241 -9 callgsubr
          -1744 -112 1226 50 callsubr
          -27 -14 -24 -31 -19 vhcurveto
          44 -31 -50 34 -70 hhcurveto
          -71 -59 -28 -69 4 callgsubr
          -39 -33 -8 -16 -27 hvcurveto
          20 -29 -37 12 -47 hhcurveto
          -75 -59 -28 -69 -20 -106 callgsubr
          65 vlineto
          70 26 31 64 11 11 -2 -5 10 vhcurveto
          -13 -29 -6 -36 -39 vvcurveto
          -160 108 -105 172 -34 callgsubr
          vhcurveto
          -97 callgsubr
          65 vlineto
          65 17 36 43 39 25 -44 -39 12 vhcurveto
          0 vlineto
          -121 41 92 -67 106 -96 callgsubr
        </CharString>
        <CharString name="dvL_MA">
          520 907 -12 callgsubr
          238 -9 callgsubr
          -1175 -112 640 -82 hlineto
          7 -24 -25 4 -25 hhcurveto
          -85 -62 -33 -64 -20 -106 callgsubr
          65 vlineto
          61 28 40 62 27 24 -5 -9 19 vhcurveto
          -23 -9 -13 -16 -27 -29 callgsubr
          hlineto
          endchar
        </CharString>
        <CharString name="dvL_PA">
          492 875 -67 callgsubr
          242 112 rmoveto
          -1147 -112 600 -76 hlineto
          3 -14 -16 2 -17 hhcurveto
          -75 -59 -28 -69 -20 -106 callgsubr
          65 vlineto
          70 26 31 64 14 13 -4 -6 12 vhcurveto
          -137 3 73 -59 112 -22 callsubr
        </CharString>
        <CharString name="dvL_PHA">
          769 885 90 callsubr
          -1424 -112 610 -78 vlineto
          5 -17 -19 2 -21 hhcurveto
          -75 -59 -28 -69 -20 -106 callgsubr
          65 vlineto
          70 26 31 64 18 17 -6 -10 14 vhcurveto
          -133 5 73 -57 110 31 callgsubr
          295 -100 callgsubr
          100 vlineto
          endchar
        </CharString>
        <CharString name="dvL_R">
          -78 287 116 rmoveto
          -10 1 -10 1 -9 3 rrcurveto
          -58 18 -26 59 66 vvcurveto
          72 27 27 39 37 21 -23 -62 vhcurveto
          19 callgsubr
          48 47 -24 0 vhcurveto
          107 vlineto
          0 -54 28 -49 -75 -59 -28 -69 -20 vhcurveto
          47 -11 -48 42 -85 hhcurveto
          -122 -69 -85 -129 -141 71 -104 137 -18 hvcurveto
          -2 15 14 -1 16 hhcurveto
          -317 559 rmoveto
          577 112 -577 hlineto
          594 -419 rmoveto
          -334 -347 rlineto
          159 hlineto
          246 276 rlineto
          endchar
        </CharString>
        <CharString name="dvL_RA">
          166 791 129 callsubr
          -122 -69 -85 -129 -142 72 -104 139 -17 hvcurveto
          -2 13 14 -1 15 hhcurveto
          116 vlineto
          -13 1 -11 2 -10 4 rrcurveto
          -55 19 -24 58 64 vvcurveto
          72 27 27 39 37 21 -23 -62 vhcurveto
          19 callgsubr
          6 5 0 -1 6 vhcurveto
          -141 vlineto
          -318 -330 rlineto
          159 hlineto
          159 178 rlineto
          -83 47 callsubr
        </CharString>
        <CharString name="dvL_SA">
          657 852 167 callgsubr
          148 -205 vlineto
          241 317 rmoveto
          -1292 -112 763 -115 hlineto
          -35 -16 -27 -38 -10 vhcurveto
          66 -20 -64 45 -77 hhcurveto
          -71 -60 -34 -58 -18 -106 callgsubr
          65 vlineto
          62 18 34 45 45 21 -36 -52 vhcurveto
          -15 4 callsubr
        </CharString>
        <CharString name="dvL_TA">
          523 1148 -2 callgsubr
          -1178 -112 936 -85 -74 hlineto
          -72 -57 -14 -24 -43 hvcurveto
          31 -31 -44 21 -62 hhcurveto
          -75 -59 -28 -69 -20 -106 callgsubr
          65 vlineto
          70 26 31 64 19 18 -7 -10 15 vhcurveto
          -19 -34 -9 -40 -44 vvcurveto
          -77 callgsubr
        </CharString>
        <CharString name="dvL_THA">
          579 210 callgsubr
          458 100 callgsubr
          5 -16 181 callgsubr
          -5 12 -2 13 14 vvcurveto
          26 14 22 31 31 12 -26 -26 -54 -51 -31 -102 -32 vhcurveto
          51 -29 -47 37 -74 hhcurveto
          -72 -57 -39 -53 -17 -106 callgsubr
          88 vlineto
          40 15 33 39 44 26 -58 -38 13 vhcurveto
          0 vlineto
          -116 41 103 -70 112 13 callsubr
        </CharString>
</ttFont>
